<svg width="31" height="31" viewBox="0 0 31 31" fill="none" xmlns="http://www.w3.org/2000/svg">
<path d="M13.9103 24.5416H8.79329C8.49771 24.5416 8.24994 24.4416 8.04997 24.2417C7.85002 24.0417 7.75004 23.7939 7.75004 23.4984V14.2083H7.24329C7.00814 14.2083 6.8533 14.1015 6.77877 13.8878C6.70427 13.6742 6.75347 13.4965 6.92638 13.3547L14.8021 6.23966C14.9923 6.05254 15.2257 5.95898 15.5024 5.95898C15.779 5.95898 16.0109 6.05254 16.198 6.23966L20.468 10.1147V7.67542C20.468 7.5363 20.5201 7.41458 20.6245 7.31026C20.7288 7.20594 20.8505 7.15378 20.9896 7.15378H22.0329C22.172 7.15378 22.2937 7.20594 22.3981 7.31026C22.5024 7.41458 22.5545 7.5363 22.5545 7.67542V11.9628L24.0772 13.3513C24.2478 13.5119 24.2958 13.6949 24.2213 13.9003C24.1468 14.1056 23.9919 14.2083 23.7568 14.2083H23.25V23.4984C23.25 23.7939 23.1501 24.0417 22.9501 24.2417C22.7501 24.4416 22.5024 24.5416 22.2068 24.5416H17.0898V17.7852H13.9103V24.5416ZM9.04171 23.2499H12.6186V16.4935H18.3815V23.2499H21.9584V13.1749L15.5 7.36244L9.04171 13.1749V23.2499ZM13.1651 12.9241H17.835C17.835 12.318 17.6015 11.8191 17.1345 11.4275C16.6675 11.0358 16.1227 10.84 15.5 10.84C14.8774 10.84 14.3326 11.0351 13.8656 11.4253C13.3986 11.8154 13.1651 12.315 13.1651 12.9241Z" fill="white"/>
</svg>
