<svg width="31" height="31" viewBox="0 0 31 31" fill="none" xmlns="http://www.w3.org/2000/svg">
<path d="M10.0349 23.25V25.0385C10.0349 25.2593 9.95736 25.4469 9.80223 25.6015C9.6471 25.7561 9.45873 25.8333 9.23713 25.8333C9.01552 25.8333 8.82813 25.7561 8.67496 25.6015C8.52177 25.4469 8.44517 25.2593 8.44517 25.0385V22.7383C8.02456 22.5561 7.58822 22.1682 7.13613 21.5745C6.68405 20.9809 6.45801 20.2974 6.45801 19.524V7.75C6.45801 6.4099 7.18316 5.42904 8.63346 4.80742C10.0838 4.18581 12.3722 3.875 15.4989 3.875C18.7385 3.875 21.0555 4.1737 22.4498 4.77109C23.8442 5.36849 24.5413 6.36146 24.5413 7.75V19.524C24.5413 20.2974 24.3153 20.9809 23.8632 21.5745C23.4111 22.1682 22.9748 22.5561 22.5542 22.7383V25.0385C22.5542 25.2593 22.4766 25.4469 22.3215 25.6015C22.1664 25.7561 21.978 25.8333 21.7564 25.8333C21.5348 25.8333 21.3474 25.7561 21.1942 25.6015C21.041 25.4469 20.9644 25.2593 20.9644 25.0385V23.25H10.0349ZM15.5146 7.15383H23.1453H7.88381H15.5146ZM20.6663 15.5H7.74967H23.2497H20.6663ZM7.74967 14.2083H23.2497V8.44553H7.74967V14.2083ZM10.9847 20.1699C11.3865 20.1699 11.7261 20.0292 12.0035 19.748C12.2809 19.4667 12.4195 19.1251 12.4195 18.7233C12.4195 18.3215 12.2789 17.9819 11.9976 17.7045C11.7164 17.4272 11.3748 17.2885 10.973 17.2885C10.5712 17.2885 10.2316 17.4291 9.9542 17.7104C9.67683 17.9916 9.53815 18.3332 9.53815 18.735C9.53815 19.1368 9.67878 19.4764 9.96004 19.7538C10.2413 20.0312 10.5829 20.1699 10.9847 20.1699ZM20.0264 20.1699C20.4282 20.1699 20.7678 20.0292 21.0452 19.748C21.3225 19.4667 21.4612 19.1251 21.4612 18.7233C21.4612 18.3215 21.3206 17.9819 21.0393 17.7045C20.758 17.4272 20.4165 17.2885 20.0147 17.2885C19.6128 17.2885 19.2732 17.4291 18.9959 17.7104C18.7185 17.9916 18.5798 18.3332 18.5798 18.735C18.5798 19.1368 18.7204 19.4764 19.0017 19.7538C19.283 20.0312 19.6245 20.1699 20.0264 20.1699ZM7.88381 7.15383H23.1453C22.9218 6.48979 22.2317 5.99258 21.075 5.66221C19.9183 5.33185 18.0648 5.16667 15.5146 5.16667C12.9793 5.16667 11.1333 5.33434 9.97657 5.66967C8.81986 6.00501 8.12228 6.49973 7.88381 7.15383ZM10.333 21.9583H20.6663C21.3768 21.9583 21.9849 21.7054 22.4908 21.1995C22.9967 20.6936 23.2497 20.0854 23.2497 19.375V15.5H7.74967V19.375C7.74967 20.0854 8.00263 20.6936 8.50853 21.1995C9.01443 21.7054 9.62259 21.9583 10.333 21.9583Z" fill="white"/>
</svg>
