<svg width="31" height="31" viewBox="0 0 31 31" fill="none" xmlns="http://www.w3.org/2000/svg">
<path d="M11.625 27.125V25.2869C9.46393 24.4324 7.632 23.1531 6.12918 21.4491C4.6264 19.7451 3.875 17.7621 3.875 15.5C3.875 13.8919 4.18004 12.3806 4.79011 10.9662C5.40021 9.55187 6.22819 8.32156 7.27405 7.27531C8.31992 6.22906 9.54977 5.40078 10.9636 4.79047C12.3775 4.18016 13.8882 3.875 15.4957 3.875C17.1032 3.875 18.6146 4.18016 20.0297 4.79047C21.4449 5.40078 22.6759 6.22906 23.7228 7.27531C24.7696 8.32156 25.5984 9.55187 26.209 10.9662C26.8197 12.3806 27.125 13.8919 27.125 15.5C27.125 17.7621 26.3736 19.7451 24.8708 21.4491C23.368 23.1531 21.5361 24.4324 19.375 25.2869V27.125H11.625ZM12.2708 15.5H18.7292V5.68831C18.191 5.51443 17.6528 5.38401 17.1146 5.29706C16.5764 5.21013 16.0382 5.16667 15.5 5.16667C14.9618 5.16667 14.4236 5.21013 13.8854 5.29706C13.3472 5.38401 12.809 5.51443 12.2708 5.68831V15.5ZM5.16667 15.5H10.9792V6.20746C9.19899 7.08347 7.7852 8.35526 6.73779 10.0228C5.69037 11.6904 5.16667 13.5161 5.16667 15.5ZM20.0208 15.5H25.8333C25.8333 13.5161 25.3096 11.6904 24.2622 10.0228C23.2148 8.35526 21.801 7.08347 20.0208 6.20746V15.5ZM12.9167 25.8333H18.0833V24.4125C19.8983 23.6888 21.5286 22.7039 22.9743 21.4578C24.4199 20.2117 25.3167 18.6563 25.6644 16.7917H5.33558C5.68334 18.6563 6.58006 20.2117 8.02574 21.4578C9.47139 22.7039 11.1017 23.6888 12.9167 24.4125V25.8333Z" fill="white"/>
</svg>
