<svg width="31" height="31" viewBox="0 0 31 31" fill="none" xmlns="http://www.w3.org/2000/svg">
<path d="M5.14183 27.7708C4.72783 27.7708 4.39498 27.6073 4.14328 27.2802C3.89155 26.9531 3.81868 26.5801 3.92466 26.1612C4.26084 24.8149 4.48854 23.4603 4.60776 22.0974C4.727 20.7345 4.80567 19.3551 4.84375 17.9591C3.91142 17.6809 3.19397 17.1278 2.69138 16.2998C2.18879 15.4718 1.9375 14.5594 1.9375 13.5625V13.2048C1.9375 12.8587 2.03314 12.5515 2.22441 12.2832C2.41566 12.0149 2.67358 11.817 2.99815 11.6895C5.20888 10.8549 7.28052 9.7893 9.21307 8.49266C11.1456 7.19603 12.9763 5.74622 14.7051 4.14324C14.826 4.03228 14.9506 3.9532 15.0789 3.90599C15.2073 3.8588 15.3476 3.83521 15.5 3.83521C15.6524 3.83521 15.7927 3.8588 15.9211 3.90599C16.0494 3.9532 16.174 4.03228 16.2949 4.14324C18.0237 5.74622 19.8544 7.19603 21.7869 8.49266C23.7195 9.7893 25.7911 10.8549 28.0018 11.6895C28.3264 11.817 28.5843 12.0149 28.7756 12.2832C28.9669 12.5515 29.0625 12.8587 29.0625 13.2048V13.5625C29.0625 14.5594 28.8112 15.4718 28.3086 16.2998C27.806 17.1278 27.0886 17.6809 26.1562 17.9591C26.1943 19.3551 26.273 20.7345 26.3922 22.0974C26.5115 23.4603 26.7392 24.8149 27.0753 26.1612C27.1813 26.5801 27.1084 26.9531 26.8567 27.2802C26.605 27.6073 26.2722 27.7708 25.8582 27.7708H5.14183ZM4.83881 12.2708H26.1612C24.1773 11.408 22.3024 10.3772 20.5362 9.17825C18.7701 7.97932 17.0914 6.64543 15.5 5.17657C13.9086 6.64543 12.2299 7.97932 10.4638 9.17825C8.69764 10.3772 6.82266 11.408 4.83881 12.2708ZM18.7292 16.7916C19.5157 16.7916 20.1429 16.4666 20.6108 15.8167C21.0786 15.1667 21.3125 14.4153 21.3125 13.5625H16.1458C16.1458 14.4153 16.3797 15.1667 16.8476 15.8167C17.3154 16.4666 17.9426 16.7916 18.7292 16.7916ZM12.2708 16.7916C13.0574 16.7916 13.6846 16.4666 14.1524 15.8167C14.6203 15.1667 14.8542 14.4153 14.8542 13.5625H9.6875C9.6875 14.4153 9.92141 15.1667 10.3892 15.8167C10.857 16.4666 11.4843 16.7916 12.2708 16.7916ZM5.8125 16.7916C6.59908 16.7916 7.22628 16.4666 7.6941 15.8167C8.16192 15.1667 8.39583 14.4153 8.39583 13.5625H3.22917C3.22917 14.4153 3.46308 15.1667 3.9309 15.8167C4.39872 16.4666 5.02592 16.7916 5.8125 16.7916ZM5.16169 26.4791H10.0328C10.2596 25.0219 10.431 23.5712 10.5469 22.1272C10.6629 20.6832 10.7448 19.2243 10.7929 17.7504C10.412 17.5931 10.0721 17.3683 9.7732 17.076C9.47429 16.7838 9.23044 16.4522 9.04167 16.0812C8.75683 16.631 8.35857 17.0839 7.84687 17.4399C7.33518 17.796 6.7647 18.003 6.13542 18.0609C6.09236 19.4868 6.00874 20.9005 5.88454 22.3023C5.76035 23.7041 5.5194 25.0964 5.16169 26.4791ZM11.3319 26.4791H19.6681C19.4462 25.0798 19.2785 23.6847 19.1651 22.2936C19.0517 20.9026 18.9709 19.4967 18.9229 18.0758C18.186 18.1156 17.5062 17.9438 16.8836 17.5604C16.2609 17.1771 15.7997 16.6533 15.5 15.9893C15.2003 16.6533 14.7391 17.1771 14.1164 17.5604C13.4938 17.9438 12.814 18.1156 12.0771 18.0758C12.0291 19.4967 11.9483 20.9026 11.8349 22.2936C11.7215 23.6847 11.5538 25.0798 11.3319 26.4791ZM20.9672 26.4791H25.8383C25.4806 25.0964 25.2396 23.7041 25.1155 22.3023C24.9913 20.9005 24.9076 19.4868 24.8646 18.0609C24.2353 18.003 23.6565 17.7931 23.1283 17.4313C22.6 17.0694 22.21 16.6028 21.9583 16.0315C21.7861 16.419 21.5505 16.7589 21.2516 17.0512C20.9527 17.3435 20.6046 17.5765 20.2071 17.7504C20.2552 19.2243 20.3384 20.6832 20.4568 22.1272C20.5752 23.5712 20.7453 25.0219 20.9672 26.4791ZM25.1875 16.7916C25.9741 16.7916 26.6013 16.4666 27.0691 15.8167C27.5369 15.1667 27.7708 14.4153 27.7708 13.5625H22.6042C22.6042 14.4153 22.8381 15.1667 23.3059 15.8167C23.7737 16.4666 24.4009 16.7916 25.1875 16.7916Z" fill="white"/>
</svg>
