<svg xmlns="http://www.w3.org/2000/svg" width="102" height="70.651" viewBox="0 0 102 70.651">
  <g id="폴바셋_BI_combination" transform="translate(1.864 1.839)">
    <g id="그룹_2" data-name="그룹 2" transform="translate(10.651 51.128)">
      <g id="그룹_1" data-name="그룹 1">
        <path id="패스_1" data-name="패스 1" d="M43.941,156.935c1.562-.781,6.708-2.946,6.708-5.537,0-2.626-4.294-3.443-6.992-3.762a40.982,40.982,0,0,0-7.276-.319c-1.987.106-2.981.568-2.981,1.136,0,.532.745.71.994.71a2.368,2.368,0,0,0,.994-.284c.319-.177.426-.532,1.278-.639a25.358,25.358,0,0,1,7.63.319c4.685.958,4.507,2.484,4.543,2.91,0,.426-.213,1.42-3.017,3.443a38.308,38.308,0,0,1-6.1,3.407c.035-.355.035-.674.071-.923.177-1.668.816-5.537.923-6.672.106-1.171-.6-1.313-.6-1.313-.887-.071-.958,1.384-.958,1.384s-.106,1.242-.355,4.436c-.071,1.1-.142,2.378-.177,3.62-.284.142-.461.284-.426.532.035.213.248.213.39.177-.035,1.987-.035,3.656-.035,3.939,0,.426.106,1.455.461,1.455.39,0,.461-.568.461-1.278,0-.532.071-2.768.142-4.578C40.853,158.391,42.876,157.468,43.941,156.935Z" transform="translate(-33.4 -147.272)"/>
        <path id="패스_2" data-name="패스 2" d="M73.163,165.655c-.355-.142-.745.319-1.491,1.562s-2.768,5.5-3.726,5.5-.035-2.662-.745-2.733c-.745-.071-2.626,3.265-3.407,3.265s0-3.265-.6-3.372c-.6-.071-2.7,3.123-3.3,3.052-.461-.071-.248-1.562-.248-2.484a.91.91,0,0,0-.958-.958c-.994,0-2.165.745-2.981,2.875-.816,2.094.816,3.3,2.165,1.1,0,0,.958-1.562.958-1.207,0,.39.106,1.7.816,1.7s1.491-.923,1.81-1.313c.355-.39,1.171-1.526,1.136-.958s-.39,3.088.958,3.088c.887,0,1.916-1.7,2.129-1.987.213-.319,1.136-1.952,1.136-1.207s-.284,2.52.887,2.52,2.555-3.088,3.052-3.9a21.221,21.221,0,0,1,1.42-2.378,35.818,35.818,0,0,1-.6,4.01c-.142.923-.6,3.939.284,3.727.781-.177.355-1.526.355-1.987,0-.39.284-2.7.5-3.833C72.773,168.636,73.518,165.8,73.163,165.655Zm-14.445,4.933s-1.526,2.484-1.952,2.484-.355-.816.355-1.7c.71-.852,1.313-.958,1.526-.923C58.825,170.482,58.719,170.588,58.719,170.588Z" transform="translate(-47.646 -159.115)"/>
        <path id="패스_3" data-name="패스 3" d="M121.05,155.11c-1.029-.035-1.916-.035-2.662-.035,2.165-1.136,6.814-3.159,6.814-5,0-1.739-3.514-2.378-5.572-2.626a31.816,31.816,0,0,0-5.5-.035c-1.526.071-2.129.5-2.129.887s.568.461.745.461a1.85,1.85,0,0,0,.781-.213,1.953,1.953,0,0,1,1.065-.532,20.385,20.385,0,0,1,4.685-.142c2.662.248,4.081,1.42,4.081,2.165,0,.639-.674,1.7-2.8,3.088a28.139,28.139,0,0,1-3.691,2.023.692.692,0,0,0-.284.035c.284-1.952.71-4.649.816-5.643.106-1.207-.5-1.313-.5-1.313-.816-.106-.887,1.42-.887,1.42s-.213,1.313-.39,4.614c0,.319-.035.674-.071,1.029h0a10.017,10.017,0,0,0-1.278.284c-.39.142-.568.319-.568.568s.248.461.674.461c.106,0,.532-.035,1.136-.106-.142,2.981-.319,6.175-.319,6.53a2.327,2.327,0,0,0,.177,1.136h0s.071.248.639.106a39.99,39.99,0,0,0,5.146-2.129c2.342-1.136,5.5-2.768,5.5-4.543C126.658,155.927,124.812,155.252,121.05,155.11Zm-.745,6.6a23.691,23.691,0,0,1-4.01,1.6c-.319.071-.319-.39-.319-.39.035-1.278.284-4.862.461-6.459,1.491-.142,3.478-.284,4.72-.284,2.094,0,4.081.39,4.081,1.6C125.2,158.979,122.434,160.647,120.3,161.712Z" transform="translate(-84.076 -147.293)"/>
        <path id="패스_4" data-name="패스 4" d="M188.152,156.417c-.426,0-1.065.319-1.952.426-.887.071-6.069.284-6.069.284a15.692,15.692,0,0,0,.994-1.987c.319-.852.816-2.839-.035-2.839s-1.136,3.3-1.881,4.827l-4.791-.035a13.8,13.8,0,0,0,.994-2.7c-.035-.568-.284-.532-.39-.532s-.568.035-1.207,1.065a15.24,15.24,0,0,0-1.065,2.094s-2.8-.106-2.981-.142-.674,0-.781.355.532.461,1.207.5,2.129.106,2.129.106-.745,2.129-.852,2.626a23.772,23.772,0,0,1-2.023,2.52,7.429,7.429,0,0,1-2.91,2.058c-.461,0-.532-.568-.532-.568a6.8,6.8,0,0,0,1.242-.71,2.568,2.568,0,0,0,1.278-1.987,1,1,0,0,0-.994-1.1,2.622,2.622,0,0,0-1.81,1.029,4.37,4.37,0,0,0-.816,2.307s-.958.213-1.1.248a.762.762,0,0,0-.284-.674c-.355-.319-1.136-.816-1.136-1.278s.532-1.029.745-1.278a1.748,1.748,0,0,0,.426-.852.374.374,0,0,0-.426-.426c-.355,0-2.271,2.058-2.626,2.378s-1.739,1.455-1.739,1.455-1.633-.887-1.633-1.6c0-.674.994-1.384,1.562-1.6s1.739-.568,1.739-.958-.355-.461-.568-.461a5.435,5.435,0,0,0-3.017,1.491,8.867,8.867,0,0,0-1.81,3.194s-.213.426-.177.142c.035-.319.106-1.349.106-1.491.036-.213.319-1.171-.071-1.278a2.352,2.352,0,0,0-1.562.106,4.761,4.761,0,0,0-2.236,3.478c0,1.349.994,1.242,1.029,1.242.071,0,.674,0,1.313-1.349.248-.5.213-.568.355-.568s.106.142.142.426.142,1.526.71,1.526.674-1.278.887-1.952.532-1.455.674-1.455.426.568.887.923.958.745.958.745-2.236,1.136-2.236,1.7,1.846.39,2.733-.106,1.029-.994.994-1.42c-.035-.319.39-.532.745-.852a12.439,12.439,0,0,1,1.1-.958c.071,0,.035.284.177.568a5.83,5.83,0,0,0,1.065,1.029c.248.177.284.213.284.284s-.106.142-.213.142-2.342.284-2.342.923,1.952.6,2.094.6,1.349-.177,1.349-1.065l1.171-.248a1.218,1.218,0,0,0,1.278,1.349,4.16,4.16,0,0,0,2.91-1.739,21.015,21.015,0,0,1,1.881-2.094s-.071.71-.071,1.136.035,2.626,1.562,2.626,2.946-2.165,3.727-3.159c.745-.994,1.278-1.7,1.633-2.271s.852-1.313.994-1.313c.106,0,.106.071.071.355s-.816,5.253-.887,5.749.071.71.426.71c.319,0,.461-.035.5-.6s1.029-7.524,1.029-7.524,2.52-.035,4.223-.071a32.686,32.686,0,0,0,4.152-.177.676.676,0,0,0,.5-.71C188.9,156.594,188.578,156.417,188.152,156.417Zm-21.294,5.466a.66.66,0,0,1,.71-.248c.355.248.035.71-.106.887s-1.029,1.065-1.242.887C166.006,163.267,166.5,162.273,166.858,161.882Zm-12.954.071s-1.278,2.875-1.668,2.875-.213-.994.177-1.775.958-1.278,1.313-1.313C154.152,161.669,153.9,161.953,153.9,161.953Zm18.845,3.194c-1.313-.319-.816-3.656-.6-4.188a21.953,21.953,0,0,1,1.881-3.052h4.9C177.008,161.421,173.778,165.431,172.749,165.148Z" transform="translate(-109.261 -150.516)"/>
      </g>
    </g>
    <g id="그룹_4" data-name="그룹 4" transform="translate(-1.864 -1.839)">
      <g id="그룹_3" data-name="그룹 3" transform="translate(0 0)">
        <circle id="타원_1" data-name="타원 1" cx="1.597" cy="1.597" r="1.597" transform="translate(0 19.464) rotate(-45)" fill="#e80a4d"/>
        <circle id="타원_2" data-name="타원 2" cx="1.597" cy="1.597" r="1.597" transform="translate(19.46 8.928) rotate(-45)" fill="#e80a4d"/>
        <path id="패스_5" data-name="패스 5" d="M89.442,37.787c-4.937-1.987-2.38-10.15-1.314-12.138,0,0-7.139,8.34-14.349,8.34-7.246,0-10.584-9.76-11.65-14.09-1.066,4.33-4.4,14.09-11.65,14.09s-14.349-8.34-14.349-8.34c1.066,1.987,3.623,10.15-1.314,12.138C29.95,39.775,18.3,35.374,18.3,35.374,30.518,45.7,30.944,55.639,30.944,55.639A243.109,243.109,0,0,1,62.093,53.4a243.109,243.109,0,0,1,31.149,2.236s.426-9.937,12.644-20.265C105.922,35.374,94.272,39.775,89.442,37.787Z" transform="translate(-11.144 -12.185)" fill="#e80a4d"/>
        <circle id="타원_3" data-name="타원 3" cx="1.597" cy="1.597" r="1.597" transform="translate(97.483 19.453) rotate(-45)" fill="#e80a4d"/>
        <circle id="타원_4" data-name="타원 4" cx="1.597" cy="1.597" r="1.597" transform="translate(77.991 8.936) rotate(-45)" fill="#e80a4d"/>
        <circle id="타원_5" data-name="타원 5" cx="1.597" cy="1.597" r="1.597" transform="translate(48.728 2.259) rotate(-45)" fill="#e80a4d"/>
      </g>
    </g>
  </g>
</svg>
