<svg width="30" height="30" viewBox="0 0 30 30" fill="none" xmlns="http://www.w3.org/2000/svg">
<path d="M14.375 15.625H8.125C7.94792 15.625 7.79948 15.565 7.67969 15.4451C7.5599 15.3251 7.5 15.1765 7.5 14.9992C7.5 14.8218 7.5599 14.6735 7.67969 14.5541C7.79948 14.4347 7.94792 14.375 8.125 14.375H14.375V8.125C14.375 7.94792 14.435 7.79948 14.5549 7.67969C14.6749 7.5599 14.8235 7.5 15.0008 7.5C15.1782 7.5 15.3265 7.5599 15.4459 7.67969C15.5653 7.79948 15.625 7.94792 15.625 8.125V14.375H21.875C22.0521 14.375 22.2005 14.435 22.3203 14.5549C22.4401 14.6749 22.5 14.8235 22.5 15.0008C22.5 15.1782 22.4401 15.3265 22.3203 15.4459C22.2005 15.5653 22.0521 15.625 21.875 15.625H15.625V21.875C15.625 22.0521 15.565 22.2005 15.4451 22.3203C15.3251 22.4401 15.1765 22.5 14.9992 22.5C14.8218 22.5 14.6735 22.4401 14.5541 22.3203C14.4347 22.2005 14.375 22.0521 14.375 21.875V15.625Z" fill="white" fill-opacity="0.8"/>
</svg>
