<svg width="24" height="24" viewBox="0 0 24 24" fill="none" xmlns="http://www.w3.org/2000/svg">
<g clip-path="url(#clip0_12_345)">
<path d="M17.0788 12.5001H5.5C5.35768 12.5001 5.23878 12.4523 5.14328 12.3568C5.04776 12.2613 5 12.1424 5 12.0001C5 11.8578 5.04776 11.7389 5.14328 11.6434C5.23878 11.5479 5.35768 11.5001 5.5 11.5001H17.0788L11.6404 6.06166C11.5429 5.96421 11.492 5.84946 11.4875 5.71741C11.483 5.58536 11.5359 5.46421 11.6462 5.35396C11.7564 5.24754 11.8744 5.19337 12 5.19146C12.1256 5.18952 12.2436 5.24369 12.3538 5.35396L18.4346 11.4347C18.5218 11.5219 18.583 11.611 18.6183 11.702C18.6535 11.793 18.6712 11.8924 18.6712 12.0001C18.6712 12.1078 18.6535 12.2072 18.6183 12.2982C18.583 12.3892 18.5218 12.4783 18.4346 12.5655L12.3538 18.6463C12.2603 18.7399 12.1465 18.7899 12.0125 18.7963C11.8785 18.8027 11.7564 18.7527 11.6462 18.6463C11.5359 18.536 11.4808 18.4171 11.4808 18.2895C11.4808 18.162 11.5359 18.0431 11.6462 17.9328L17.0788 12.5001Z" fill="#1D1D1D"/>
</g>
<defs>
<clipPath id="clip0_12_345">
<rect width="24" height="24" fill="white"/>
</clipPath>
</defs>
</svg>
