<svg width="24" height="24" viewBox="0 0 24 24" fill="none" xmlns="http://www.w3.org/2000/svg">
<path d="M12 10.4387L7.92689 14.5118C7.78844 14.6503 7.6144 14.7211 7.40479 14.7243C7.19519 14.7275 7.01795 14.6567 6.87309 14.5118C6.7282 14.3669 6.65576 14.1913 6.65576 13.9849C6.65576 13.7785 6.7282 13.6028 6.87309 13.458L11.3673 8.96376C11.4609 8.87017 11.5596 8.80415 11.6635 8.76568C11.7673 8.72723 11.8795 8.70801 12 8.70801C12.1205 8.70801 12.2327 8.72723 12.3365 8.76568C12.4404 8.80415 12.5391 8.87017 12.6327 8.96376L17.1269 13.458C17.2654 13.5964 17.3362 13.7705 17.3394 13.9801C17.3426 14.1897 17.2718 14.3669 17.1269 14.5118C16.982 14.6567 16.8064 14.7291 16.6 14.7291C16.3936 14.7291 16.218 14.6567 16.0731 14.5118L12 10.4387Z" fill="white"/>
</svg>
