<svg width="24" height="24" viewBox="0 0 24 24" fill="none" xmlns="http://www.w3.org/2000/svg">
<path d="M10.5885 12.5H15C15.1417 12.5 15.2604 12.452 15.3563 12.3561C15.4521 12.2601 15.5 12.1412 15.5 11.9993C15.5 11.8575 15.4521 11.7388 15.3563 11.6433C15.2604 11.5478 15.1417 11.5 15 11.5H10.5885L12.3538 9.73463C12.4474 9.64531 12.4942 9.53163 12.4942 9.3936C12.4942 9.25555 12.4474 9.13973 12.3538 9.04615C12.2603 8.95257 12.1445 8.90578 12.0064 8.90578C11.8684 8.90578 11.7547 8.95257 11.6654 9.04615L9.27692 11.4346C9.11537 11.5962 9.0346 11.7846 9.0346 12C9.0346 12.2154 9.11537 12.4038 9.27692 12.5654L11.6654 14.9538C11.759 15.0474 11.8737 15.091 12.0096 15.0846C12.1455 15.0782 12.2603 15.0282 12.3538 14.9346C12.4474 14.841 12.4942 14.7252 12.4942 14.5872C12.4942 14.4491 12.4474 14.3355 12.3538 14.2462L10.5885 12.5ZM12.0034 21C10.7588 21 9.58872 20.7638 8.4931 20.2915C7.39748 19.8192 6.44444 19.1782 5.63397 18.3685C4.82352 17.5588 4.18192 16.6066 3.70915 15.5121C3.23638 14.4175 3 13.2479 3 12.0034C3 10.7588 3.23616 9.58872 3.70848 8.4931C4.18081 7.39748 4.82183 6.44444 5.63153 5.63398C6.44123 4.82353 7.39337 4.18192 8.48795 3.70915C9.58255 3.23638 10.7521 3 11.9967 3C13.2412 3 14.4113 3.23616 15.5069 3.70847C16.6025 4.18081 17.5556 4.82182 18.366 5.63152C19.1765 6.44122 19.8181 7.39337 20.2908 8.48795C20.7636 9.58255 21 10.7521 21 11.9967C21 13.2412 20.7638 14.4113 20.2915 15.5069C19.8192 16.6025 19.1782 17.5556 18.3685 18.366C17.5588 19.1765 16.6066 19.8181 15.5121 20.2909C14.4175 20.7636 13.2479 21 12.0034 21ZM12 20C14.2333 20 16.125 19.225 17.675 17.675C19.225 16.125 20 14.2333 20 12C20 9.76667 19.225 7.875 17.675 6.325C16.125 4.775 14.2333 4 12 4C9.76667 4 7.875 4.775 6.325 6.325C4.775 7.875 4 9.76667 4 12C4 14.2333 4.775 16.125 6.325 17.675C7.875 19.225 9.76667 20 12 20Z" fill="white"/>
</svg>
