<svg width="24" height="24" viewBox="0 0 24 24" fill="none" xmlns="http://www.w3.org/2000/svg">
<path d="M10.3084 15.5C10.4502 15.5 10.5689 15.4521 10.6644 15.3563C10.7599 15.2604 10.8077 15.1417 10.8077 15V9C10.8077 8.85833 10.7597 8.73958 10.6637 8.64375C10.5678 8.54792 10.4489 8.5 10.307 8.5C10.1652 8.5 10.0465 8.54792 9.95095 8.64375C9.85543 8.73958 9.80768 8.85833 9.80768 9V15C9.80768 15.1417 9.85566 15.2604 9.95163 15.3563C10.0476 15.4521 10.1665 15.5 10.3084 15.5ZM13.693 15.5C13.8348 15.5 13.9535 15.4521 14.049 15.3563C14.1446 15.2604 14.1923 15.1417 14.1923 15V9C14.1923 8.85833 14.1443 8.73958 14.0484 8.64375C13.9524 8.54792 13.8335 8.5 13.6916 8.5C13.5498 8.5 13.4311 8.54792 13.3356 8.64375C13.2401 8.73958 13.1923 8.85833 13.1923 9V15C13.1923 15.1417 13.2403 15.2604 13.3363 15.3563C13.4322 15.4521 13.5511 15.5 13.693 15.5ZM12.0034 21C10.7588 21 9.58872 20.7638 8.4931 20.2915C7.39748 19.8192 6.44444 19.1782 5.63397 18.3685C4.82352 17.5588 4.18192 16.6066 3.70915 15.5121C3.23638 14.4175 3 13.2479 3 12.0034C3 10.7588 3.23616 9.58872 3.70848 8.4931C4.18081 7.39748 4.82183 6.44444 5.63153 5.63398C6.44123 4.82353 7.39337 4.18192 8.48795 3.70915C9.58255 3.23638 10.7521 3 11.9967 3C13.2412 3 14.4113 3.23616 15.5069 3.70847C16.6025 4.18081 17.5556 4.82182 18.366 5.63152C19.1765 6.44122 19.8181 7.39337 20.2908 8.48795C20.7636 9.58255 21 10.7521 21 11.9967C21 13.2412 20.7638 14.4113 20.2915 15.5069C19.8192 16.6025 19.1782 17.5556 18.3685 18.366C17.5588 19.1765 16.6066 19.8181 15.5121 20.2909C14.4175 20.7636 13.2479 21 12.0034 21ZM12 20C14.2333 20 16.125 19.225 17.675 17.675C19.225 16.125 20 14.2333 20 12C20 9.76667 19.225 7.875 17.675 6.325C16.125 4.775 14.2333 4 12 4C9.76667 4 7.875 4.775 6.325 6.325C4.775 7.875 4 9.76667 4 12C4 14.2333 4.775 16.125 6.325 17.675C7.875 19.225 9.76667 20 12 20Z" fill="white"/>
</svg>
