<svg width="118" height="47" viewBox="0 0 118 47" fill="none" xmlns="http://www.w3.org/2000/svg">
<g clip-path="url(#clip0_24_247)">
<path d="M105.615 32.2263C105.218 32.2263 104.811 32.1596 104.414 32.0151C102.541 31.3481 101.56 29.2694 102.232 27.3907L108.502 9.5823L89.6489 16.3077C87.7758 16.9747 85.7263 15.9853 85.0651 14.0955C84.404 12.2058 85.3847 10.1381 87.2579 9.47114L113.207 0.211203C114.518 -0.255685 115.973 0.0778064 116.953 1.06716C117.934 2.05652 118.265 3.52388 117.802 4.84673L109.02 29.8252C108.502 31.3148 107.114 32.2375 105.637 32.2375L105.615 32.2263Z" fill="#ED2123"/>
<path d="M92.756 23.1999H89.6377V33.9494H92.756V23.1999Z" fill="#1D1D1D"/>
<path d="M92.756 36.395H89.6377V42.5535H92.756V36.395Z" fill="#1D1D1D"/>
<path d="M4.13204 43.2983C4.13204 43.2983 4.13204 43.3427 4.13204 43.4094V43.6651H4.14306C4.20917 44.5433 4.56177 46.6109 6.51209 46.6109H18.9964V44.8101H18.9743V38.8406H18.9964V37.0397H4.13204V43.3205V43.2983ZM7.25035 38.8295H15.856V44.799H7.25035V38.8295ZM19.0074 23.311H3.21748V25.1119H15.8891V32.6599H0V34.4608H23.6904V32.6599H19.0074V23.2999V23.311ZM92.3483 36.395H77.1975V38.1959H92.3483V36.395ZM66.0465 38.3848H69.1648V23.1888H66.0465V29.4362H61.3195V31.237H66.0465V38.3737V38.3848ZM92.4475 27.5908H86.1998V29.3917H92.4475V27.5908ZM38.5987 38.6294C41.7611 37.9735 44.1302 35.3501 44.1302 32.2152C44.1302 30.3032 43.2377 28.5802 41.8272 27.3796H46.4V25.5788H38.5987V23.0109H35.4804V25.5788H27.6791V27.3796H32.2519C30.8415 28.5802 29.949 30.3032 29.949 32.2152C29.949 35.3501 32.3181 37.9624 35.4804 38.6294V41.8976H24.9906V43.6985H49.0886V41.8976H38.5987V38.6294ZM33.0894 32.2152C33.0894 30.1143 34.8524 28.4134 37.0341 28.4134C39.2158 28.4134 40.9788 30.1143 40.9788 32.2152C40.9788 34.3162 39.2158 36.017 37.0341 36.017C34.8524 36.017 33.0894 34.3162 33.0894 32.2152ZM57.1323 45.1769L57.1103 37.4622H53.992L54.014 43.6762C54.014 43.6762 54.014 43.7207 54.014 43.7763V44.0431H54.025C54.0911 44.9101 54.4548 46.9778 56.4051 46.9667L69.6276 46.9222V45.1213L57.1323 45.1658V45.1769ZM92.8552 45.1325L80.3599 45.1769V42.5424H92.5466V40.7415H77.2306V40.8082H77.2195L77.2416 44.0542H77.2526C77.3187 44.9324 77.6823 46.9889 79.6326 46.9889L92.8552 46.9444V45.1436V45.1325ZM60.7685 23.878H50.9398V25.6788H57.6502C57.3747 30.6367 50.0362 34.8498 50.0362 34.8498L50.8626 36.0504C61.1432 31.6038 60.7575 23.8669 60.7575 23.8669L60.7685 23.878ZM79.0597 26.3347C80.0734 26.9794 83.2799 30.5923 83.0044 34.0272H85.6709C85.6709 34.0272 84.0181 26.5237 79.5225 23.8335C79.5225 23.8335 77.6823 22.9998 76.9551 24.1114C76.2278 25.2231 73.5613 33.9272 73.5613 33.9272H76.0405C76.0405 33.9272 78.057 25.6788 79.0707 26.3347H79.0597Z" fill="#1D1D1D"/>
</g>
<defs>
<clipPath id="clip0_24_247">
<rect width="118" height="47" fill="white"/>
</clipPath>
</defs>
</svg>
