<svg width="153" height="126" viewBox="0 0 153 126" fill="none" xmlns="http://www.w3.org/2000/svg">
<g clip-path="url(#clip0_26_30)">
<path d="M115.198 0L102.162 13.0408C101.524 12.9496 100.855 12.8888 100.217 12.828C95.5376 10.9433 87.2419 9.60579 77.4876 17.1141L77.2749 17.3269L74.0842 20.5491C62.0508 12.372 52.4788 17.4181 49.8048 19.1812L37.8018 7.17394L0 44.9891L14.3124 59.337C14.434 65.751 16.713 72.3474 21.1496 79.0046C22.9728 81.7404 25.0999 84.2635 27.4093 86.6041C30.3569 89.6135 33.3652 92.5621 36.3432 95.5411C33.1221 100.253 34.4896 104.144 37.8626 107.64C41.3571 111.257 44.5478 111.683 49.2882 110.315C49.3186 110.315 49.3793 110.315 49.4097 110.345C52.8131 115.421 55.943 117.884 59.316 118.157C60.7138 119.525 62.1116 120.893 63.5094 122.261C67.6725 126.304 74.0538 127.186 79.0677 124.298C81.2556 123.051 81.6203 122.018 82.7142 120.255C91.2226 127.398 96.9051 127.52 103.59 117.519C103.59 117.489 103.651 117.458 103.712 117.489C108.452 118.856 111.643 118.431 115.137 114.814C118.693 111.105 120.03 106.971 116.079 101.925C116.079 101.894 115.016 100.557 115.077 100.557C117.903 100.648 120.151 98.8545 121.397 97.2434C124.679 92.9877 124.497 88.5192 120.941 84.1115C122.491 82.5612 124.041 81.0109 125.591 79.4606C127.9 77.1199 130.027 74.5969 131.881 71.861C136.317 65.2039 138.596 58.6075 138.718 52.1935L153.03 37.8456L115.198 0ZM29.7492 81.1021C25.4038 76.5119 22.1523 71.4355 20.7241 65.6902C20.3899 64.4135 20.1772 63.1064 20.0556 61.7385C19.9644 60.6441 19.9341 59.5194 19.9644 58.3643L5.37855 43.8036L36.6167 12.5544L46.6445 22.5858L47.313 23.2545V23.3457L52.1142 23.7409L52.4485 22.9505C54.3629 21.6434 62.2636 17.2661 72.8383 25.3216L86.8165 39.3655C87.5154 40.0647 87.9104 41.007 87.9104 42.0101C87.9104 43.0133 87.5154 43.9556 86.8165 44.6548L85.9049 45.5667C84.4463 47.0258 82.0457 47.0258 80.5871 45.5667L66.2747 31.1884L62.7801 33.6203L66.6697 38.1496L68.341 39.8215C66.7001 41.463 65.0592 43.1045 63.4183 44.746C63.0232 45.1411 62.7801 45.5971 62.6586 46.0531C62.5674 46.1443 62.5067 46.2355 62.4155 46.2963C52.8131 55.9324 43.15 65.5382 33.5476 75.2048C31.6332 77.1503 30.3569 79.0958 29.7492 81.0413V81.1021ZM76.1505 120.103C75.0566 121.167 73.9019 121.805 72.261 121.683C69.9819 121.501 68.4018 119.768 67.2775 118.674C66.6089 118.005 65.9404 117.337 65.2415 116.668C66.8216 115.817 68.493 114.631 70.3162 113.111C71.4405 114.874 71.8052 115.908 73.9627 117.154C74.9351 117.701 75.9682 118.127 77.0014 118.4C76.8191 119.1 76.5456 119.738 76.1202 120.103H76.1505ZM96.7835 118.157C94.626 120.68 92.1646 120.893 89.0348 118.005C88.5486 117.549 88.0624 117.093 87.5762 116.637C88.2751 116.181 88.9132 115.665 89.521 115.087C91.3138 113.354 93.0763 111.591 94.8691 109.859C95.0514 110.041 95.2338 110.223 95.4465 110.436C98.394 113.385 98.7891 115.786 96.7531 118.188L96.7835 118.157ZM111.734 110.345C109.577 113.294 106.264 113.385 103.286 110.406C101.828 108.947 100.339 107.457 98.8802 105.998C101.311 103.627 103.742 101.256 106.173 98.8849C107.541 100.253 108.908 101.621 110.275 102.989C112.919 105.633 113.375 108.156 111.734 110.345ZM117.781 92.8357C116.687 95.6019 113.405 96.909 110.792 95.4803C110.549 95.3283 110.306 95.1764 110.063 95.0244C112.403 92.7141 114.742 90.3431 117.052 88.0328C118.055 89.3703 118.571 90.8598 117.781 92.8661V92.8357ZM133.127 51.1904C133.157 52.3455 133.127 53.4702 133.036 54.5645C132.914 55.9021 132.671 57.2396 132.367 58.5163C130.939 64.2919 127.657 69.3988 123.281 73.9889C117.356 80.2509 111.126 86.2089 105.049 92.3189C98.6371 98.7025 92.2862 105.147 85.8441 111.5C84.7198 112.594 83.1396 114.327 80.8606 114.51C79.2197 114.631 78.0649 113.993 76.971 112.929C75.9682 111.986 75.6644 109.615 76.0594 108.126C76.4544 106.515 77.8826 105.056 79.1285 103.779C82.0457 100.8 85.0236 97.8514 87.9712 94.9028C89.3994 93.4741 90.8276 92.015 92.2558 90.5559C93.7448 89.0056 98.1509 85.7226 95.6896 83.4123C93.4409 81.2844 90.1895 85.3882 88.822 86.7561C87.3938 88.1848 85.9656 89.6439 84.507 91.0726C77.7307 97.669 71.0759 104.387 64.1172 110.831C60.9873 113.75 58.5259 113.506 56.3684 110.983C54.3325 108.582 54.7275 106.211 57.6751 103.232C65.3327 95.5411 73.0207 87.8808 80.6783 80.1901C81.7418 79.1262 82.6838 78.3966 82.8661 76.7551C83.0181 75.5392 82.5623 74.4753 81.3164 74.2625C79.1893 73.9585 78.2777 74.7489 76.9406 76.1168C67.9156 85.145 58.8906 94.1732 49.8655 103.201C46.8876 106.15 43.5754 106.089 41.4179 103.141C39.8074 100.922 40.2632 98.429 42.8765 95.7843C52.023 86.5737 61.2 77.3935 70.4073 68.2437C71.8963 66.7542 73.0814 65.0823 71.2582 63.3496C69.4957 61.7081 67.9764 63.1672 66.6393 64.5047C59.5895 71.5875 52.5092 78.6702 45.429 85.7226C44.487 86.6649 43.4842 87.6072 42.3295 88.2456C39.7162 89.6743 36.4647 88.3672 35.3404 85.6314C34.2161 82.8043 35.6747 81.0109 37.4675 79.2174C49.197 67.5141 60.9265 55.8109 72.5648 44.0164L77.366 48.8497C79.007 50.4912 81.1645 51.3119 83.3219 51.3119C85.4794 51.3119 87.6066 50.4912 89.2475 48.8801L90.1591 47.9682C91.7392 46.3875 92.6205 44.29 92.6205 42.0405C92.6205 39.9431 91.8304 37.9672 90.4326 36.4169L79.7666 25.656L77.6699 23.5585L80.5263 20.7011C84.9325 17.3573 88.8524 16.1718 92.1039 15.9894C98.0294 15.4422 103.286 18.5428 103.286 18.5428L106.447 15.3814L116.474 5.35006L147.713 36.5993L133.188 51.1296L133.127 51.1904Z" fill="white"/>
</g>
<defs>
<clipPath id="clip0_26_30">
<rect width="153" height="126" fill="white"/>
</clipPath>
</defs>
</svg>
