<svg width="150" height="233" viewBox="0 0 150 233" fill="none" xmlns="http://www.w3.org/2000/svg">
<g clip-path="url(#clip0_26_25)">
<path d="M144.69 213.796C144.69 212.817 145.296 189.694 130.762 176.361C129.318 175.055 127.175 174.962 125.638 176.128C124.985 176.594 109.706 187.969 95.2184 176.128C93.7277 174.916 91.5383 174.916 90.0476 176.221C89.8612 176.407 87.9513 178.086 85.6221 181.209C83.3861 177.759 80.7308 174.496 77.5165 171.559C76.0724 170.254 73.9296 170.16 72.3923 171.326C71.414 172.072 48.4948 189.134 26.7401 171.326C25.2029 170.114 23.06 170.114 21.5693 171.419C20.7308 172.165 1.25876 189.507 0.746338 223.632C0.746338 224.704 1.16559 225.73 1.91093 226.522C2.65628 227.268 3.68112 227.735 4.75255 227.735H92.8892C95.0321 227.735 96.8022 226.01 96.8954 223.819C96.8954 223.492 96.942 221.208 96.7091 217.665H140.638C142.781 217.665 144.551 215.94 144.644 213.796H144.69ZM8.89851 219.669C10.296 198.272 20.0786 184.845 24.5973 179.764C45.4202 194.309 66.6625 184.193 74.3022 179.624C86.1345 192.351 88.4171 211.511 88.8364 219.669H8.9451H8.89851ZM95.824 209.646C94.8923 203.586 93.1221 196.267 89.9078 189.134C91.0724 187.223 92.237 185.684 93.1221 184.566C105.979 192.91 119.721 189.041 127.501 184.472C134.349 192.444 136.119 203.773 136.538 209.646H95.824Z" fill="white"/>
<path d="M103.231 72.0747H71.9729V81.9113C71.9729 86.8529 75.9791 90.8154 80.8704 90.8154H108.634L116.554 99.9061C117.113 100.559 117.951 100.932 118.836 100.932C119.209 100.932 119.628 100.838 120.001 100.699C121.212 100.186 121.957 98.9737 121.818 97.6684L121.259 90.7688H135.513C140.405 90.7688 144.411 86.7596 144.411 81.8647V46.621C144.411 41.726 140.405 37.7168 135.513 37.7168H116.041V59.1148C116.041 66.2474 110.265 72.0281 103.138 72.0281L103.231 72.0747ZM116.833 59.3478V43.7772H135.56C137.144 43.7772 138.448 45.0825 138.448 46.6676V81.9113C138.448 83.4963 137.144 84.8016 135.56 84.8016H118.044C117.206 84.8016 116.414 85.1746 115.855 85.7806C115.296 86.3867 115.016 87.2258 115.063 88.0649L115.156 89.0905L112.361 85.8272C111.802 85.1746 110.964 84.8016 110.078 84.8016H80.917C79.3331 84.8016 78.0288 83.4963 78.0288 81.9113V72.5409H103.697C110.964 72.5409 116.88 66.6204 116.88 59.3478H116.833Z" fill="white"/>
<path d="M-5.26318 59.1613C-5.26318 66.294 0.513214 72.0747 7.64054 72.0747H42.2989L41.3207 84.5219C41.2275 86.0137 42.066 87.4122 43.4169 87.9717C43.8362 88.1581 44.302 88.2514 44.7679 88.2514C45.7461 88.2514 46.7244 87.8318 47.3766 87.0393L60.3735 72.0747H103.184C110.311 72.0747 116.088 66.294 116.088 59.1613V7.64774C116.088 0.515087 110.311 -5.26562 103.184 -5.26562H7.64054C0.513214 -5.26562 -5.26318 0.515087 -5.26318 7.64774V59.1613ZM1.67781 7.64774C1.67781 4.33782 4.37967 1.68055 7.64054 1.68055H103.231C106.538 1.68055 109.193 4.38443 109.193 7.64774V59.1613C109.193 62.4713 106.491 65.1285 103.231 65.1285H58.8362C57.8579 65.1285 56.8797 65.5481 56.2275 66.3406L49.0536 74.5921L49.5194 68.858C49.6126 67.879 49.2865 66.9467 48.6343 66.2474C47.9822 65.5481 47.0505 65.1285 46.0722 65.1285H7.64054C4.33309 65.1285 1.67781 62.4247 1.67781 59.1613V7.64774Z" fill="white"/>
<path d="M109.892 176.081C117.252 176.081 124.147 173.19 129.364 167.969C134.582 162.748 137.423 155.802 137.423 148.482C137.423 133.285 125.032 120.884 109.846 120.884C102.485 120.884 95.591 123.775 90.3736 128.996C88.7897 130.581 87.4854 132.306 86.3208 134.171C86.4606 132.912 86.5071 131.7 86.5071 130.441C86.5071 109.649 69.5972 92.7266 48.7742 92.7266C38.7121 92.7266 29.2556 96.6425 22.1283 103.822C15.0009 110.954 11.0879 120.418 11.0879 130.488C11.0879 151.28 27.9978 168.202 48.8208 168.202C58.8829 168.202 68.3394 164.286 75.4668 157.154C78.2618 154.356 80.591 151.14 82.3612 147.69C82.3612 147.97 82.3612 148.249 82.3612 148.529C82.3612 163.727 94.7525 176.081 109.939 176.081H109.892ZM96.0568 134.683C99.737 131 104.675 128.949 109.892 128.949C120.653 128.949 129.457 137.714 129.457 148.529C129.457 153.75 127.408 158.645 123.728 162.375C120.048 166.058 115.11 168.109 109.939 168.109C99.1779 168.109 90.3736 159.345 90.3736 148.529C90.3736 143.308 92.4233 138.413 96.1034 134.683H96.0568ZM69.8301 151.466C64.2401 157.107 56.7866 160.184 48.8674 160.184C32.5165 160.184 19.1469 146.851 19.1469 130.488C19.1469 122.562 22.2214 115.104 27.8581 109.463C33.4947 103.822 40.9481 100.745 48.8674 100.745C65.2183 100.745 78.5879 114.078 78.5879 130.488C78.5879 138.413 75.5133 145.872 69.8767 151.513L69.8301 151.466Z" fill="white"/>
</g>
<defs>
<clipPath id="clip0_26_25">
<rect width="150" height="233" fill="white"/>
</clipPath>
</defs>
</svg>
