<svg width="170" height="137" viewBox="0 0 170 137" fill="none" xmlns="http://www.w3.org/2000/svg">
<g clip-path="url(#clip0_26_15)">
<path d="M94.1961 0H2.71121C1.24569 0 0 1.34921 0 2.95369V114.027C0 115.631 1.24569 116.981 2.71121 116.981H70.3082V133.9C70.3082 135.943 72.653 137.802 74.375 136.453C76.2802 134.921 78.1853 133.353 80.0905 131.822C81.4828 130.692 82.875 129.561 84.3039 128.394C84.6703 128.102 85.1832 127.774 85.6228 127.483C85.8793 127.665 86.1724 127.847 86.3556 128.066C87.5647 129.306 89.0668 130.29 90.4224 131.384C92.5108 133.062 94.5625 134.776 96.6509 136.453C97.8233 137.401 98.959 137.073 99.6918 136.198C100.278 135.724 100.718 134.994 100.718 133.937V117.017H167.325C168.095 117.017 168.718 116.689 169.157 116.215C169.157 116.215 169.231 116.142 169.267 116.105C169.267 116.105 169.267 116.105 169.304 116.032C169.744 115.558 170.037 114.902 170.037 114.027V2.95369C170.037 1.34921 168.791 0 167.325 0H94.2328H94.1961ZM70.2716 111.073H5.38578V5.87091H70.2716V111.073ZM95.2586 128.03C92.4741 125.732 89.653 123.471 86.8685 121.174C86.1724 120.627 84.8168 120.627 84.1573 121.174C81.3362 123.471 78.5151 125.769 75.694 128.066V5.87091H95.2953V128.03H95.2586ZM100.681 5.87091H164.614V111.073H100.681V5.87091Z" fill="white"/>
<path d="M17.6594 33.5115H55.7994C58.1076 33.5115 58.1076 29.5732 55.7994 29.5732H17.6594C15.3512 29.5732 15.3512 33.5115 17.6594 33.5115Z" fill="white"/>
<path d="M17.6594 49.9939H55.7994C58.1076 49.9939 58.1076 46.0557 55.7994 46.0557H17.6594C15.3512 46.0557 15.3512 49.9939 17.6594 49.9939Z" fill="white"/>
<path d="M17.6594 66.476H55.7994C58.1076 66.476 58.1076 62.5742 55.7994 62.5742H17.6594C15.3512 62.5742 15.3512 66.476 17.6594 66.476Z" fill="white"/>
<path d="M17.6594 82.9584H55.7994C58.1076 82.9584 58.1076 79.0566 55.7994 79.0566H17.6594C15.3512 79.0566 15.3512 82.9584 17.6594 82.9584Z" fill="white"/>
<path d="M152.524 46.0557H114.384C112.076 46.0557 112.076 49.9939 114.384 49.9939H152.524C154.832 49.9939 154.832 46.0557 152.524 46.0557Z" fill="white"/>
<path d="M152.524 62.5381H114.384C112.076 62.5381 112.076 66.4399 114.384 66.4399H152.524C154.832 66.4399 154.832 62.5381 152.524 62.5381Z" fill="white"/>
<path d="M152.524 79.02H114.384C112.076 79.02 112.076 82.9218 114.384 82.9218H152.524C154.832 82.9218 154.832 79.02 152.524 79.02Z" fill="white"/>
</g>
<defs>
<clipPath id="clip0_26_15">
<rect width="170" height="137" fill="white"/>
</clipPath>
</defs>
</svg>
