<svg width="24" height="24" viewBox="0 0 24 24" fill="none" xmlns="http://www.w3.org/2000/svg">
<path d="M12.0001 9.33825C12.1206 9.33825 12.2328 9.35748 12.3366 9.39595C12.4405 9.43442 12.5392 9.50044 12.6328 9.59402L17.127 14.0883C17.2655 14.2267 17.3363 14.4007 17.3395 14.6104C17.3427 14.82 17.2719 14.9972 17.127 15.1421C16.9821 15.2869 16.8065 15.3594 16.6001 15.3594C16.3937 15.3594 16.2181 15.2869 16.0732 15.1421L12.0001 11.069L7.927 15.1421C7.78854 15.2805 7.61451 15.3514 7.4049 15.3546C7.1953 15.3578 7.01806 15.2869 6.8732 15.1421C6.72831 14.9972 6.65587 14.8216 6.65587 14.6151C6.65587 14.4087 6.72831 14.2331 6.8732 14.0882L11.3674 9.59402C11.461 9.50044 11.5597 9.43442 11.6636 9.39595C11.7674 9.35748 11.8796 9.33825 12.0001 9.33825Z" fill="#3D3D3D"/>
</svg>
