<svg width="190" height="190" viewBox="0 0 190 190" fill="none" xmlns="http://www.w3.org/2000/svg">
<path d="M89.9111 190H99.0222C150.089 187.865 190 146.226 190 95.0222C190 43.8188 150.089 2.17982 99.0667 0H90.0444C90.0444 0 90 0 89.9556 0C39.4667 2.71365 0 44.3526 0 95.0222C0 145.692 39.4667 187.331 89.9111 190ZM32.5333 156.502C38.5778 152.142 45.0667 148.361 51.9556 145.336C58.4889 158.993 67.5556 171.093 79.0222 181.281C61.4667 178.033 45.1556 169.358 32.5333 156.502ZM91.3333 181.859C77.4222 171.405 66.2222 157.881 58.8 142.533C69.2 138.752 80.1333 136.572 91.3333 136.083V181.859ZM91.3333 128.743C79.1111 129.277 67.2 131.634 55.8222 135.816C51.5111 125.006 48.9333 113.617 48.2222 101.829H91.2889V128.743H91.3333ZM91.3333 94.4439H48.0444C48.0889 82.3882 50.0889 70.5549 53.9556 59.2999C65.9111 64.0155 78.4444 66.6846 91.3333 67.2184V94.4439ZM109.733 181.503C121.689 170.871 131.067 158.281 137.689 144.001C145.067 147.026 152.089 150.808 158.578 155.345C145.467 169.181 128.311 178.345 109.689 181.503H109.733ZM163.467 149.785C156.356 144.758 148.667 140.531 140.533 137.195C144.889 125.94 147.422 114.018 148.133 101.74H182.444C181.111 119.356 174.578 135.905 163.511 149.74L163.467 149.785ZM166.222 43.8633C176.889 58.6771 182.578 76.1157 182.711 94.3994H148.356C148.311 81.8989 146.267 69.5762 142.356 57.8319C150.8 54.184 158.844 49.4685 166.222 43.9078V43.8633ZM161.689 38.0801C154.889 43.196 147.556 47.5111 139.822 50.8921C133.244 34.7881 122.933 20.2412 109.778 8.49684C130 11.9223 148.267 22.2875 161.733 38.0356L161.689 38.0801ZM98.7111 8.9417C114.044 20.7305 125.822 36.1227 132.978 53.6502C121.956 57.6095 110.444 59.7003 98.7111 59.9672V8.9417ZM98.7111 67.3074C111.289 67.0405 123.644 64.7717 135.511 60.5455C139.111 71.4446 140.978 82.8331 141.022 94.4439H98.7111V67.3519V67.3074ZM98.7111 101.784H140.756C140.089 113.128 137.689 124.205 133.644 134.659C122.4 130.923 110.667 128.876 98.7111 128.654V101.784ZM98.7111 135.994C109.689 136.216 120.444 138.04 130.756 141.466C123.511 156.858 112.489 170.471 98.7111 181.103V135.994ZM91.3778 8.14095V59.8338C79.4222 59.2999 67.7333 56.7642 56.6222 52.4046C64 35.0105 75.9556 19.7518 91.3778 8.14095ZM79.0667 8.71927C66.4445 20.0632 56.4 34.0318 49.8667 49.4685C42.6667 46.0431 35.8222 41.7724 29.5111 36.8345C42.5333 22.1541 59.9556 12.2782 79.0667 8.76376V8.71927ZM24.8444 42.4842C31.7778 47.956 39.2889 52.5825 47.2 56.3194C42.9333 68.5085 40.7556 81.3205 40.7111 94.4439H7.33333C7.42222 75.5373 13.4667 57.6539 24.8 42.4842H24.8444ZM7.64444 101.784H40.9333C41.6444 114.507 44.4 126.874 49.0667 138.53C41.4667 141.911 34.2667 146.092 27.6444 150.941C15.9556 136.884 9.06667 119.934 7.68889 101.784H7.64444Z" fill="white"/>
</svg>
