<svg width="9" height="9" viewBox="0 0 9 9" fill="none" xmlns="http://www.w3.org/2000/svg">
<path d="M4.5 9C3.885 9 3.30375 8.88187 2.75625 8.64562C2.20875 8.40937 1.73062 8.08687 1.32187 7.67812C0.913125 7.26937 0.590625 6.79125 0.354375 6.24375C0.118125 5.69625 0 5.115 0 4.5C0 3.8775 0.118125 3.29437 0.354375 2.75062C0.590625 2.20687 0.913125 1.73062 1.32187 1.32187C1.73062 0.913125 2.20875 0.590625 2.75625 0.354375C3.30375 0.118125 3.885 0 4.5 0C5.1225 0 5.70562 0.118125 6.24937 0.354375C6.79312 0.590625 7.26937 0.913125 7.67812 1.32187C8.08687 1.73062 8.40937 2.20687 8.64562 2.75062C8.88187 3.29437 9 3.8775 9 4.5C9 5.115 8.88187 5.69625 8.64562 6.24375C8.40937 6.79125 8.08687 7.26937 7.67812 7.67812C7.26937 8.08687 6.79312 8.40937 6.24937 8.64562C5.70562 8.88187 5.1225 9 4.5 9ZM4.5 8.0775C4.695 7.8075 4.86375 7.52625 5.00625 7.23375C5.14875 6.94125 5.265 6.63 5.355 6.3H3.645C3.735 6.63 3.85125 6.94125 3.99375 7.23375C4.13625 7.52625 4.305 7.8075 4.5 8.0775ZM3.33 7.8975C3.195 7.65 3.07688 7.39312 2.97563 7.12687C2.87438 6.86062 2.79 6.585 2.7225 6.3H1.395C1.6125 6.675 1.88437 7.00125 2.21062 7.27875C2.53687 7.55625 2.91 7.7625 3.33 7.8975ZM5.67 7.8975C6.09 7.7625 6.46313 7.55625 6.78938 7.27875C7.11563 7.00125 7.3875 6.675 7.605 6.3H6.2775C6.21 6.585 6.12562 6.86062 6.02437 7.12687C5.92312 7.39312 5.805 7.65 5.67 7.8975ZM1.0125 5.4H2.5425C2.52 5.25 2.50312 5.10187 2.49187 4.95562C2.48062 4.80937 2.475 4.6575 2.475 4.5C2.475 4.3425 2.48062 4.19062 2.49187 4.04437C2.50312 3.89812 2.52 3.75 2.5425 3.6H1.0125C0.975 3.75 0.946875 3.89812 0.928125 4.04437C0.909375 4.19062 0.9 4.3425 0.9 4.5C0.9 4.6575 0.909375 4.80937 0.928125 4.95562C0.946875 5.10187 0.975 5.25 1.0125 5.4ZM3.4425 5.4H5.5575C5.58 5.25 5.59688 5.10187 5.60813 4.95562C5.61938 4.80937 5.625 4.6575 5.625 4.5C5.625 4.3425 5.61938 4.19062 5.60813 4.04437C5.59688 3.89812 5.58 3.75 5.5575 3.6H3.4425C3.42 3.75 3.40312 3.89812 3.39187 4.04437C3.38062 4.19062 3.375 4.3425 3.375 4.5C3.375 4.6575 3.38062 4.80937 3.39187 4.95562C3.40312 5.10187 3.42 5.25 3.4425 5.4ZM6.4575 5.4H7.9875C8.025 5.25 8.05312 5.10187 8.07187 4.95562C8.09062 4.80937 8.1 4.6575 8.1 4.5C8.1 4.3425 8.09062 4.19062 8.07187 4.04437C8.05312 3.89812 8.025 3.75 7.9875 3.6H6.4575C6.48 3.75 6.49688 3.89812 6.50813 4.04437C6.51938 4.19062 6.525 4.3425 6.525 4.5C6.525 4.6575 6.51938 4.80937 6.50813 4.95562C6.49688 5.10187 6.48 5.25 6.4575 5.4ZM6.2775 2.7H7.605C7.3875 2.325 7.11563 1.99875 6.78938 1.72125C6.46313 1.44375 6.09 1.2375 5.67 1.1025C5.805 1.35 5.92312 1.60687 6.02437 1.87312C6.12562 2.13937 6.21 2.415 6.2775 2.7ZM3.645 2.7H5.355C5.265 2.37 5.14875 2.05875 5.00625 1.76625C4.86375 1.47375 4.695 1.1925 4.5 0.9225C4.305 1.1925 4.13625 1.47375 3.99375 1.76625C3.85125 2.05875 3.735 2.37 3.645 2.7ZM1.395 2.7H2.7225C2.79 2.415 2.87438 2.13937 2.97563 1.87312C3.07688 1.60687 3.195 1.35 3.33 1.1025C2.91 1.2375 2.53687 1.44375 2.21062 1.72125C1.88437 1.99875 1.6125 2.325 1.395 2.7Z" fill="#1D1D1D"/>
</svg>
