<svg width="9" height="9" viewBox="0 0 9 9" fill="none" xmlns="http://www.w3.org/2000/svg">
<path d="M4.5 4.5C3.88125 4.5 3.35156 4.27969 2.91094 3.83906C2.47031 3.39844 2.25 2.86875 2.25 2.25C2.25 1.63125 2.47031 1.10156 2.91094 0.660938C3.35156 0.220313 3.88125 0 4.5 0C5.11875 0 5.64844 0.220313 6.08906 0.660938C6.52969 1.10156 6.75 1.63125 6.75 2.25C6.75 2.86875 6.52969 3.39844 6.08906 3.83906C5.64844 4.27969 5.11875 4.5 4.5 4.5ZM0 7.875V7.425C0 7.10625 0.0820312 6.81328 0.246094 6.54609C0.410156 6.27891 0.628125 6.075 0.9 5.93438C1.48125 5.64375 2.07187 5.42578 2.67188 5.28047C3.27188 5.13516 3.88125 5.0625 4.5 5.0625C5.11875 5.0625 5.72813 5.13516 6.32812 5.28047C6.92812 5.42578 7.51875 5.64375 8.1 5.93438C8.37188 6.075 8.58984 6.27891 8.75391 6.54609C8.91797 6.81328 9 7.10625 9 7.425V7.875C9 8.18437 8.88984 8.44922 8.66953 8.66953C8.44922 8.88984 8.18437 9 7.875 9H1.125C0.815625 9 0.550781 8.88984 0.330469 8.66953C0.110156 8.44922 0 8.18437 0 7.875ZM1.125 7.875H7.875V7.425C7.875 7.32188 7.84922 7.22813 7.79766 7.14375C7.74609 7.05937 7.67812 6.99375 7.59375 6.94688C7.0875 6.69375 6.57656 6.50391 6.06094 6.37734C5.54531 6.25078 5.025 6.1875 4.5 6.1875C3.975 6.1875 3.45469 6.25078 2.93906 6.37734C2.42344 6.50391 1.9125 6.69375 1.40625 6.94688C1.32187 6.99375 1.25391 7.05937 1.20234 7.14375C1.15078 7.22813 1.125 7.32188 1.125 7.425V7.875ZM4.5 3.375C4.80937 3.375 5.07422 3.26484 5.29453 3.04453C5.51484 2.82422 5.625 2.55938 5.625 2.25C5.625 1.94062 5.51484 1.67578 5.29453 1.45547C5.07422 1.23516 4.80937 1.125 4.5 1.125C4.19063 1.125 3.92578 1.23516 3.70547 1.45547C3.48516 1.67578 3.375 1.94062 3.375 2.25C3.375 2.55938 3.48516 2.82422 3.70547 3.04453C3.92578 3.26484 4.19063 3.375 4.5 3.375Z" fill="white"/>
</svg>
