<svg width="152" height="50" viewBox="0 0 152 50" fill="none" xmlns="http://www.w3.org/2000/svg">
<g clip-path="url(#clip0_6_71)">
<path d="M44.4641 38.0186C43.4254 37.6506 43.2287 37.4053 43.2287 36.9832C43.2287 36.5611 43.5275 36.2256 44.2381 36.2256C44.7593 36.2256 45.1055 36.3951 45.4845 36.7054L45.8562 36.2544C45.4189 35.9081 44.9743 35.7061 44.2746 35.7061C43.3052 35.7061 42.6492 36.1967 42.6492 37.0193C42.6492 37.7625 43.0282 38.1233 44.1507 38.5201C45.1018 38.8592 45.3897 39.1298 45.3897 39.606C45.3897 40.1508 44.9597 40.49 44.2709 40.49C43.7352 40.49 43.2833 40.2446 42.8897 39.873L42.5071 40.2987C42.9152 40.71 43.5457 41.0131 44.2527 41.0131C45.3351 41.0131 45.9728 40.3853 45.9728 39.5808C45.9728 38.7763 45.6193 38.4335 44.4677 38.0222L44.4641 38.0186Z" fill="white"/>
<path d="M48.327 36.994C47.8204 36.994 47.3613 37.1167 47.0187 37.3007L47.2301 37.7481C47.5471 37.5641 47.8824 37.4522 48.2905 37.4522C48.8591 37.4522 49.136 37.73 49.136 38.3073V38.7618C48.9064 38.6356 48.5529 38.5382 48.163 38.5382C47.3941 38.5382 46.6725 38.9061 46.6725 39.772C46.6725 40.7028 47.3102 41.0059 47.9152 41.0059C48.4764 41.0059 48.8591 40.7461 49.136 40.4539V40.9265H49.69V38.2351C49.69 37.3404 49.1652 36.9868 48.327 36.9868V36.994ZM49.136 39.9849C48.8991 40.306 48.5201 40.5621 48.0172 40.5621C47.5398 40.5621 47.2191 40.3132 47.2191 39.7395C47.2191 39.2561 47.5617 38.9819 48.1338 38.9819C48.6076 38.9819 48.8809 39.0685 49.136 39.2056V39.9885V39.9849Z" fill="white"/>
<path d="M55.2803 38.6718V40.9302H55.8343V38.5816C55.8343 37.4559 55.3386 36.9941 54.5442 36.9941C53.9101 36.9941 53.593 37.2864 53.3634 37.6544C53.1776 37.2864 52.8459 36.9941 52.2957 36.9941C51.8365 36.9941 51.5085 37.2142 51.308 37.5461V37.0771H50.7468V40.9338H51.308V38.6754C51.308 37.8203 51.6397 37.4704 52.1754 37.4704C52.7111 37.4704 53.0136 37.7915 53.0136 38.6754V40.9338H53.5712V38.6754C53.5712 37.8203 53.9101 37.4704 54.4385 37.4704C54.9997 37.4704 55.2767 37.7915 55.2767 38.6754L55.2803 38.6718Z" fill="white"/>
<path d="M58.0683 38.6859C57.4087 38.39 57.2119 38.2638 57.2119 37.9355C57.2119 37.6541 57.4451 37.4592 57.8569 37.4592C58.2687 37.4592 58.5238 37.5675 58.8263 37.8056L59.1361 37.3979C58.8409 37.1562 58.4254 36.9902 57.8933 36.9902C57.1827 36.9902 56.6762 37.3871 56.6762 37.9715C56.6762 38.5885 57.0005 38.823 57.784 39.1549C58.4728 39.4471 58.7024 39.6239 58.7024 39.9414C58.7024 40.3166 58.4509 40.5367 57.9152 40.5367C57.5289 40.5367 57.1645 40.3815 56.8547 40.111L56.5267 40.5114C56.8985 40.8072 57.3649 41.0057 57.9006 41.0057C58.5748 41.0057 59.2344 40.6774 59.2344 39.9161C59.2344 39.227 58.8044 39.0142 58.0646 38.6823L58.0683 38.6859Z" fill="white"/>
<path d="M62.4852 39.3281C62.4852 40.1723 62.0588 40.5295 61.5231 40.5295C60.8962 40.5295 60.601 40.1579 60.601 39.3281V37.0732H60.0471V39.4219C60.0471 40.5295 60.5901 41.0093 61.4101 41.0093C61.9021 41.0093 62.2629 40.782 62.4852 40.4573V40.9299H63.0427V37.0732H62.4852V39.3281Z" fill="white"/>
<path d="M66.9785 40.9302V38.5816C66.9785 37.4704 66.4355 36.9941 65.6119 36.9941C65.1236 36.9941 64.7591 37.2214 64.5405 37.5461V37.0771H63.9792V40.9338H64.5405V38.6754C64.5405 37.8311 64.9596 37.4704 65.4989 37.4704C66.1221 37.4704 66.4209 37.8456 66.4209 38.6754V40.9338H66.9785V40.9302Z" fill="white"/>
<path d="M68.7314 41.9257L68.91 42.3442C70.3568 42.3009 70.8816 41.7417 70.8816 40.58V37.0696H70.324V37.5025C70.0507 37.1923 69.7154 36.9902 69.2271 36.9902C68.4107 36.9902 67.7548 37.6937 67.7548 39.0611C67.7548 40.4284 68.3743 41.0057 69.1505 41.0057C69.679 41.0057 70.0507 40.7459 70.324 40.4537V40.6521C70.324 41.5504 70.0288 41.8896 68.7278 41.922L68.7314 41.9257ZM69.2927 40.5294C68.6768 40.5294 68.305 40.0244 68.305 39.0539C68.305 38.0184 68.6221 37.4665 69.2708 37.4665C69.7336 37.4665 70.109 37.7226 70.324 38.0437V39.9739C70.0507 40.313 69.7081 40.5294 69.2927 40.5294Z" fill="white"/>
<path d="M77.0259 38.3219C77.0259 36.5577 76.0201 35.7856 74.6571 35.7856H73.2832V40.9303H74.5551C75.9435 40.9303 77.0259 40.1871 77.0259 38.3219ZM73.8626 36.3052H74.6134C75.8087 36.3052 76.4465 37.0267 76.4465 38.3399C76.4465 39.8191 75.7467 40.4072 74.6279 40.4072H73.8626V36.3052Z" fill="white"/>
<path d="M78.5091 37.5495V37.0733H77.9515V40.93H78.5091V38.6643C78.5091 37.9284 78.8152 37.499 79.3582 37.499C79.617 37.499 79.7846 37.5568 79.9413 37.647L80.0798 37.0914C79.9486 37.0336 79.7628 36.9976 79.4712 36.9976C79.0521 36.9976 78.684 37.2465 78.5091 37.5532V37.5495Z" fill="white"/>
<path d="M83.4107 40.562L83.1483 40.1652C82.7912 40.3997 82.5252 40.5332 82.0696 40.5332C81.4355 40.5332 81.0383 40.01 80.9873 39.1911H83.582C83.6002 39.1009 83.6075 39.0215 83.6075 38.8916C83.6075 37.7913 83.0536 36.9976 82.0368 36.9976C81.1112 36.9976 80.4297 37.7588 80.4297 38.9818C80.4297 40.5007 81.297 41.013 82.0113 41.013C82.598 41.013 82.9406 40.8579 83.4107 40.5656V40.562ZM82.0368 37.4702C82.7183 37.4702 83.0463 37.9933 83.09 38.7401H80.9873C81.0529 37.8779 81.4574 37.4702 82.0368 37.4702Z" fill="white"/>
<path d="M85.466 41.0093C86.0236 41.0093 86.4063 40.7495 86.6796 40.4573V40.9299H87.2372V38.2385C87.2372 37.3438 86.7124 36.9902 85.8742 36.9902C85.3676 36.9902 84.9085 37.1129 84.5659 37.2969L84.7736 37.7443C85.0943 37.5603 85.426 37.4484 85.8341 37.4484C86.4063 37.4484 86.6796 37.7262 86.6796 38.3035V38.758C86.45 38.6318 86.1001 38.5344 85.7102 38.5344C84.9376 38.5344 84.2124 38.9024 84.2124 39.7682C84.2124 40.699 84.8538 41.0021 85.4624 41.0021L85.466 41.0093ZM85.6811 38.9781C86.1548 38.9781 86.4318 39.0647 86.6832 39.2018V39.9847C86.4464 40.3058 86.0673 40.5619 85.5644 40.5619C85.0907 40.5619 84.7663 40.313 84.7663 39.7394C84.7663 39.2559 85.1125 38.9817 85.6811 38.9817V38.9781Z" fill="white"/>
<path d="M92.8275 38.6718V40.9302H93.3851V38.5816C93.3851 37.4559 92.8895 36.9941 92.095 36.9941C91.4646 36.9941 91.1439 37.2864 90.9179 37.6544C90.732 37.2864 90.4004 36.9941 89.8501 36.9941C89.3873 36.9941 89.063 37.2142 88.8625 37.5461V37.0771H88.3086V40.9338H88.8625V38.6754C88.8625 37.8203 89.1978 37.4704 89.7335 37.4704C90.2692 37.4704 90.5753 37.7915 90.5753 38.6754V40.9338H91.1293V38.6754C91.1293 37.8203 91.4682 37.4704 92.0003 37.4704C92.5615 37.4704 92.8385 37.7915 92.8385 38.6754L92.8275 38.6718Z" fill="white"/>
<path d="M44.4641 45.6708C43.4218 45.3028 43.2323 45.0611 43.2323 44.6354C43.2323 44.2096 43.5311 43.8813 44.2418 43.8813C44.7629 43.8813 45.1128 44.0473 45.4881 44.3576L45.8598 43.9102C45.4225 43.5675 44.9743 43.3618 44.2782 43.3618C43.3052 43.3618 42.6529 43.8453 42.6529 44.675C42.6529 45.4182 43.0319 45.7754 44.1543 46.1723C45.1055 46.515 45.3934 46.782 45.3934 47.2618C45.3934 47.803 44.9633 48.1421 44.2709 48.1421C43.7352 48.1421 43.2833 47.8968 42.8897 47.5252L42.5071 47.9509C42.9152 48.3622 43.5457 48.6616 44.2527 48.6616C45.3351 48.6616 45.9692 48.0375 45.9692 47.2293C45.9692 46.4212 45.6157 46.0821 44.4677 45.6708H44.4641Z" fill="white"/>
<path d="M48.3343 45.1224C48.7278 45.1224 48.9866 45.2595 49.2672 45.5121L49.6025 45.1008C49.2963 44.8338 48.8918 44.6426 48.3707 44.6426C47.5544 44.6426 46.6907 45.2451 46.6907 46.6701C46.6907 48.0158 47.4742 48.658 48.3306 48.658C48.8773 48.658 49.2563 48.4524 49.5842 48.1205L49.249 47.7705C48.9829 48.0267 48.7315 48.1782 48.3525 48.1782C47.6637 48.1782 47.2519 47.5685 47.2519 46.6196C47.2519 45.6708 47.722 45.1152 48.3306 45.1152L48.3343 45.1224Z" fill="white"/>
<path d="M51.9823 44.6463C51.4939 44.6463 51.1258 44.8736 50.9035 45.1983V43.3872H50.3496V48.5896H50.9035V46.3311C50.9035 45.4869 51.3299 45.1261 51.8693 45.1261C52.4961 45.1261 52.7913 45.4977 52.7913 46.3311V48.5896H53.3489V46.2337C53.3489 45.1261 52.8059 44.6463 51.9823 44.6463Z" fill="white"/>
<path d="M55.8343 44.646C54.8868 44.646 54.1324 45.3495 54.1324 46.6591C54.1324 47.9687 54.8577 48.665 55.8052 48.665C56.7527 48.665 57.5144 47.9399 57.5144 46.6303C57.5144 45.3206 56.7819 44.646 55.8343 44.646ZM55.8234 48.1852C55.1456 48.1852 54.69 47.6585 54.69 46.6447C54.69 45.6309 55.1456 45.1258 55.8234 45.1258C56.5012 45.1258 56.9568 45.6309 56.9568 46.6447C56.9568 47.6585 56.4976 48.1852 55.8234 48.1852Z" fill="white"/>
<path d="M58.9101 43.3833H58.3525V48.5857H58.9101V43.3833Z" fill="white"/>
<path d="M61.4574 44.646C60.9508 44.646 60.4916 44.7723 60.1527 44.9563L60.3605 45.4072C60.6812 45.2232 61.0164 45.1114 61.4246 45.1114C61.9931 45.1114 62.2701 45.3928 62.2701 45.9628V46.421C62.0405 46.2947 61.6906 46.1973 61.3007 46.1973C60.5281 46.1973 59.8065 46.5653 59.8065 47.4348C59.8065 48.3656 60.4443 48.665 61.0529 48.665C61.6104 48.665 61.9931 48.4089 62.2701 48.1167V48.5893H62.8276V45.9015C62.8276 44.9996 62.2992 44.6496 61.461 44.6496L61.4574 44.646ZM62.2664 47.6368C62.0332 47.9543 61.6469 48.2141 61.1476 48.2141C60.6739 48.2141 60.3532 47.9651 60.3532 47.3915C60.3532 46.9045 60.6957 46.6375 61.2679 46.6375C61.7416 46.6375 62.015 46.7169 62.2664 46.8576V47.6368Z" fill="white"/>
<path d="M64.4421 45.2056V44.7221H63.8845V48.5824H64.4421V46.3168C64.4421 45.5844 64.7409 45.1479 65.2876 45.1479C65.55 45.1479 65.7176 45.2056 65.8743 45.2958L66.0164 44.7366C65.8816 44.6788 65.6994 44.6392 65.4078 44.6392C64.9924 44.6392 64.617 44.8881 64.4457 45.202L64.4421 45.2056Z" fill="white"/>
<path d="M68.152 46.3416C67.4924 46.0458 67.2919 45.9123 67.2919 45.5912C67.2919 45.3134 67.5288 45.115 67.937 45.115C68.3451 45.115 68.6075 45.2268 68.91 45.4614L69.2198 45.0573C68.9209 44.8156 68.5091 44.646 67.9734 44.646C67.2664 44.646 66.7526 45.0429 66.7526 45.6309C66.7526 46.219 67.0806 46.4823 67.8605 46.8107C68.5492 47.1029 68.7788 47.2833 68.7788 47.5971C68.7788 47.976 68.5274 48.1924 67.9953 48.1924C67.6053 48.1924 67.2446 48.0373 66.9312 47.7667L66.6068 48.1708C66.9785 48.4666 67.445 48.6614 67.9807 48.6614C68.6549 48.6614 69.3145 48.3295 69.3145 47.5755C69.3145 46.8828 68.8845 46.6736 68.1483 46.3416H68.152Z" fill="white"/>
<path d="M71.8582 44.6463C71.3626 44.6463 71.0018 44.8736 70.7795 45.1983V43.3872H70.2219V48.5896H70.7795V46.3311C70.7795 45.4869 71.2022 45.1261 71.7452 45.1261C72.3684 45.1261 72.6636 45.4977 72.6636 46.3311V48.5896H73.2212V46.2337C73.2212 45.1261 72.6818 44.6463 71.8582 44.6463Z" fill="white"/>
<path d="M74.8757 44.7222H74.3218V48.5825H74.8757V44.7222Z" fill="white"/>
<path d="M74.6097 43.25C74.3838 43.25 74.2052 43.4268 74.2052 43.6505C74.2052 43.8741 74.3838 44.0401 74.6097 44.0401C74.8174 44.0401 74.996 43.8597 74.996 43.6505C74.996 43.4268 74.8174 43.25 74.6097 43.25Z" fill="white"/>
<path d="M77.7292 44.646C77.2044 44.646 76.8327 44.9058 76.5558 45.198V44.7254H75.9982V50.0035H76.5558V48.1527C76.8291 48.4594 77.1643 48.665 77.6563 48.665C78.469 48.665 79.125 47.9579 79.125 46.5942C79.125 45.2305 78.5054 44.646 77.7292 44.646ZM77.609 48.1852C77.1498 48.1852 76.7708 47.9291 76.5558 47.6044V45.6778C76.8291 45.3423 77.1716 45.1222 77.5871 45.1222C78.2066 45.1222 78.5783 45.6273 78.5783 46.5978C78.5783 47.6332 78.2576 48.1816 77.6126 48.1816L77.609 48.1852Z" fill="white"/>
<path d="M82.0732 43.9609H84.5441V43.4414H81.4938V48.5861H82.0732V46.1869H83.4981V45.6674H82.0732V43.9609Z" fill="white"/>
<path d="M86.235 44.646C85.2874 44.646 84.5294 45.3495 84.5294 46.6591C84.5294 47.9687 85.2583 48.665 86.2058 48.665C87.1533 48.665 87.915 47.9399 87.915 46.6303C87.915 45.3206 87.1898 44.646 86.235 44.646ZM86.2204 48.1852C85.5425 48.1852 85.0943 47.6585 85.0943 46.6447C85.0943 45.6309 85.5462 45.1258 86.2204 45.1258C86.8946 45.1258 87.3574 45.6309 87.3574 46.6447C87.3574 47.6585 86.8982 48.1852 86.2204 48.1852Z" fill="white"/>
<path d="M90.9872 46.9806C90.9872 47.8248 90.5681 48.1856 90.0251 48.1856C89.402 48.1856 89.1031 47.814 89.1031 46.9806V44.7222H88.5492V47.0744C88.5492 48.182 89.0922 48.6618 89.9158 48.6618C90.4005 48.6618 90.7649 48.4382 90.9872 48.1135V48.5861H91.5485V44.7258H90.9872V46.9842V46.9806Z" fill="white"/>
<path d="M94.114 44.6462C93.6256 44.6462 93.2612 44.8735 93.0389 45.1982V44.7256H92.4813V48.5859H93.0389V46.3274C93.0389 45.4832 93.4616 45.1224 94.0046 45.1224C94.6278 45.1224 94.923 45.494 94.923 46.3274V48.5859H95.4806V46.23C95.4806 45.1224 94.9376 44.6426 94.114 44.6426V44.6462Z" fill="white"/>
<path d="M98.8297 45.1619C98.5528 44.8517 98.2211 44.6424 97.7291 44.6424C96.9128 44.6424 96.2605 45.3459 96.2605 46.7169C96.2605 48.0878 96.8764 48.6615 97.6563 48.6615C98.1847 48.6615 98.5528 48.4053 98.8261 48.1131V48.5857H99.3837V43.3833H98.8261V45.1619H98.8297ZM98.8297 47.626C98.5528 47.9616 98.2138 48.1816 97.7984 48.1816C97.1825 48.1816 96.8108 47.6765 96.8108 46.7061C96.8108 45.667 97.1278 45.1186 97.7765 45.1186C98.2357 45.1186 98.6111 45.3748 98.8297 45.6995V47.6224V47.626Z" fill="white"/>
<path d="M101.745 44.646C101.242 44.646 100.783 44.7723 100.441 44.9563L100.645 45.4072C100.965 45.2232 101.301 45.1114 101.709 45.1114C102.277 45.1114 102.551 45.3928 102.551 45.9628V46.421C102.321 46.2947 101.971 46.1973 101.578 46.1973C100.809 46.1973 100.087 46.5653 100.087 47.4348C100.087 48.3656 100.728 48.665 101.337 48.665C101.895 48.665 102.277 48.4089 102.551 48.1167V48.5893H103.108V45.9015C103.108 44.9996 102.583 44.6496 101.742 44.6496L101.745 44.646ZM102.551 47.6368C102.314 47.9543 101.938 48.2141 101.428 48.2141C100.958 48.2141 100.641 47.9651 100.641 47.3915C100.641 46.9045 100.98 46.6375 101.552 46.6375C102.026 46.6375 102.303 46.7169 102.551 46.8576V47.6368Z" fill="white"/>
<path d="M104.887 43.3833H104.325V44.7218H103.844V45.1872H104.325V47.7884C104.325 48.427 104.588 48.6578 105.072 48.6578C105.364 48.6578 105.572 48.6146 105.787 48.528L105.827 48.0517C105.648 48.1239 105.502 48.16 105.276 48.16C104.981 48.16 104.887 48.0409 104.887 47.6982V45.1872H105.852V44.7218H104.887V43.3833Z" fill="white"/>
<path d="M107.117 43.25C106.887 43.25 106.705 43.4268 106.705 43.6505C106.705 43.8741 106.887 44.0401 107.117 44.0401C107.325 44.0401 107.5 43.8597 107.5 43.6505C107.5 43.4268 107.321 43.25 107.117 43.25Z" fill="white"/>
<path d="M107.383 44.7222H106.825V48.5825H107.383V44.7222Z" fill="white"/>
<path d="M109.927 44.646C108.979 44.646 108.221 45.3495 108.221 46.6591C108.221 47.9687 108.946 48.665 109.897 48.665C110.849 48.665 111.603 47.9399 111.603 46.6303C111.603 45.3206 110.874 44.646 109.927 44.646ZM109.912 48.1852C109.238 48.1852 108.782 47.6585 108.782 46.6447C108.782 45.6309 109.238 45.1258 109.912 45.1258C110.586 45.1258 111.049 45.6309 111.049 46.6447C111.049 47.6585 110.59 48.1852 109.912 48.1852Z" fill="white"/>
<path d="M114.041 44.6462C113.553 44.6462 113.188 44.8735 112.962 45.1982V44.7256H112.405V48.5859H112.962V46.3274C112.962 45.4832 113.385 45.1224 113.928 45.1224C114.551 45.1224 114.85 45.494 114.85 46.3274V48.5859H115.404V46.23C115.404 45.1224 114.861 44.6426 114.041 44.6426V44.6462Z" fill="white"/>
<path d="M63.9465 25.6587C61.7089 25.6623 59.8649 27.394 59.8649 29.5659C59.8649 31.7378 61.7089 33.4515 63.9465 33.4587C66.2059 33.4515 68.0317 31.7161 68.0317 29.5659C68.0317 27.4157 66.2059 25.6623 63.9465 25.6587ZM63.8918 31.6764C62.722 31.6764 61.8401 30.7312 61.8401 29.5659C61.8401 28.4006 62.7839 27.4373 63.9501 27.4373C65.1163 27.4373 66.0274 28.3826 66.0274 29.5659C66.0274 30.7492 65.0726 31.6764 63.8955 31.6764H63.8918Z" fill="white"/>
<path d="M45.2184 22.9708C45.8416 23.5806 46.5559 24.1145 47.2592 24.4572L47.3321 24.4969L48.5384 23.0863L48.4218 23.0214C47.2775 22.408 46.381 21.6324 45.7942 20.6547C45.2112 19.6914 44.9123 18.573 44.9123 17.2345V15.979H42.7549V17.101C42.7549 18.5513 42.4233 19.6914 41.8001 20.6907C41.104 21.7983 40.0727 22.6894 38.7535 23.5156L38.6368 23.5878L39.9451 24.9299L40.018 24.8902C40.7979 24.4717 41.6252 23.8259 42.3431 23.1043C42.9663 22.473 43.5056 21.7983 43.8336 21.1598C44.1507 21.7875 44.6354 22.4261 45.2184 22.9745V22.9708Z" fill="white"/>
<path d="M42.8824 32.5352H51.913V26.4272H42.8824V32.5352ZM44.9123 28.1518H49.8831V30.8107H44.9123V28.1518Z" fill="white"/>
<path d="M72.9916 32.5352H83.2029V26.4272H72.9916V32.5352ZM74.9996 28.1518H81.1985V30.8107H74.9996V28.1518Z" fill="white"/>
<path d="M51.9494 15.6182H49.9414V25.7271H51.9494V21.2535H54.3V19.4568H51.9494V15.6182Z" fill="white"/>
<path d="M93.5819 23.4866C94.2415 24.053 94.9959 24.5292 95.7065 24.8359L95.7794 24.8683L96.8654 23.4144L96.7488 23.3567C95.7138 22.8335 94.7918 22.1842 94.1285 21.3904C93.4543 20.5823 93.0535 19.6082 93.0535 18.4357V18.0929H96.0418V16.354H87.9296V18.0929H90.9143V18.5114C90.9143 19.5793 90.5571 20.5751 89.9631 21.4373C89.267 22.4728 88.2503 23.3062 87.2627 23.8473L87.1315 23.9159L88.4653 25.2832L88.5382 25.2471C89.2561 24.8431 90.0506 24.2334 90.7284 23.5479C91.2714 22.9851 91.7597 22.3898 92.0586 21.7945C92.4193 22.3718 92.9733 22.949 93.5855 23.4866H93.5819Z" fill="white"/>
<path d="M108.104 28.1913H115.404V32.5314H117.43V26.4668H108.104V28.1913Z" fill="white"/>
<path d="M113.141 21.2391C113.141 20.283 112.707 19.4027 112.066 18.7317H114.07V17.0108H110.244V15.1167H108.068V17.0108H104.15V18.7317H106.198C105.572 19.4027 105.138 20.2758 105.138 21.2391C105.138 23.3713 106.913 25.103 109.132 25.1102C111.352 25.103 113.137 23.3713 113.141 21.2391ZM107.073 21.1597C107.073 19.98 108.079 18.9806 109.132 18.9806C110.185 18.9806 111.188 19.9836 111.191 21.1597C111.191 22.3214 110.185 23.3244 109.132 23.328C108.075 23.3244 107.077 22.3214 107.073 21.1597Z" fill="white"/>
<path d="M117.43 15.6182H115.426V25.7632H117.43V21.8921H119.788V20.0954H117.43V15.6182Z" fill="white"/>
<path d="M100.422 15.6182H98.4178V25.7632H100.422V21.2535H102.776V19.4568H100.422V15.6182Z" fill="white"/>
<path d="M66.3991 18.627H63.2432V20.4057H66.3991V26.0843H68.4071V15.6182H66.3991V18.627Z" fill="white"/>
<path d="M61.3007 23.2342C61.9275 23.8403 62.66 24.3743 63.3597 24.735L63.4363 24.7783L64.6425 23.3677L64.5259 23.3028C63.3816 22.7075 62.5033 21.9354 61.9129 20.9721C61.3153 20.0161 61.0164 18.8544 61.0164 17.5159V15.979H58.8554V17.386C58.8554 18.8364 58.5274 19.9728 57.9188 20.9541C57.2264 22.0797 56.1732 22.9781 54.8539 23.797L54.741 23.8692L56.0566 25.2149L56.1222 25.1716C56.8984 24.7495 57.7074 24.1398 58.4254 23.4435C59.074 22.8049 59.6134 22.1086 59.9414 21.4412C60.2511 22.0509 60.7249 22.6714 61.3007 23.2378V23.2342Z" fill="white"/>
<path d="M96.1183 25.6587C93.8807 25.6623 92.0367 27.394 92.0331 29.5659C92.0367 31.7161 93.8771 33.4515 96.1183 33.4587C98.3742 33.4515 100.204 31.7161 100.204 29.5659C100.204 27.4157 98.3742 25.6623 96.1183 25.6587ZM96.06 31.6764C94.8939 31.6764 94.0047 30.7312 94.0047 29.5659C94.0047 28.4006 94.9449 27.4373 96.1183 27.4373C97.2918 27.4373 98.192 28.3826 98.1956 29.5659C98.1956 30.7276 97.2371 31.6764 96.06 31.6764Z" fill="white"/>
<path d="M75.4369 21.4156H77.4449V16.2529H72.0259V17.9702H75.4369V21.4156Z" fill="white"/>
<path d="M81.4647 21.4156H83.4763V16.2529H78.0573V17.9702H81.4647V21.4156Z" fill="white"/>
<path d="M132.649 20.1892H130.961V15.8996H129.063V32.0984H130.961V22.1374H132.649V32.5314H134.617V15.6182H132.649V20.1892Z" fill="white"/>
<path d="M126.278 22.4296C125.827 21.4519 125.641 20.3587 125.641 19.0166V18.3781H127.918V16.5562H121.3V18.3781H123.651V19.0527C123.651 20.3227 123.483 21.3617 123.079 22.325C122.609 23.4326 121.818 24.4283 120.557 25.4962L120.469 25.5756L121.716 26.7986L121.792 26.7409C122.419 26.2827 123.075 25.6189 123.622 24.9334C124.085 24.3561 124.475 23.7573 124.719 23.2305C124.97 23.7428 125.364 24.3309 125.823 24.8793C126.355 25.5214 126.956 26.1312 127.532 26.4955L127.609 26.5461L128.658 25.305L128.574 25.2292C127.445 24.2551 126.745 23.3857 126.286 22.426L126.278 22.4296Z" fill="white"/>
<path d="M70.3458 23.8184H77.0112V25.745H79.1869V23.8184H85.958V22.0903H70.3458V23.8184Z" fill="white"/>
<path d="M146.049 23.2665H139.263V18.1543H144.431V16.354H137.23V25.0126H146.049V23.2665Z" fill="white"/>
<path d="M142.211 27.1416H140.182V32.5316H149.675V30.7566H142.211V27.1416Z" fill="white"/>
<path d="M149.628 20.3012V15.6147H147.623V28.094H149.628V22.0979H152V20.3012H149.628Z" fill="white"/>
<path d="M42.569 10.3976L37.3686 8.26539L42.569 6.1332L41.6434 3.92886L36.4466 6.06104L38.6004 0.912764L36.3701 0L34.2199 5.14828L32.0662 0L29.8358 0.912764L31.9896 6.06104L26.7929 3.92886L25.8708 6.1332L31.0676 8.26539L25.8708 10.3976L26.7929 12.6019L31.9896 10.4697L29.8358 15.618L32.0662 16.5308L34.2199 11.3861L36.3701 16.5308L38.6004 15.6144L36.4466 10.4697L41.6434 12.6019L42.569 10.3976Z" fill="white"/>
<path d="M8.92126 24.7602H12.3797V15.6182H0.553955V18.6992H8.92126V24.7602Z" fill="white"/>
<path d="M22.4125 24.7602H25.8709V15.6182H14.0452V18.6992H22.4125V24.7602Z" fill="white"/>
<path d="M0 29.4902H22.4124V34.1983H25.8709V26.4092H0V29.4902Z" fill="white"/>
<path d="M8.36731 48.5857H25.8709V35.7817H8.36731V48.5857ZM11.8257 38.8628H22.4161V45.5047H11.8257V38.8628Z" fill="white"/>
</g>
<defs>
<clipPath id="clip0_6_71">
<rect width="152" height="50" fill="white"/>
</clipPath>
</defs>
</svg>
