<svg width="152" height="50" viewBox="0 0 152 50" fill="none" xmlns="http://www.w3.org/2000/svg">
<g clip-path="url(#clip0_35_12)">
<path d="M44.4641 38.0186C43.4254 37.6506 43.2287 37.4053 43.2287 36.9832C43.2287 36.5611 43.5275 36.2256 44.2381 36.2256C44.7593 36.2256 45.1055 36.3951 45.4845 36.7054L45.8562 36.2544C45.4189 35.9081 44.9743 35.7061 44.2746 35.7061C43.3052 35.7061 42.6492 36.1967 42.6492 37.0193C42.6492 37.7625 43.0282 38.1233 44.1507 38.5201C45.1018 38.8592 45.3897 39.1298 45.3897 39.606C45.3897 40.1508 44.9597 40.49 44.2709 40.49C43.7352 40.49 43.2833 40.2446 42.8897 39.873L42.5071 40.2987C42.9152 40.71 43.5457 41.0131 44.2527 41.0131C45.3351 41.0131 45.9728 40.3853 45.9728 39.5808C45.9728 38.7763 45.6193 38.4335 44.4677 38.0222L44.4641 38.0186Z" fill="white"/>
<path d="M48.327 36.9935C47.8204 36.9935 47.3613 37.1162 47.0187 37.3002L47.2301 37.7476C47.5471 37.5636 47.8824 37.4517 48.2905 37.4517C48.8591 37.4517 49.136 37.7295 49.136 38.3068V38.7614C48.9064 38.6351 48.5529 38.5377 48.163 38.5377C47.3941 38.5377 46.6725 38.9057 46.6725 39.7715C46.6725 40.7023 47.3102 41.0054 47.9152 41.0054C48.4764 41.0054 48.8591 40.7456 49.136 40.4534V40.926H49.69V38.2346C49.69 37.3399 49.1652 36.9863 48.327 36.9863V36.9935ZM49.136 39.9844C48.8991 40.3055 48.5201 40.5616 48.0172 40.5616C47.5398 40.5616 47.2191 40.3127 47.2191 39.7391C47.2191 39.2556 47.5617 38.9814 48.1338 38.9814C48.6076 38.9814 48.8809 39.068 49.136 39.2051V39.988V39.9844Z" fill="white"/>
<path d="M55.2803 38.6718V40.9302H55.8343V38.5816C55.8343 37.4559 55.3386 36.9941 54.5442 36.9941C53.9101 36.9941 53.593 37.2864 53.3634 37.6544C53.1776 37.2864 52.8459 36.9941 52.2957 36.9941C51.8365 36.9941 51.5085 37.2142 51.308 37.5461V37.0771H50.7468V40.9338H51.308V38.6754C51.308 37.8203 51.6397 37.4704 52.1754 37.4704C52.7111 37.4704 53.0136 37.7915 53.0136 38.6754V40.9338H53.5712V38.6754C53.5712 37.8203 53.9101 37.4704 54.4385 37.4704C54.9997 37.4704 55.2767 37.7915 55.2767 38.6754L55.2803 38.6718Z" fill="white"/>
<path d="M58.0683 38.6859C57.4087 38.39 57.2119 38.2638 57.2119 37.9355C57.2119 37.6541 57.4451 37.4592 57.8569 37.4592C58.2687 37.4592 58.5238 37.5675 58.8263 37.8056L59.1361 37.3979C58.8409 37.1562 58.4254 36.9902 57.8933 36.9902C57.1827 36.9902 56.6762 37.3871 56.6762 37.9715C56.6762 38.5885 57.0005 38.823 57.784 39.1549C58.4728 39.4471 58.7024 39.6239 58.7024 39.9414C58.7024 40.3166 58.4509 40.5367 57.9152 40.5367C57.5289 40.5367 57.1645 40.3815 56.8547 40.111L56.5267 40.5114C56.8985 40.8072 57.3649 41.0057 57.9006 41.0057C58.5748 41.0057 59.2344 40.6774 59.2344 39.9161C59.2344 39.227 58.8044 39.0142 58.0646 38.6823L58.0683 38.6859Z" fill="white"/>
<path d="M62.4852 39.3281C62.4852 40.1723 62.0588 40.5295 61.5231 40.5295C60.8962 40.5295 60.601 40.1579 60.601 39.3281V37.0732H60.0471V39.4219C60.0471 40.5295 60.5901 41.0093 61.4101 41.0093C61.9021 41.0093 62.2629 40.782 62.4852 40.4573V40.9299H63.0427V37.0732H62.4852V39.3281Z" fill="white"/>
<path d="M66.9785 40.9302V38.5816C66.9785 37.4704 66.4355 36.9941 65.6119 36.9941C65.1236 36.9941 64.7591 37.2214 64.5405 37.5461V37.0771H63.9792V40.9338H64.5405V38.6754C64.5405 37.8311 64.9596 37.4704 65.4989 37.4704C66.1221 37.4704 66.4209 37.8456 66.4209 38.6754V40.9338H66.9785V40.9302Z" fill="white"/>
<path d="M68.7314 41.9257L68.91 42.3442C70.3568 42.3009 70.8816 41.7417 70.8816 40.58V37.0696H70.324V37.5025C70.0507 37.1923 69.7154 36.9902 69.2271 36.9902C68.4107 36.9902 67.7548 37.6937 67.7548 39.0611C67.7548 40.4284 68.3743 41.0057 69.1505 41.0057C69.679 41.0057 70.0507 40.7459 70.324 40.4537V40.6521C70.324 41.5504 70.0288 41.8896 68.7278 41.922L68.7314 41.9257ZM69.2927 40.5294C68.6768 40.5294 68.305 40.0244 68.305 39.0539C68.305 38.0184 68.6221 37.4665 69.2708 37.4665C69.7336 37.4665 70.109 37.7226 70.324 38.0437V39.9739C70.0507 40.313 69.7081 40.5294 69.2927 40.5294Z" fill="white"/>
<path d="M77.0259 38.3214C77.0259 36.5572 76.0201 35.7852 74.6571 35.7852H73.2832V40.9298H74.5551C75.9435 40.9298 77.0259 40.1866 77.0259 38.3214ZM73.8626 36.3047H74.6134C75.8087 36.3047 76.4465 37.0262 76.4465 38.3395C76.4465 39.8186 75.7467 40.4067 74.6279 40.4067H73.8626V36.3047Z" fill="white"/>
<path d="M78.5091 37.55V37.0738H77.9515V40.9305H78.5091V38.6648C78.5091 37.9288 78.8152 37.4995 79.3582 37.4995C79.617 37.4995 79.7846 37.5572 79.9413 37.6474L80.0798 37.0918C79.9486 37.0341 79.7628 36.998 79.4712 36.998C79.0521 36.998 78.684 37.247 78.5091 37.5536V37.55Z" fill="white"/>
<path d="M83.4107 40.5625L83.1483 40.1657C82.7912 40.4002 82.5252 40.5337 82.0696 40.5337C81.4355 40.5337 81.0383 40.0105 80.9873 39.1916H83.582C83.6002 39.1014 83.6075 39.022 83.6075 38.8921C83.6075 37.7918 83.0536 36.998 82.0368 36.998C81.1112 36.998 80.4297 37.7593 80.4297 38.9823C80.4297 40.5012 81.297 41.0135 82.0113 41.0135C82.598 41.0135 82.9406 40.8584 83.4107 40.5661V40.5625ZM82.0368 37.4707C82.7183 37.4707 83.0463 37.9938 83.09 38.7406H80.9873C81.0529 37.8783 81.4574 37.4707 82.0368 37.4707Z" fill="white"/>
<path d="M85.466 41.0093C86.0236 41.0093 86.4063 40.7495 86.6796 40.4573V40.9299H87.2372V38.2385C87.2372 37.3438 86.7124 36.9902 85.8742 36.9902C85.3676 36.9902 84.9085 37.1129 84.5659 37.2969L84.7736 37.7443C85.0943 37.5603 85.426 37.4484 85.8341 37.4484C86.4063 37.4484 86.6796 37.7262 86.6796 38.3035V38.758C86.45 38.6318 86.1001 38.5344 85.7102 38.5344C84.9376 38.5344 84.2124 38.9024 84.2124 39.7682C84.2124 40.699 84.8538 41.0021 85.4624 41.0021L85.466 41.0093ZM85.6811 38.9781C86.1548 38.9781 86.4318 39.0647 86.6832 39.2018V39.9847C86.4464 40.3058 86.0673 40.5619 85.5644 40.5619C85.0907 40.5619 84.7663 40.313 84.7663 39.7394C84.7663 39.2559 85.1125 38.9817 85.6811 38.9817V38.9781Z" fill="white"/>
<path d="M92.8275 38.6718V40.9302H93.3851V38.5816C93.3851 37.4559 92.8895 36.9941 92.095 36.9941C91.4646 36.9941 91.1439 37.2864 90.9179 37.6544C90.732 37.2864 90.4004 36.9941 89.8501 36.9941C89.3873 36.9941 89.063 37.2142 88.8625 37.5461V37.0771H88.3086V40.9338H88.8625V38.6754C88.8625 37.8203 89.1978 37.4704 89.7335 37.4704C90.2692 37.4704 90.5753 37.7915 90.5753 38.6754V40.9338H91.1293V38.6754C91.1293 37.8203 91.4682 37.4704 92.0003 37.4704C92.5615 37.4704 92.8385 37.7915 92.8385 38.6754L92.8275 38.6718Z" fill="white"/>
<path d="M44.4641 45.6713C43.4218 45.3033 43.2323 45.0616 43.2323 44.6358C43.2323 44.2101 43.5311 43.8818 44.2418 43.8818C44.7629 43.8818 45.1128 44.0478 45.4881 44.358L45.8598 43.9107C45.4225 43.5679 44.9743 43.3623 44.2782 43.3623C43.3052 43.3623 42.6529 43.8457 42.6529 44.6755C42.6529 45.4187 43.0319 45.7759 44.1543 46.1728C45.1055 46.5155 45.3934 46.7825 45.3934 47.2623C45.3934 47.8035 44.9633 48.1426 44.2709 48.1426C43.7352 48.1426 43.2833 47.8973 42.8897 47.5257L42.5071 47.9514C42.9152 48.3627 43.5457 48.6621 44.2527 48.6621C45.3351 48.6621 45.9692 48.038 45.9692 47.2298C45.9692 46.4217 45.6157 46.0826 44.4677 45.6713H44.4641Z" fill="white"/>
<path d="M48.3343 45.1224C48.7278 45.1224 48.9866 45.2595 49.2672 45.5121L49.6025 45.1008C49.2963 44.8338 48.8918 44.6426 48.3707 44.6426C47.5544 44.6426 46.6907 45.2451 46.6907 46.6701C46.6907 48.0158 47.4742 48.658 48.3306 48.658C48.8773 48.658 49.2563 48.4524 49.5842 48.1205L49.249 47.7705C48.9829 48.0267 48.7315 48.1782 48.3525 48.1782C47.6637 48.1782 47.2519 47.5685 47.2519 46.6196C47.2519 45.6708 47.722 45.1152 48.3306 45.1152L48.3343 45.1224Z" fill="white"/>
<path d="M51.9823 44.6458C51.4939 44.6458 51.1258 44.8731 50.9035 45.1978V43.3867H50.3496V48.5891H50.9035V46.3307C50.9035 45.4864 51.3299 45.1257 51.8693 45.1257C52.4961 45.1257 52.7913 45.4973 52.7913 46.3307V48.5891H53.3489V46.2332C53.3489 45.1257 52.8059 44.6458 51.9823 44.6458Z" fill="white"/>
<path d="M55.8343 44.6465C54.8868 44.6465 54.1324 45.35 54.1324 46.6596C54.1324 47.9692 54.8577 48.6655 55.8052 48.6655C56.7527 48.6655 57.5144 47.9404 57.5144 46.6308C57.5144 45.3211 56.7819 44.6465 55.8343 44.6465ZM55.8234 48.1857C55.1456 48.1857 54.69 47.659 54.69 46.6452C54.69 45.6314 55.1456 45.1263 55.8234 45.1263C56.5012 45.1263 56.9568 45.6314 56.9568 46.6452C56.9568 47.659 56.4976 48.1857 55.8234 48.1857Z" fill="white"/>
<path d="M58.9101 43.3838H58.3525V48.5862H58.9101V43.3838Z" fill="white"/>
<path d="M61.4574 44.6465C60.9508 44.6465 60.4916 44.7728 60.1527 44.9568L60.3605 45.4077C60.6812 45.2237 61.0164 45.1119 61.4246 45.1119C61.9931 45.1119 62.2701 45.3933 62.2701 45.9633V46.4215C62.0405 46.2952 61.6906 46.1978 61.3007 46.1978C60.5281 46.1978 59.8065 46.5658 59.8065 47.4353C59.8065 48.3661 60.4443 48.6655 61.0529 48.6655C61.6104 48.6655 61.9931 48.4094 62.2701 48.1172V48.5898H62.8276V45.902C62.8276 45 62.2992 44.6501 61.461 44.6501L61.4574 44.6465ZM62.2664 47.6373C62.0332 47.9548 61.6469 48.2146 61.1476 48.2146C60.6739 48.2146 60.3532 47.9656 60.3532 47.392C60.3532 46.9049 60.6957 46.638 61.2679 46.638C61.7416 46.638 62.015 46.7173 62.2664 46.858V47.6373Z" fill="white"/>
<path d="M64.4421 45.2051V44.7216H63.8845V48.582H64.4421V46.3163C64.4421 45.5839 64.7409 45.1474 65.2876 45.1474C65.55 45.1474 65.7176 45.2051 65.8743 45.2953L66.0164 44.7361C65.8816 44.6784 65.6994 44.6387 65.4078 44.6387C64.9924 44.6387 64.617 44.8876 64.4457 45.2015L64.4421 45.2051Z" fill="white"/>
<path d="M68.152 46.3421C67.4924 46.0463 67.2919 45.9128 67.2919 45.5917C67.2919 45.3139 67.5288 45.1155 67.937 45.1155C68.3451 45.1155 68.6075 45.2273 68.91 45.4618L69.2198 45.0578C68.9209 44.816 68.5091 44.6465 67.9734 44.6465C67.2664 44.6465 66.7526 45.0433 66.7526 45.6314C66.7526 46.2195 67.0806 46.4828 67.8605 46.8111C68.5492 47.1034 68.7788 47.2838 68.7788 47.5976C68.7788 47.9764 68.5274 48.1929 67.9953 48.1929C67.6053 48.1929 67.2446 48.0378 66.9312 47.7672L66.6068 48.1713C66.9785 48.4671 67.445 48.6619 67.9807 48.6619C68.6549 48.6619 69.3145 48.33 69.3145 47.576C69.3145 46.8833 68.8845 46.674 68.1483 46.3421H68.152Z" fill="white"/>
<path d="M71.8582 44.6458C71.3626 44.6458 71.0018 44.8731 70.7795 45.1978V43.3867H70.2219V48.5891H70.7795V46.3307C70.7795 45.4864 71.2022 45.1257 71.7452 45.1257C72.3684 45.1257 72.6636 45.4973 72.6636 46.3307V48.5891H73.2212V46.2332C73.2212 45.1257 72.6818 44.6458 71.8582 44.6458Z" fill="white"/>
<path d="M74.8757 44.7217H74.3218V48.582H74.8757V44.7217Z" fill="white"/>
<path d="M74.6097 43.25C74.3838 43.25 74.2052 43.4268 74.2052 43.6505C74.2052 43.8741 74.3838 44.0401 74.6097 44.0401C74.8174 44.0401 74.996 43.8597 74.996 43.6505C74.996 43.4268 74.8174 43.25 74.6097 43.25Z" fill="white"/>
<path d="M77.7292 44.6465C77.2044 44.6465 76.8327 44.9062 76.5558 45.1985V44.7259H75.9982V50.004H76.5558V48.1532C76.8291 48.4599 77.1643 48.6655 77.6563 48.6655C78.469 48.6655 79.125 47.9584 79.125 46.5947C79.125 45.2309 78.5054 44.6465 77.7292 44.6465ZM77.609 48.1857C77.1498 48.1857 76.7708 47.9295 76.5558 47.6049V45.6783C76.8291 45.3428 77.1716 45.1227 77.5871 45.1227C78.2066 45.1227 78.5783 45.6278 78.5783 46.5983C78.5783 47.6337 78.2576 48.1821 77.6126 48.1821L77.609 48.1857Z" fill="white"/>
<path d="M82.0732 43.9609H84.5441V43.4414H81.4938V48.5861H82.0732V46.1869H83.4981V45.6674H82.0732V43.9609Z" fill="white"/>
<path d="M86.235 44.6465C85.2874 44.6465 84.5294 45.35 84.5294 46.6596C84.5294 47.9692 85.2583 48.6655 86.2058 48.6655C87.1533 48.6655 87.915 47.9404 87.915 46.6308C87.915 45.3211 87.1898 44.6465 86.235 44.6465ZM86.2204 48.1857C85.5425 48.1857 85.0943 47.659 85.0943 46.6452C85.0943 45.6314 85.5462 45.1263 86.2204 45.1263C86.8946 45.1263 87.3574 45.6314 87.3574 46.6452C87.3574 47.659 86.8982 48.1857 86.2204 48.1857Z" fill="white"/>
<path d="M90.9872 46.9801C90.9872 47.8244 90.5681 48.1851 90.0251 48.1851C89.402 48.1851 89.1031 47.8135 89.1031 46.9801V44.7217H88.5492V47.0739C88.5492 48.1815 89.0922 48.6614 89.9158 48.6614C90.4005 48.6614 90.7649 48.4377 90.9872 48.113V48.5856H91.5485V44.7253H90.9872V46.9837V46.9801Z" fill="white"/>
<path d="M94.114 44.6462C93.6256 44.6462 93.2612 44.8735 93.0389 45.1982V44.7256H92.4813V48.5859H93.0389V46.3274C93.0389 45.4832 93.4616 45.1224 94.0046 45.1224C94.6278 45.1224 94.923 45.494 94.923 46.3274V48.5859H95.4806V46.23C95.4806 45.1224 94.9376 44.6426 94.114 44.6426V44.6462Z" fill="white"/>
<path d="M98.8297 45.1624C98.5528 44.8521 98.2211 44.6429 97.7291 44.6429C96.9128 44.6429 96.2605 45.3464 96.2605 46.7174C96.2605 48.0883 96.8764 48.6619 97.6563 48.6619C98.1847 48.6619 98.5528 48.4058 98.8261 48.1136V48.5862H99.3837V43.3838H98.8261V45.1624H98.8297ZM98.8297 47.6265C98.5528 47.962 98.2138 48.1821 97.7984 48.1821C97.1825 48.1821 96.8108 47.677 96.8108 46.7065C96.8108 45.6675 97.1278 45.1191 97.7765 45.1191C98.2357 45.1191 98.6111 45.3753 98.8297 45.7V47.6229V47.6265Z" fill="white"/>
<path d="M101.745 44.6465C101.242 44.6465 100.783 44.7728 100.441 44.9568L100.645 45.4077C100.965 45.2237 101.301 45.1119 101.709 45.1119C102.277 45.1119 102.551 45.3933 102.551 45.9633V46.4215C102.321 46.2952 101.971 46.1978 101.578 46.1978C100.809 46.1978 100.087 46.5658 100.087 47.4353C100.087 48.3661 100.728 48.6655 101.337 48.6655C101.895 48.6655 102.277 48.4094 102.551 48.1172V48.5898H103.108V45.902C103.108 45 102.583 44.6501 101.742 44.6501L101.745 44.6465ZM102.551 47.6373C102.314 47.9548 101.938 48.2146 101.428 48.2146C100.958 48.2146 100.641 47.9656 100.641 47.392C100.641 46.9049 100.98 46.638 101.552 46.638C102.026 46.638 102.303 46.7173 102.551 46.858V47.6373Z" fill="white"/>
<path d="M104.887 43.3838H104.325V44.7223H103.844V45.1877H104.325V47.7889C104.325 48.4274 104.588 48.6583 105.072 48.6583C105.364 48.6583 105.572 48.615 105.787 48.5285L105.827 48.0522C105.648 48.1244 105.502 48.1605 105.276 48.1605C104.981 48.1605 104.887 48.0414 104.887 47.6987V45.1877H105.852V44.7223H104.887V43.3838Z" fill="white"/>
<path d="M107.117 43.25C106.887 43.25 106.705 43.4268 106.705 43.6505C106.705 43.8741 106.887 44.0401 107.117 44.0401C107.325 44.0401 107.5 43.8597 107.5 43.6505C107.5 43.4268 107.321 43.25 107.117 43.25Z" fill="white"/>
<path d="M107.383 44.7217H106.825V48.582H107.383V44.7217Z" fill="white"/>
<path d="M109.927 44.6465C108.979 44.6465 108.221 45.35 108.221 46.6596C108.221 47.9692 108.946 48.6655 109.897 48.6655C110.849 48.6655 111.603 47.9404 111.603 46.6308C111.603 45.3211 110.874 44.6465 109.927 44.6465ZM109.912 48.1857C109.238 48.1857 108.782 47.659 108.782 46.6452C108.782 45.6314 109.238 45.1263 109.912 45.1263C110.586 45.1263 111.049 45.6314 111.049 46.6452C111.049 47.659 110.59 48.1857 109.912 48.1857Z" fill="white"/>
<path d="M114.041 44.6462C113.553 44.6462 113.188 44.8735 112.962 45.1982V44.7256H112.405V48.5859H112.962V46.3274C112.962 45.4832 113.385 45.1224 113.928 45.1224C114.551 45.1224 114.85 45.494 114.85 46.3274V48.5859H115.404V46.23C115.404 45.1224 114.861 44.6426 114.041 44.6426V44.6462Z" fill="white"/>
<path d="M63.9465 25.6582C61.7089 25.6618 59.8649 27.3935 59.8649 29.5654C59.8649 31.7373 61.7089 33.451 63.9465 33.4582C66.2059 33.451 68.0317 31.7156 68.0317 29.5654C68.0317 27.4152 66.2059 25.6618 63.9465 25.6582ZM63.8918 31.676C62.722 31.676 61.8401 30.7307 61.8401 29.5654C61.8401 28.4001 62.7839 27.4368 63.9501 27.4368C65.1163 27.4368 66.0274 28.3821 66.0274 29.5654C66.0274 30.7488 65.0726 31.676 63.8955 31.676H63.8918Z" fill="white"/>
<path d="M45.2184 22.9704C45.8416 23.5801 46.5559 24.114 47.2592 24.4568L47.3321 24.4964L48.5384 23.0858L48.4218 23.0209C47.2775 22.4076 46.381 21.6319 45.7942 20.6542C45.2112 19.6909 44.9123 18.5725 44.9123 17.234V15.9785H42.7549V17.1005C42.7549 18.5509 42.4233 19.6909 41.8001 20.6903C41.104 21.7978 40.0727 22.689 38.7535 23.5151L38.6368 23.5873L39.9451 24.9294L40.018 24.8897C40.7979 24.4712 41.6252 23.8254 42.3431 23.1038C42.9663 22.4725 43.5056 21.7978 43.8336 21.1593C44.1507 21.787 44.6354 22.4256 45.2184 22.974V22.9704Z" fill="white"/>
<path d="M42.8824 32.5347H51.913V26.4268H42.8824V32.5347ZM44.9123 28.1513H49.8831V30.8102H44.9123V28.1513Z" fill="white"/>
<path d="M72.9916 32.5347H83.2029V26.4268H72.9916V32.5347ZM74.9996 28.1513H81.1985V30.8102H74.9996V28.1513Z" fill="white"/>
<path d="M51.9494 15.6182H49.9414V25.7271H51.9494V21.2535H54.3V19.4568H51.9494V15.6182Z" fill="white"/>
<path d="M93.5819 23.4861C94.2415 24.0525 94.9959 24.5287 95.7065 24.8354L95.7794 24.8678L96.8654 23.4139L96.7488 23.3562C95.7138 22.8331 94.7918 22.1837 94.1285 21.39C93.4543 20.5818 93.0535 19.6077 93.0535 18.4352V18.0925H96.0418V16.3535H87.9296V18.0925H90.9143V18.511C90.9143 19.5789 90.5571 20.5746 89.9631 21.4369C89.267 22.4723 88.2503 23.3057 87.2627 23.8468L87.1315 23.9154L88.4653 25.2827L88.5382 25.2467C89.2561 24.8426 90.0506 24.2329 90.7284 23.5474C91.2714 22.9846 91.7597 22.3893 92.0586 21.794C92.4193 22.3713 92.9733 22.9485 93.5855 23.4861H93.5819Z" fill="white"/>
<path d="M108.104 28.1903H115.404V32.5305H117.43V26.4658H108.104V28.1903Z" fill="white"/>
<path d="M113.141 21.2386C113.141 20.2825 112.707 19.4022 112.066 18.7312H114.07V17.0103H110.244V15.1162H108.068V17.0103H104.15V18.7312H106.198C105.572 19.4022 105.138 20.2753 105.138 21.2386C105.138 23.3708 106.913 25.1025 109.132 25.1097C111.352 25.1025 113.137 23.3708 113.141 21.2386ZM107.073 21.1592C107.073 19.9795 108.079 18.9801 109.132 18.9801C110.185 18.9801 111.188 19.9831 111.191 21.1592C111.191 22.3209 110.185 23.3239 109.132 23.3275C108.075 23.3239 107.077 22.3209 107.073 21.1592Z" fill="white"/>
<path d="M117.43 15.6182H115.426V25.7632H117.43V21.8921H119.788V20.0954H117.43V15.6182Z" fill="white"/>
<path d="M100.422 15.6182H98.4178V25.7632H100.422V21.2535H102.776V19.4568H100.422V15.6182Z" fill="white"/>
<path d="M66.3991 18.627H63.2432V20.4057H66.3991V26.0843H68.4071V15.6182H66.3991V18.627Z" fill="white"/>
<path d="M61.3007 23.2337C61.9275 23.8398 62.66 24.3738 63.3597 24.7346L63.4363 24.7779L64.6425 23.3672L64.5259 23.3023C63.3816 22.707 62.5033 21.9349 61.9129 20.9717C61.3153 20.0156 61.0164 18.8539 61.0164 17.5154V15.9785H58.8554V17.3855C58.8554 18.8359 58.5274 19.9723 57.9188 20.9536C57.2264 22.0792 56.1732 22.9776 54.8539 23.7965L54.741 23.8687L56.0566 25.2144L56.1222 25.1711C56.8984 24.749 57.7074 24.1393 58.4254 23.443C59.074 22.8044 59.6134 22.1081 59.9414 21.4407C60.2511 22.0504 60.7249 22.6709 61.3007 23.2373V23.2337Z" fill="white"/>
<path d="M96.1183 25.6582C93.8807 25.6618 92.0367 27.3935 92.0331 29.5654C92.0367 31.7156 93.8771 33.451 96.1183 33.4582C98.3742 33.451 100.204 31.7156 100.204 29.5654C100.204 27.4152 98.3742 25.6618 96.1183 25.6582ZM96.06 31.676C94.8939 31.676 94.0047 30.7307 94.0047 29.5654C94.0047 28.4001 94.9449 27.4368 96.1183 27.4368C97.2918 27.4368 98.192 28.3821 98.1956 29.5654C98.1956 30.7271 97.2371 31.676 96.06 31.676Z" fill="white"/>
<path d="M75.4369 21.4156H77.4449V16.2529H72.0259V17.9702H75.4369V21.4156Z" fill="white"/>
<path d="M81.4647 21.4156H83.4763V16.2529H78.0573V17.9702H81.4647V21.4156Z" fill="white"/>
<path d="M132.649 20.1892H130.961V15.8996H129.063V32.0984H130.961V22.1374H132.649V32.5314H134.617V15.6182H132.649V20.1892Z" fill="white"/>
<path d="M126.278 22.4291C125.827 21.4514 125.641 20.3582 125.641 19.0162V18.3776H127.918V16.5557H121.3V18.3776H123.651V19.0522C123.651 20.3222 123.483 21.3612 123.079 22.3245C122.609 23.4321 121.818 24.4278 120.557 25.4957L120.469 25.5751L121.716 26.7981L121.792 26.7404C122.419 26.2822 123.075 25.6184 123.622 24.9329C124.085 24.3557 124.475 23.7568 124.719 23.23C124.97 23.7423 125.364 24.3304 125.823 24.8788C126.355 25.521 126.956 26.1307 127.532 26.4951L127.609 26.5456L128.658 25.3045L128.574 25.2287C127.445 24.2546 126.745 23.3852 126.286 22.4255L126.278 22.4291Z" fill="white"/>
<path d="M70.3458 23.818H77.0112V25.7445H79.1869V23.818H85.958V22.0898H70.3458V23.818Z" fill="white"/>
<path d="M146.049 23.266H139.263V18.1538H144.431V16.3535H137.23V25.0121H146.049V23.266Z" fill="white"/>
<path d="M142.211 27.1406H140.182V32.5306H149.675V30.7556H142.211V27.1406Z" fill="white"/>
<path d="M149.628 20.3007V15.6143H147.623V28.0935H149.628V22.0974H152V20.3007H149.628Z" fill="white"/>
<path d="M42.569 10.3976L37.3686 8.26539L42.569 6.1332L41.6434 3.92886L36.4466 6.06104L38.6004 0.912764L36.3701 0L34.2199 5.14828L32.0662 0L29.8358 0.912764L31.9896 6.06104L26.7929 3.92886L25.8708 6.1332L31.0676 8.26539L25.8708 10.3976L26.7929 12.6019L31.9896 10.4697L29.8358 15.618L32.0662 16.5308L34.2199 11.3861L36.3701 16.5308L38.6004 15.6144L36.4466 10.4697L41.6434 12.6019L42.569 10.3976Z" fill="white"/>
<path d="M8.92126 24.7602H12.3797V15.6182H0.553955V18.6992H8.92126V24.7602Z" fill="white"/>
<path d="M22.4125 24.7602H25.8709V15.6182H14.0452V18.6992H22.4125V24.7602Z" fill="white"/>
<path d="M0 29.4902H22.4124V34.1983H25.8709V26.4092H0V29.4902Z" fill="white"/>
<path d="M8.36731 48.5862H25.8709V35.7822H8.36731V48.5862ZM11.8257 38.8633H22.4161V45.5051H11.8257V38.8633Z" fill="white"/>
<g clip-path="url(#clip1_35_12)">
<path d="M43.4641 35.0186C42.4254 34.6506 42.2287 34.4053 42.2287 33.9832C42.2287 33.5611 42.5275 33.2256 43.2381 33.2256C43.7593 33.2256 44.1055 33.3951 44.4845 33.7054L44.8562 33.2544C44.4189 32.9081 43.9743 32.7061 43.2746 32.7061C42.3052 32.7061 41.6492 33.1967 41.6492 34.0193C41.6492 34.7625 42.0282 35.1233 43.1507 35.5201C44.1018 35.8592 44.3897 36.1298 44.3897 36.606C44.3897 37.1508 43.9597 37.49 43.2709 37.49C42.7352 37.49 42.2833 37.2446 41.8897 36.873L41.5071 37.2987C41.9152 37.71 42.5457 38.0131 43.2527 38.0131C44.3351 38.0131 44.9728 37.3853 44.9728 36.5808C44.9728 35.7763 44.6193 35.4335 43.4677 35.0222L43.4641 35.0186Z" fill="#004289"/>
<path d="M47.327 33.9935C46.8204 33.9935 46.3613 34.1162 46.0187 34.3002L46.2301 34.7476C46.5471 34.5636 46.8824 34.4517 47.2905 34.4517C47.8591 34.4517 48.136 34.7295 48.136 35.3068V35.7614C47.9064 35.6351 47.5529 35.5377 47.163 35.5377C46.3941 35.5377 45.6725 35.9057 45.6725 36.7715C45.6725 37.7023 46.3102 38.0054 46.9152 38.0054C47.4764 38.0054 47.8591 37.7456 48.136 37.4534V37.926H48.69V35.2346C48.69 34.3399 48.1652 33.9863 47.327 33.9863V33.9935ZM48.136 36.9844C47.8991 37.3055 47.5201 37.5616 47.0172 37.5616C46.5398 37.5616 46.2191 37.3127 46.2191 36.7391C46.2191 36.2556 46.5617 35.9814 47.1338 35.9814C47.6076 35.9814 47.8809 36.068 48.136 36.2051V36.988V36.9844Z" fill="#004289"/>
<path d="M54.2803 35.6718V37.9302H54.8343V35.5816C54.8343 34.4559 54.3386 33.9941 53.5442 33.9941C52.9101 33.9941 52.593 34.2864 52.3634 34.6544C52.1776 34.2864 51.8459 33.9941 51.2957 33.9941C50.8365 33.9941 50.5085 34.2142 50.308 34.5461V34.0771H49.7468V37.9338H50.308V35.6754C50.308 34.8203 50.6397 34.4704 51.1754 34.4704C51.7111 34.4704 52.0136 34.7915 52.0136 35.6754V37.9338H52.5712V35.6754C52.5712 34.8203 52.9101 34.4704 53.4385 34.4704C53.9997 34.4704 54.2767 34.7915 54.2767 35.6754L54.2803 35.6718Z" fill="#004289"/>
<path d="M57.0683 35.6859C56.4087 35.39 56.2119 35.2638 56.2119 34.9355C56.2119 34.6541 56.4451 34.4592 56.8569 34.4592C57.2687 34.4592 57.5238 34.5675 57.8263 34.8056L58.1361 34.3979C57.8409 34.1562 57.4254 33.9902 56.8933 33.9902C56.1827 33.9902 55.6762 34.3871 55.6762 34.9715C55.6762 35.5885 56.0005 35.823 56.784 36.1549C57.4728 36.4471 57.7024 36.6239 57.7024 36.9414C57.7024 37.3166 57.4509 37.5367 56.9152 37.5367C56.5289 37.5367 56.1645 37.3815 55.8547 37.111L55.5267 37.5114C55.8985 37.8072 56.3649 38.0057 56.9006 38.0057C57.5748 38.0057 58.2344 37.6774 58.2344 36.9161C58.2344 36.227 57.8044 36.0142 57.0646 35.6823L57.0683 35.6859Z" fill="#004289"/>
<path d="M61.4852 36.3281C61.4852 37.1723 61.0588 37.5295 60.5231 37.5295C59.8962 37.5295 59.601 37.1579 59.601 36.3281V34.0732H59.0471V36.4219C59.0471 37.5295 59.5901 38.0093 60.4101 38.0093C60.9021 38.0093 61.2629 37.782 61.4852 37.4573V37.9299H62.0427V34.0732H61.4852V36.3281Z" fill="#004289"/>
<path d="M65.9785 37.9302V35.5816C65.9785 34.4704 65.4355 33.9941 64.6119 33.9941C64.1236 33.9941 63.7591 34.2214 63.5405 34.5461V34.0771H62.9792V37.9338H63.5405V35.6754C63.5405 34.8311 63.9596 34.4704 64.4989 34.4704C65.1221 34.4704 65.4209 34.8456 65.4209 35.6754V37.9338H65.9785V37.9302Z" fill="#004289"/>
<path d="M67.7314 38.9257L67.91 39.3442C69.3568 39.3009 69.8816 38.7417 69.8816 37.58V34.0696H69.324V34.5025C69.0507 34.1923 68.7154 33.9902 68.2271 33.9902C67.4107 33.9902 66.7548 34.6937 66.7548 36.0611C66.7548 37.4284 67.3743 38.0057 68.1505 38.0057C68.679 38.0057 69.0507 37.7459 69.324 37.4537V37.6521C69.324 38.5504 69.0288 38.8896 67.7278 38.922L67.7314 38.9257ZM68.2927 37.5294C67.6768 37.5294 67.305 37.0244 67.305 36.0539C67.305 35.0184 67.6221 34.4665 68.2708 34.4665C68.7336 34.4665 69.109 34.7226 69.324 35.0437V36.9739C69.0507 37.313 68.7081 37.5294 68.2927 37.5294Z" fill="#004289"/>
<path d="M76.0259 35.3214C76.0259 33.5572 75.0201 32.7852 73.6571 32.7852H72.2832V37.9298H73.5551C74.9435 37.9298 76.0259 37.1866 76.0259 35.3214ZM72.8626 33.3047H73.6134C74.8087 33.3047 75.4465 34.0262 75.4465 35.3395C75.4465 36.8186 74.7467 37.4067 73.6279 37.4067H72.8626V33.3047Z" fill="#004289"/>
<path d="M77.5091 34.55V34.0738H76.9515V37.9305H77.5091V35.6648C77.5091 34.9288 77.8152 34.4995 78.3582 34.4995C78.617 34.4995 78.7846 34.5572 78.9413 34.6474L79.0798 34.0918C78.9486 34.0341 78.7628 33.998 78.4712 33.998C78.0521 33.998 77.684 34.247 77.5091 34.5536V34.55Z" fill="#004289"/>
<path d="M82.4107 37.5625L82.1483 37.1657C81.7912 37.4002 81.5252 37.5337 81.0696 37.5337C80.4355 37.5337 80.0383 37.0105 79.9873 36.1916H82.582C82.6002 36.1014 82.6075 36.022 82.6075 35.8921C82.6075 34.7918 82.0536 33.998 81.0368 33.998C80.1112 33.998 79.4297 34.7593 79.4297 35.9823C79.4297 37.5012 80.297 38.0135 81.0113 38.0135C81.598 38.0135 81.9406 37.8584 82.4107 37.5661V37.5625ZM81.0368 34.4707C81.7183 34.4707 82.0463 34.9938 82.09 35.7406H79.9873C80.0529 34.8783 80.4574 34.4707 81.0368 34.4707Z" fill="#004289"/>
<path d="M84.466 38.0093C85.0236 38.0093 85.4063 37.7495 85.6796 37.4573V37.9299H86.2372V35.2385C86.2372 34.3438 85.7124 33.9902 84.8742 33.9902C84.3676 33.9902 83.9085 34.1129 83.5659 34.2969L83.7736 34.7443C84.0943 34.5603 84.426 34.4484 84.8341 34.4484C85.4063 34.4484 85.6796 34.7262 85.6796 35.3035V35.758C85.45 35.6318 85.1001 35.5344 84.7102 35.5344C83.9376 35.5344 83.2124 35.9024 83.2124 36.7682C83.2124 37.699 83.8538 38.0021 84.4624 38.0021L84.466 38.0093ZM84.6811 35.9781C85.1548 35.9781 85.4318 36.0647 85.6832 36.2018V36.9847C85.4464 37.3058 85.0673 37.5619 84.5644 37.5619C84.0907 37.5619 83.7663 37.313 83.7663 36.7394C83.7663 36.2559 84.1125 35.9817 84.6811 35.9817V35.9781Z" fill="#004289"/>
<path d="M91.8275 35.6718V37.9302H92.3851V35.5816C92.3851 34.4559 91.8895 33.9941 91.095 33.9941C90.4646 33.9941 90.1439 34.2864 89.9179 34.6544C89.732 34.2864 89.4004 33.9941 88.8501 33.9941C88.3873 33.9941 88.063 34.2142 87.8625 34.5461V34.0771H87.3086V37.9338H87.8625V35.6754C87.8625 34.8203 88.1978 34.4704 88.7335 34.4704C89.2692 34.4704 89.5753 34.7915 89.5753 35.6754V37.9338H90.1293V35.6754C90.1293 34.8203 90.4682 34.4704 91.0003 34.4704C91.5615 34.4704 91.8385 34.7915 91.8385 35.6754L91.8275 35.6718Z" fill="#004289"/>
<path d="M43.4641 42.6703C42.4218 42.3023 42.2323 42.0606 42.2323 41.6349C42.2323 41.2092 42.5311 40.8808 43.2418 40.8808C43.7629 40.8808 44.1128 41.0468 44.4881 41.3571L44.8598 40.9097C44.4225 40.567 43.9743 40.3613 43.2782 40.3613C42.3052 40.3613 41.6529 40.8448 41.6529 41.6746C41.6529 42.4178 42.0319 42.7749 43.1543 43.1718C44.1055 43.5145 44.3934 43.7815 44.3934 44.2613C44.3934 44.8025 43.9633 45.1416 43.2709 45.1416C42.7352 45.1416 42.2833 44.8963 41.8897 44.5247L41.5071 44.9504C41.9152 45.3617 42.5457 45.6611 43.2527 45.6611C44.3351 45.6611 44.9692 45.037 44.9692 44.2289C44.9692 43.4207 44.6157 43.0816 43.4677 42.6703H43.4641Z" fill="#004289"/>
<path d="M47.3344 42.1224C47.728 42.1224 47.9867 42.2595 48.2673 42.5121L48.6026 42.1008C48.2965 41.8338 47.892 41.6426 47.3708 41.6426C46.5545 41.6426 45.6908 42.2451 45.6908 43.6701C45.6908 45.0158 46.4743 45.658 47.3307 45.658C47.8774 45.658 48.2564 45.4524 48.5844 45.1205L48.2491 44.7705C47.9831 45.0267 47.7316 45.1782 47.3526 45.1782C46.6638 45.1782 46.252 44.5685 46.252 43.6196C46.252 42.6708 46.7221 42.1152 47.3307 42.1152L47.3344 42.1224Z" fill="#004289"/>
<path d="M50.9823 41.6458C50.4939 41.6458 50.1258 41.8731 49.9035 42.1978V40.3867H49.3496V45.5891H49.9035V43.3307C49.9035 42.4864 50.3299 42.1257 50.8693 42.1257C51.4961 42.1257 51.7913 42.4973 51.7913 43.3307V45.5891H52.3489V43.2332C52.3489 42.1257 51.8059 41.6458 50.9823 41.6458Z" fill="#004289"/>
<path d="M54.8343 41.6465C53.8868 41.6465 53.1324 42.35 53.1324 43.6596C53.1324 44.9692 53.8577 45.6655 54.8052 45.6655C55.7527 45.6655 56.5144 44.9404 56.5144 43.6308C56.5144 42.3211 55.7819 41.6465 54.8343 41.6465ZM54.8234 45.1857C54.1456 45.1857 53.69 44.659 53.69 43.6452C53.69 42.6314 54.1456 42.1263 54.8234 42.1263C55.5012 42.1263 55.9568 42.6314 55.9568 43.6452C55.9568 44.659 55.4976 45.1857 54.8234 45.1857Z" fill="#004289"/>
<path d="M57.9101 40.3838H57.3525V45.5862H57.9101V40.3838Z" fill="#004289"/>
<path d="M60.4574 41.6465C59.9508 41.6465 59.4916 41.7728 59.1527 41.9568L59.3605 42.4077C59.6812 42.2237 60.0164 42.1119 60.4246 42.1119C60.9931 42.1119 61.2701 42.3933 61.2701 42.9633V43.4215C61.0405 43.2952 60.6906 43.1978 60.3007 43.1978C59.5281 43.1978 58.8065 43.5658 58.8065 44.4353C58.8065 45.3661 59.4443 45.6655 60.0529 45.6655C60.6104 45.6655 60.9931 45.4094 61.2701 45.1172V45.5898H61.8276V42.902C61.8276 42 61.2992 41.6501 60.461 41.6501L60.4574 41.6465ZM61.2664 44.6373C61.0332 44.9548 60.6469 45.2146 60.1476 45.2146C59.6739 45.2146 59.3532 44.9656 59.3532 44.392C59.3532 43.9049 59.6957 43.638 60.2679 43.638C60.7416 43.638 61.015 43.7173 61.2664 43.858V44.6373Z" fill="#004289"/>
<path d="M63.4421 42.2051V41.7216H62.8845V45.582H63.4421V43.3163C63.4421 42.5839 63.7409 42.1474 64.2876 42.1474C64.55 42.1474 64.7176 42.2051 64.8743 42.2953L65.0164 41.7361C64.8816 41.6784 64.6994 41.6387 64.4078 41.6387C63.9924 41.6387 63.617 41.8876 63.4457 42.2015L63.4421 42.2051Z" fill="#004289"/>
<path d="M67.152 43.3421C66.4924 43.0463 66.2919 42.9128 66.2919 42.5917C66.2919 42.3139 66.5288 42.1155 66.937 42.1155C67.3451 42.1155 67.6075 42.2273 67.91 42.4618L68.2198 42.0578C67.9209 41.816 67.5091 41.6465 66.9734 41.6465C66.2664 41.6465 65.7526 42.0433 65.7526 42.6314C65.7526 43.2195 66.0806 43.4828 66.8605 43.8111C67.5492 44.1034 67.7788 44.2838 67.7788 44.5976C67.7788 44.9764 67.5274 45.1929 66.9953 45.1929C66.6053 45.1929 66.2446 45.0378 65.9312 44.7672L65.6068 45.1713C65.9785 45.4671 66.445 45.6619 66.9807 45.6619C67.6549 45.6619 68.3145 45.33 68.3145 44.576C68.3145 43.8833 67.8845 43.674 67.1483 43.3421H67.152Z" fill="#004289"/>
<path d="M70.8582 41.6458C70.3626 41.6458 70.0018 41.8731 69.7795 42.1978V40.3867H69.2219V45.5891H69.7795V43.3307C69.7795 42.4864 70.2022 42.1257 70.7452 42.1257C71.3684 42.1257 71.6636 42.4973 71.6636 43.3307V45.5891H72.2212V43.2332C72.2212 42.1257 71.6818 41.6458 70.8582 41.6458Z" fill="#004289"/>
<path d="M73.8757 41.7217H73.3218V45.582H73.8757V41.7217Z" fill="#004289"/>
<path d="M73.6097 40.25C73.3838 40.25 73.2052 40.4268 73.2052 40.6505C73.2052 40.8741 73.3838 41.0401 73.6097 41.0401C73.8174 41.0401 73.996 40.8597 73.996 40.6505C73.996 40.4268 73.8174 40.25 73.6097 40.25Z" fill="#004289"/>
<path d="M76.7292 41.6465C76.2044 41.6465 75.8327 41.9062 75.5558 42.1985V41.7259H74.9982V47.004H75.5558V45.1532C75.8291 45.4599 76.1643 45.6655 76.6563 45.6655C77.469 45.6655 78.125 44.9584 78.125 43.5947C78.125 42.2309 77.5054 41.6465 76.7292 41.6465ZM76.609 45.1857C76.1498 45.1857 75.7708 44.9295 75.5558 44.6048V42.6783C75.8291 42.3428 76.1716 42.1227 76.5871 42.1227C77.2066 42.1227 77.5783 42.6278 77.5783 43.5983C77.5783 44.6337 77.2576 45.1821 76.6126 45.1821L76.609 45.1857Z" fill="#004289"/>
<path d="M81.0732 40.9609H83.5441V40.4414H80.4938V45.5861H81.0732V43.1869H82.4981V42.6674H81.0732V40.9609Z" fill="#004289"/>
<path d="M85.2351 41.6465C84.2876 41.6465 83.5295 42.35 83.5295 43.6596C83.5295 44.9692 84.2584 45.6655 85.2059 45.6655C86.1534 45.6655 86.9151 44.9404 86.9151 43.6308C86.9151 42.3211 86.1899 41.6465 85.2351 41.6465ZM85.2205 45.1857C84.5427 45.1857 84.0944 44.659 84.0944 43.6452C84.0944 42.6314 84.5463 42.1263 85.2205 42.1263C85.8947 42.1263 86.3575 42.6314 86.3575 43.6452C86.3575 44.659 85.8983 45.1857 85.2205 45.1857Z" fill="#004289"/>
<path d="M89.9872 43.9801C89.9872 44.8244 89.5681 45.1851 89.0251 45.1851C88.402 45.1851 88.1031 44.8135 88.1031 43.9801V41.7217H87.5492V44.0739C87.5492 45.1815 88.0922 45.6614 88.9158 45.6614C89.4005 45.6614 89.7649 45.4377 89.9872 45.113V45.5856H90.5485V41.7253H89.9872V43.9837V43.9801Z" fill="#004289"/>
<path d="M93.114 41.6462C92.6256 41.6462 92.2612 41.8735 92.0389 42.1982V41.7256H91.4813V45.5859H92.0389V43.3274C92.0389 42.4832 92.4616 42.1224 93.0046 42.1224C93.6278 42.1224 93.923 42.494 93.923 43.3274V45.5859H94.4806V43.23C94.4806 42.1224 93.9376 41.6426 93.114 41.6426V41.6462Z" fill="#004289"/>
<path d="M97.8297 42.1624C97.5528 41.8521 97.2211 41.6429 96.7291 41.6429C95.9128 41.6429 95.2605 42.3464 95.2605 43.7174C95.2605 45.0883 95.8764 45.6619 96.6563 45.6619C97.1847 45.6619 97.5528 45.4058 97.8261 45.1136V45.5862H98.3837V40.3838H97.8261V42.1624H97.8297ZM97.8297 44.6265C97.5528 44.962 97.2138 45.1821 96.7984 45.1821C96.1825 45.1821 95.8108 44.677 95.8108 43.7065C95.8108 42.6675 96.1278 42.1191 96.7765 42.1191C97.2357 42.1191 97.6111 42.3753 97.8297 42.7V44.6229V44.6265Z" fill="#004289"/>
<path d="M100.745 41.6465C100.242 41.6465 99.7831 41.7728 99.4405 41.9568L99.6446 42.4077C99.9653 42.2237 100.301 42.1119 100.709 42.1119C101.277 42.1119 101.551 42.3933 101.551 42.9633V43.4215C101.321 43.2952 100.971 43.1978 100.578 43.1978C99.8086 43.1978 99.087 43.5658 99.087 44.4353C99.087 45.3661 99.7284 45.6655 100.337 45.6655C100.895 45.6655 101.277 45.4094 101.551 45.1172V45.5898H102.108V42.902C102.108 42 101.583 41.6501 100.742 41.6501L100.745 41.6465ZM101.551 44.6373C101.314 44.9548 100.938 45.2146 100.428 45.2146C99.958 45.2146 99.641 44.9656 99.641 44.392C99.641 43.9049 99.9799 43.638 100.552 43.638C101.026 43.638 101.303 43.7173 101.551 43.858V44.6373Z" fill="#004289"/>
<path d="M103.887 40.3838H103.325V41.7223H102.844V42.1877H103.325V44.7889C103.325 45.4274 103.588 45.6583 104.072 45.6583C104.364 45.6583 104.572 45.615 104.787 45.5285L104.827 45.0522C104.648 45.1244 104.502 45.1605 104.276 45.1605C103.981 45.1605 103.887 45.0414 103.887 44.6987V42.1877H104.852V41.7223H103.887V40.3838Z" fill="#004289"/>
<path d="M106.117 40.25C105.887 40.25 105.705 40.4268 105.705 40.6505C105.705 40.8741 105.887 41.0401 106.117 41.0401C106.325 41.0401 106.5 40.8597 106.5 40.6505C106.5 40.4268 106.321 40.25 106.117 40.25Z" fill="#004289"/>
<path d="M106.383 41.7217H105.825V45.582H106.383V41.7217Z" fill="#004289"/>
<path d="M108.927 41.6465C107.979 41.6465 107.221 42.35 107.221 43.6596C107.221 44.9692 107.946 45.6655 108.897 45.6655C109.849 45.6655 110.603 44.9404 110.603 43.6308C110.603 42.3211 109.874 41.6465 108.927 41.6465ZM108.912 45.1857C108.238 45.1857 107.782 44.659 107.782 43.6452C107.782 42.6314 108.238 42.1263 108.912 42.1263C109.586 42.1263 110.049 42.6314 110.049 43.6452C110.049 44.659 109.59 45.1857 108.912 45.1857Z" fill="#004289"/>
<path d="M113.041 41.6462C112.553 41.6462 112.188 41.8735 111.962 42.1982V41.7256H111.405V45.5859H111.962V43.3274C111.962 42.4832 112.385 42.1224 112.928 42.1224C113.551 42.1224 113.85 42.494 113.85 43.3274V45.5859H114.404V43.23C114.404 42.1224 113.861 41.6426 113.041 41.6426V41.6462Z" fill="#004289"/>
<path d="M62.9465 22.6582C60.7089 22.6618 58.8649 24.3935 58.8649 26.5654C58.8649 28.7373 60.7089 30.451 62.9465 30.4582C65.2059 30.451 67.0317 28.7156 67.0317 26.5654C67.0317 24.4152 65.2059 22.6618 62.9465 22.6582ZM62.8918 28.676C61.722 28.676 60.8401 27.7307 60.8401 26.5654C60.8401 25.4001 61.7839 24.4368 62.9501 24.4368C64.1163 24.4368 65.0274 25.3821 65.0274 26.5654C65.0274 27.7488 64.0726 28.676 62.8955 28.676H62.8918Z" fill="#004289"/>
<path d="M44.2184 19.9704C44.8416 20.5801 45.5559 21.114 46.2592 21.4568L46.3321 21.4964L47.5384 20.0858L47.4218 20.0209C46.2775 19.4076 45.381 18.6319 44.7942 17.6542C44.2112 16.6909 43.9123 15.5725 43.9123 14.234V12.9785H41.7549V14.1005C41.7549 15.5509 41.4233 16.6909 40.8001 17.6903C40.104 18.7978 39.0727 19.689 37.7535 20.5151L37.6368 20.5873L38.9451 21.9294L39.018 21.8897C39.7979 21.4712 40.6252 20.8254 41.3431 20.1038C41.9663 19.4725 42.5056 18.7978 42.8336 18.1593C43.1507 18.787 43.6354 19.4256 44.2184 19.974V19.9704Z" fill="#004289"/>
<path d="M41.8824 29.5347H50.913V23.4268H41.8824V29.5347ZM43.9123 25.1513H48.8831V27.8102H43.9123V25.1513Z" fill="#004289"/>
<path d="M71.9916 29.5347H82.2029V23.4268H71.9916V29.5347ZM73.9996 25.1513H80.1985V27.8102H73.9996V25.1513Z" fill="#004289"/>
<path d="M50.9494 12.6182H48.9414V22.7271H50.9494V18.2535H53.3V16.4568H50.9494V12.6182Z" fill="#004289"/>
<path d="M92.5819 20.4861C93.2415 21.0525 93.9959 21.5287 94.7065 21.8354L94.7794 21.8678L95.8654 20.4139L95.7488 20.3562C94.7138 19.8331 93.7918 19.1837 93.1285 18.39C92.4543 17.5818 92.0535 16.6077 92.0535 15.4352V15.0925H95.0418V13.3535H86.9296V15.0925H89.9143V15.511C89.9143 16.5789 89.5571 17.5746 88.9631 18.4369C88.267 19.4723 87.2503 20.3057 86.2627 20.8468L86.1315 20.9154L87.4653 22.2827L87.5382 22.2467C88.2561 21.8426 89.0506 21.2329 89.7284 20.5474C90.2714 19.9846 90.7597 19.3893 91.0586 18.794C91.4193 19.3713 91.9733 19.9485 92.5855 20.4861H92.5819Z" fill="#004289"/>
<path d="M107.104 25.1913H114.404V29.5314H116.43V23.4668H107.104V25.1913Z" fill="#004289"/>
<path d="M112.141 18.2386C112.141 17.2825 111.707 16.4022 111.066 15.7312H113.07V14.0103H109.244V12.1162H107.068V14.0103H103.15V15.7312H105.198C104.572 16.4022 104.138 17.2753 104.138 18.2386C104.138 20.3708 105.913 22.1025 108.132 22.1097C110.352 22.1025 112.137 20.3708 112.141 18.2386ZM106.073 18.1592C106.073 16.9795 107.079 15.9801 108.132 15.9801C109.185 15.9801 110.188 16.9831 110.191 18.1592C110.191 19.3209 109.185 20.3239 108.132 20.3275C107.075 20.3239 106.077 19.3209 106.073 18.1592Z" fill="#004289"/>
<path d="M116.43 12.6182H114.426V22.7632H116.43V18.8921H118.788V17.0954H116.43V12.6182Z" fill="#004289"/>
<path d="M99.4222 12.6182H97.4178V22.7632H99.4222V18.2535H101.776V16.4568H99.4222V12.6182Z" fill="#004289"/>
<path d="M65.3991 15.627H62.2432V17.4057H65.3991V23.0843H67.4071V12.6182H65.3991V15.627Z" fill="#004289"/>
<path d="M60.3007 20.2337C60.9275 20.8398 61.66 21.3738 62.3597 21.7346L62.4363 21.7779L63.6425 20.3672L63.5259 20.3023C62.3816 19.707 61.5033 18.9349 60.9129 17.9717C60.3153 17.0156 60.0164 15.8539 60.0164 14.5154V12.9785H57.8554V14.3855C57.8554 15.8359 57.5274 16.9723 56.9188 17.9536C56.2264 19.0792 55.1732 19.9776 53.8539 20.7965L53.741 20.8687L55.0566 22.2144L55.1222 22.1711C55.8984 21.749 56.7074 21.1393 57.4254 20.443C58.074 19.8044 58.6134 19.1081 58.9414 18.4407C59.2511 19.0504 59.7249 19.6709 60.3007 20.2373V20.2337Z" fill="#004289"/>
<path d="M95.1183 22.6582C92.8807 22.6618 91.0367 24.3935 91.0331 26.5654C91.0367 28.7156 92.8771 30.451 95.1183 30.4582C97.3742 30.451 99.2036 28.7156 99.2036 26.5654C99.2036 24.4152 97.3742 22.6618 95.1183 22.6582ZM95.06 28.676C93.8939 28.676 93.0047 27.7307 93.0047 26.5654C93.0047 25.4001 93.9449 24.4368 95.1183 24.4368C96.2918 24.4368 97.192 25.3821 97.1956 26.5654C97.1956 27.7271 96.2371 28.676 95.06 28.676Z" fill="#004289"/>
<path d="M74.4369 18.4156H76.4449V13.2529H71.0259V14.9702H74.4369V18.4156Z" fill="#004289"/>
<path d="M80.4647 18.4156H82.4763V13.2529H77.0573V14.9702H80.4647V18.4156Z" fill="#004289"/>
<path d="M131.649 17.1892H129.961V12.8996H128.063V29.0984H129.961V19.1374H131.649V29.5314H133.617V12.6182H131.649V17.1892Z" fill="#004289"/>
<path d="M125.278 19.4291C124.827 18.4514 124.641 17.3582 124.641 16.0162V15.3776H126.918V13.5557H120.3V15.3776H122.651V16.0522C122.651 17.3222 122.483 18.3612 122.079 19.3245C121.609 20.4321 120.818 21.4278 119.557 22.4957L119.469 22.5751L120.716 23.7981L120.792 23.7404C121.419 23.2822 122.075 22.6184 122.622 21.9329C123.085 21.3557 123.475 20.7568 123.719 20.23C123.97 20.7423 124.364 21.3304 124.823 21.8788C125.355 22.521 125.956 23.1307 126.532 23.4951L126.609 23.5456L127.658 22.3045L127.574 22.2287C126.445 21.2546 125.745 20.3852 125.286 19.4255L125.278 19.4291Z" fill="#004289"/>
<path d="M69.3458 20.8189H76.0112V22.7455H78.1869V20.8189H84.958V19.0908H69.3458V20.8189Z" fill="#004289"/>
<path d="M145.049 20.266H138.263V15.1538H143.431V13.3535H136.23V22.0121H145.049V20.266Z" fill="#004289"/>
<path d="M141.211 24.1416H139.182V29.5316H148.675V27.7566H141.211V24.1416Z" fill="#004289"/>
<path d="M148.628 17.3007V12.6143H146.623V25.0935H148.628V19.0974H151V17.3007H148.628Z" fill="#004289"/>
<path d="M41.569 7.39758L36.3686 5.26539L41.569 3.1332L40.6434 0.928855L35.4466 3.06104L37.6004 -2.08724L35.3701 -3L33.2199 2.14828L31.0662 -3L28.8358 -2.08724L30.9896 3.06104L25.7929 0.928855L24.8708 3.1332L30.0676 5.26539L24.8708 7.39758L25.7929 9.60192L30.9896 7.46973L28.8358 12.618L31.0662 13.5308L33.2199 8.3861L35.3701 13.5308L37.6004 12.6144L35.4466 7.46973L40.6434 9.60192L41.569 7.39758Z" fill="#009FE3"/>
<path d="M7.92126 21.7602H11.3797V12.6182H-0.446045V15.6992H7.92126V21.7602Z" fill="#009FE3"/>
<path d="M21.4125 21.7602H24.8709V12.6182H13.0452V15.6992H21.4125V21.7602Z" fill="#009FE3"/>
<path d="M-1 26.4902H21.4124V31.1983H24.8709V23.4092H-1V26.4902Z" fill="#009FE3"/>
<path d="M7.36731 45.5862H24.8709V32.7822H7.36731V45.5862ZM10.8257 35.8633H21.4161V42.5051H10.8257V35.8633Z" fill="#009FE3"/>
</g>
</g>
<defs>
<clipPath id="clip0_35_12">
<rect width="152" height="50" fill="white"/>
</clipPath>
<clipPath id="clip1_35_12">
<rect width="152" height="50" fill="white" transform="translate(-1 -3)"/>
</clipPath>
</defs>
</svg>
