<svg width="40" height="54" viewBox="0 0 40 54" fill="none" xmlns="http://www.w3.org/2000/svg">
<g clip-path="url(#clip0_22_269)">
<path d="M37.5986 6.118V5.94485C37.5986 2.66652 34.7912 0 31.3573 0H6.2413C2.79582 0 0 2.66652 0 5.94485V48.0552C0 51.3335 2.79582 54 6.2413 54H33.7587C37.2042 54 40 51.5413 40 48.5169V10.4352C40 8.72681 39.1067 7.14536 37.5986 6.118ZM38.0046 48.5169C38.0046 50.4446 36.1021 52.0145 33.7587 52.0145H6.2413C3.89791 52.0145 1.99536 50.2369 1.99536 48.0552V5.94485C1.99536 3.76315 3.89791 1.98546 6.2413 1.98546H31.3573C33.7007 1.98546 35.6032 3.76315 35.6032 5.94485V6.67208C35.6032 7.02993 35.7889 7.36469 36.1137 7.53784C37.297 8.18427 38.0046 9.26935 38.0046 10.4352V48.5169Z" fill="#529CF3"/>
<path d="M34.7912 5.25212C34.4547 4.61723 33.7355 3.79765 32.1346 3.48598C32.0766 3.47443 32.007 3.46289 31.9373 3.46289H7.48259C7.42459 3.46289 7.36658 3.46289 7.30858 3.46289C7.09976 3.50906 5.27841 3.86691 4.89558 5.32138C4.46635 6.96054 6.25289 8.42655 6.84454 8.91137C7.01855 9.04989 7.25057 9.1307 7.48259 9.1307H12.3782V25.7416C12.3782 26.1457 12.6218 26.5035 12.9814 26.6536C13.109 26.7113 13.2483 26.7344 13.3759 26.7344C13.6311 26.7344 13.8747 26.642 14.0603 26.4573L18.2018 22.5326L22.529 26.4804C22.8306 26.7459 23.2483 26.8152 23.6079 26.6536C23.9675 26.492 24.1995 26.1341 24.1995 25.7416V9.14224H33.9095C34.3039 9.14224 34.6636 8.91137 34.826 8.54198C34.9072 8.35729 35.5684 6.71813 34.7912 5.25212ZM33.1438 7.15678H23.2018C22.6566 7.15678 22.2042 7.60697 22.2042 8.14951V23.5022L18.8515 20.4548C18.6659 20.2816 18.4223 20.2008 18.1786 20.2008C17.935 20.2008 17.6914 20.2932 17.4942 20.4779L14.3735 23.433V8.14951C14.3735 7.60697 13.9327 7.15678 13.3759 7.15678H7.84222C6.83294 6.26794 6.82134 5.86392 6.82134 5.82929C6.86774 5.7254 7.22737 5.52916 7.5754 5.44835H31.8329C32.4478 5.58687 32.8422 5.82929 33.0278 6.16405C33.1786 6.46417 33.1902 6.83356 33.1438 7.15678Z" fill="#529CF3"/>
<path d="M20.7193 15.0293C20.6612 14.8446 20.4988 14.7177 20.3132 14.6946L18.9443 14.4983L18.3295 13.2517C18.2483 13.09 18.0742 12.9746 17.877 12.9746C17.6914 12.9746 17.5174 13.09 17.4362 13.2517L16.8213 14.4983L15.4524 14.6946C15.2668 14.7177 15.1044 14.8446 15.0464 15.0293C14.9884 15.214 15.0348 15.4103 15.174 15.5372L16.1601 16.4953L15.9281 17.8575C15.8933 18.0422 15.9745 18.2384 16.1253 18.3423C16.2181 18.4115 16.3225 18.4346 16.4153 18.4346C16.4965 18.4346 16.5777 18.4231 16.6473 18.3885L17.877 17.742L19.1067 18.3885C19.2691 18.4693 19.478 18.4577 19.6288 18.3423C19.7912 18.2384 19.8608 18.0422 19.8376 17.8575L19.594 16.4953L20.5916 15.5372C20.7192 15.4103 20.7773 15.214 20.7193 15.0293ZM18.7123 15.9759C18.5963 16.0798 18.5383 16.2529 18.5731 16.4145L18.6775 17.0379L18.109 16.7378C18.0394 16.7031 17.9582 16.68 17.877 16.68C17.8074 16.68 17.7146 16.7031 17.645 16.7378L17.0882 17.0379L17.1926 16.4145C17.2158 16.2529 17.1694 16.0798 17.0534 15.9759L16.5893 15.5257L17.2274 15.4334C17.3898 15.4103 17.529 15.3179 17.5986 15.1679L17.877 14.6022L18.167 15.1679C18.2367 15.3179 18.3759 15.4103 18.5383 15.4334L19.1647 15.5257L18.7123 15.9759Z" fill="#529CF3"/>
<path d="M18.7123 15.9762C18.5963 16.0801 18.5383 16.2532 18.5731 16.4149L18.6775 17.0382L18.1091 16.7381C18.0395 16.7034 17.9583 16.6804 17.8771 16.6804C17.8075 16.6804 17.7146 16.7034 17.645 16.7381L17.0882 17.0382L17.1926 16.4149C17.2158 16.2532 17.1694 16.0801 17.0534 15.9762L16.5894 15.526L17.2274 15.4337C17.3898 15.4106 17.529 15.3182 17.5986 15.1682L17.8771 14.6025L18.1671 15.1682C18.2367 15.3182 18.3759 15.4106 18.5383 15.4337L19.1648 15.526L18.7123 15.9762Z" fill="#8BD3EB"/>
</g>
<defs>
<clipPath id="clip0_22_269">
<rect width="40" height="54" fill="white"/>
</clipPath>
</defs>
</svg>
