<svg width="57" height="55" viewBox="0 0 57 55" fill="none" xmlns="http://www.w3.org/2000/svg">
<g clip-path="url(#clip0_22_259)">
<path d="M52.765 32.9313H39.6165V27.7666C39.6165 26.9713 39.4152 26.2363 39.0628 25.6322C39.2641 25.5618 39.4454 25.4208 39.5561 25.2195C39.7071 24.9376 39.687 24.5953 39.5158 24.3335L29.6092 9.36279V6.97674L35.7304 4.44974C36.0525 4.31886 36.264 3.99669 36.264 3.65439C36.264 3.31209 36.0525 2.97985 35.7304 2.84897L28.9749 0.0702786C28.7031 -0.0404664 28.4011 -0.0102632 28.1594 0.15082C27.9279 0.311904 27.7769 0.583733 27.7769 0.865629V6.43308C27.7769 6.56396 27.8171 6.69484 27.8675 6.81566V9.44333L18.0112 24.3335C17.84 24.5953 17.8199 24.9376 17.9709 25.2195C18.0816 25.4208 18.2528 25.5618 18.4642 25.6322C18.1118 26.2363 17.9004 26.9713 17.9004 27.7666V32.9313H3.28208C1.46989 32.9313 0 34.4113 0 36.2235V51.7177C0 53.5299 1.46989 54.9998 3.28208 54.9998H52.765C54.5772 54.9998 56.047 53.5299 56.047 51.7177V36.2235C56.047 34.4113 54.5772 32.9313 52.765 32.9313ZM29.5085 2.16437L33.1228 3.65439L29.5085 5.13435V2.16437ZM28.7635 11.2253L37.1801 23.9409H20.3469L28.7635 11.2253ZM30.777 53.1373H25.9445V43.5327H30.777V53.1373ZM54.3154 51.7177C54.3154 52.5735 53.6207 53.2682 52.765 53.2682H32.5087V42.6668C32.5087 42.1836 32.1261 41.801 31.6429 41.801H25.0787C24.6055 41.801 24.2129 42.1836 24.2129 42.6668V53.2682H3.28208C2.42632 53.2682 1.73165 52.5735 1.73165 51.7177V36.2235C1.73165 35.3577 2.42632 34.663 3.28208 34.663H18.7864C19.0179 34.663 19.2495 34.5623 19.4106 34.3912C19.5817 34.22 19.6623 33.9784 19.6421 33.7368V27.7666C19.6421 26.6289 20.3469 25.6725 21.1926 25.6725H36.3344C37.1801 25.6725 37.8849 26.6289 37.8849 27.7666V33.5253C37.8849 33.5958 37.8849 33.6663 37.8748 33.7368C37.8647 33.9784 37.9453 34.2099 38.1063 34.3912C38.2674 34.5623 38.499 34.663 38.7406 34.663H52.765C53.6207 34.663 54.3154 35.3577 54.3154 36.2235V51.7177Z" fill="#529CF3"/>
<path d="M37.1802 23.9411H20.3469L28.7635 11.2256L37.1802 23.9411Z" fill="#8BD3EB"/>
<path d="M27.2432 29.2969H22.9141C22.6725 29.2969 22.4812 29.4882 22.4812 29.7298V34.0589C22.4812 34.3005 22.6725 34.4918 22.9141 34.4918H27.2432C27.4849 34.4918 27.6761 34.3005 27.6761 34.0589V29.7298C27.6761 29.4882 27.4849 29.2969 27.2432 29.2969ZM26.8103 33.626H23.347V30.1627H26.8103V33.626Z" fill="#529CF3"/>
<path d="M34.1799 29.2969H29.8508C29.6091 29.2969 29.4178 29.4882 29.4178 29.7298V34.0589C29.4178 34.3005 29.6091 34.4918 29.8508 34.4918H34.1799C34.4215 34.4918 34.6128 34.3005 34.6128 34.0589V29.7298C34.6128 29.4882 34.4215 29.2969 34.1799 29.2969ZM33.747 33.626H30.2837V30.1627H33.747V33.626Z" fill="#529CF3"/>
<path d="M11.0141 41.5293H6.68499C6.44336 41.5293 6.25208 41.7206 6.25208 41.9622V46.2913C6.25208 46.533 6.44336 46.7242 6.68499 46.7242H11.0141C11.2557 46.7242 11.447 46.533 11.447 46.2913V41.9622C11.447 41.7206 11.2557 41.5293 11.0141 41.5293ZM10.5812 45.8584H7.1179V42.3951H10.5812V45.8584Z" fill="#529CF3"/>
<path d="M17.9508 41.5293H13.6216C13.38 41.5293 13.1887 41.7206 13.1887 41.9622V46.2913C13.1887 46.533 13.38 46.7242 13.6216 46.7242H17.9508C18.1924 46.7242 18.3837 46.533 18.3837 46.2913V41.9622C18.3837 41.7206 18.1924 41.5293 17.9508 41.5293ZM17.5178 45.8584H14.0545V42.3951H17.5178V45.8584Z" fill="#529CF3"/>
<path d="M43.2006 41.5293H38.8715C38.6299 41.5293 38.4386 41.7206 38.4386 41.9622V46.2913C38.4386 46.533 38.6299 46.7242 38.8715 46.7242H43.2006C43.4423 46.7242 43.6335 46.533 43.6335 46.2913V41.9622C43.6335 41.7206 43.4423 41.5293 43.2006 41.5293ZM42.7677 45.8584H39.3044V42.3951H42.7677V45.8584Z" fill="#529CF3"/>
<path d="M50.1373 41.5293H45.8082C45.5665 41.5293 45.3752 41.7206 45.3752 41.9622V46.2913C45.3752 46.533 45.5665 46.7242 45.8082 46.7242H50.1373C50.3789 46.7242 50.5702 46.533 50.5702 46.2913V41.9622C50.5702 41.7206 50.3789 41.5293 50.1373 41.5293ZM49.7044 45.8584H46.2411V42.3951H49.7044V45.8584Z" fill="#529CF3"/>
</g>
<defs>
<clipPath id="clip0_22_259">
<rect width="56.047" height="55" fill="white"/>
</clipPath>
</defs>
</svg>
