<svg id="call_icon" xmlns="http://www.w3.org/2000/svg" xmlns:xlink="http://www.w3.org/1999/xlink" width="56.547" height="56.547" viewBox="0 0 56.547 56.547">
  <defs>
    <clipPath id="clip-path">
      <rect id="사각형_84" data-name="사각형 84" width="56.547" height="56.547" fill="none"/>
    </clipPath>
  </defs>
  <g id="그룹_31" data-name="그룹 31" clip-path="url(#clip-path)">
    <path id="패스_125" data-name="패스 125" d="M56.547,28.273A28.281,28.281,0,0,1,2.222,39.278a28.281,28.281,0,0,1,52.1-22.011,28.1,28.1,0,0,1,2.222,11.005" transform="translate(0 0.001)" fill="#5cc144"/>
    <path id="패스_126" data-name="패스 126" d="M251.8,215.722l-1.266,1.643a2.475,2.475,0,0,1-1.805.963c-1.6.1-5.054-.314-9.736-3.026a30.631,30.631,0,0,1-13.983-17.569c-1.536-5.056-1.133-8.411-.684-9.943a2.481,2.481,0,0,1,1.337-1.548l1.881-.872a1.723,1.723,0,0,1,2.182.643l4.7,7.455a1.722,1.722,0,0,1-.538,2.376l-2.092,1.321a.683.683,0,0,0-.294.762q.04.142.093.321a18.326,18.326,0,0,0,8.533,10.679c.108.061.206.115.293.162a.684.684,0,0,0,.808-.118l1.75-1.75a1.723,1.723,0,0,1,2.436,0l6.233,6.233a1.724,1.724,0,0,1,.147,2.27" transform="translate(-209.763 -173.501)" fill="#fff"/>
  </g>
</svg>
