<svg id="cat_icon" xmlns="http://www.w3.org/2000/svg" xmlns:xlink="http://www.w3.org/1999/xlink" width="68.44" height="63.76" viewBox="0 0 68.44 63.76">
  <defs>
    <clipPath id="clip-path">
      <rect id="사각형_23" data-name="사각형 23" width="68.44" height="63.76" fill="none"/>
    </clipPath>
    <clipPath id="clip-path-3">
      <rect id="사각형_20" data-name="사각형 20" width="6.131" height="3.187" fill="none"/>
    </clipPath>
    <clipPath id="clip-path-4">
      <rect id="사각형_21" data-name="사각형 21" width="3.999" height="1.056" fill="none"/>
    </clipPath>
  </defs>
  <g id="그룹_10" data-name="그룹 10" clip-path="url(#clip-path)">
    <g id="그룹_9" data-name="그룹 9" transform="translate(0 0)">
      <g id="그룹_8" data-name="그룹 8" clip-path="url(#clip-path)">
        <path id="패스_5" data-name="패스 5" d="M10.512,31.445C7.59,24.354,6.28,12.635,6.739,5.234c.181-2.918,1.8-3.889,4.666-2.8,6.078,2.311,16.962,8.89,20.679,14.364a4.055,4.055,0,0,1-.067,4.723c-2.966,4.113-10.781,10.387-16.39,12.261a4.114,4.114,0,0,1-5.114-2.337" transform="translate(-3.106 -0.934)" fill="#fff" fill-rule="evenodd"/>
        <path id="패스_6" data-name="패스 6" d="M10.512,31.445C7.59,24.354,6.28,12.635,6.739,5.234c.181-2.918,1.8-3.889,4.666-2.8,6.078,2.311,16.962,8.89,20.679,14.364a4.055,4.055,0,0,1-.067,4.723c-2.966,4.113-10.781,10.387-16.39,12.261A4.114,4.114,0,0,1,10.512,31.445Z" transform="translate(-3.106 -0.934)" fill="none" stroke="#fff" stroke-miterlimit="10" stroke-width="4"/>
        <path id="패스_7" data-name="패스 7" d="M18.9,34.76c-1.8-4.363-2.6-12.387-2.322-16.941.111-1.8,1.108-2.393,2.871-1.723,3.74,1.422,11.177,5.693,13.464,9.061a2.5,2.5,0,0,1-.041,2.906c-1.825,2.531-7.374,6.983-10.825,8.136A2.531,2.531,0,0,1,18.9,34.76" transform="translate(-7.716 -7.394)" fill="#fff" fill-rule="evenodd"/>
        <path id="패스_8" data-name="패스 8" d="M18.9,34.76c-1.8-4.363-2.6-12.387-2.322-16.941.111-1.8,1.108-2.393,2.871-1.723,3.74,1.422,11.177,5.693,13.464,9.061a2.5,2.5,0,0,1-.041,2.906c-1.825,2.531-7.374,6.983-10.825,8.136A2.531,2.531,0,0,1,18.9,34.76Z" transform="translate(-7.716 -7.394)" fill="none" stroke="#fff" stroke-miterlimit="10" stroke-width="4"/>
        <path id="패스_9" data-name="패스 9" d="M94.993,31.445c2.922-7.09,4.232-18.809,3.774-26.211-.181-2.918-1.8-3.889-4.666-2.8C88.023,4.745,77.138,11.324,73.421,16.8a4.055,4.055,0,0,0,.067,4.723c2.966,4.113,10.782,10.387,16.39,12.261a4.114,4.114,0,0,0,5.114-2.337" transform="translate(-33.959 -0.934)" fill="#fff" fill-rule="evenodd"/>
        <path id="패스_10" data-name="패스 10" d="M94.993,31.445c2.922-7.09,4.232-18.809,3.774-26.211-.181-2.918-1.8-3.889-4.666-2.8C88.023,4.745,77.138,11.324,73.421,16.8a4.055,4.055,0,0,0,.067,4.723c2.966,4.113,10.782,10.387,16.39,12.261A4.114,4.114,0,0,0,94.993,31.445Z" transform="translate(-33.959 -0.934)" fill="none" stroke="#fff" stroke-miterlimit="10" stroke-width="4"/>
        <path id="패스_11" data-name="패스 11" d="M94.783,34.76c1.8-4.363,2.6-12.387,2.322-16.941-.111-1.8-1.108-2.393-2.871-1.723-3.74,1.422-11.177,5.693-13.464,9.061a2.5,2.5,0,0,0,.041,2.906c1.825,2.531,7.374,6.983,10.825,8.136a2.531,2.531,0,0,0,3.147-1.438" transform="translate(-37.522 -7.394)" fill="#fff" fill-rule="evenodd"/>
        <path id="패스_12" data-name="패스 12" d="M94.783,34.76c1.8-4.363,2.6-12.387,2.322-16.941-.111-1.8-1.108-2.393-2.871-1.723-3.74,1.422-11.177,5.693-13.464,9.061a2.5,2.5,0,0,0,.041,2.906c1.825,2.531,7.374,6.983,10.825,8.136A2.531,2.531,0,0,0,94.783,34.76Z" transform="translate(-37.522 -7.394)" fill="none" stroke="#fff" stroke-miterlimit="10" stroke-width="4"/>
        <path id="패스_13" data-name="패스 13" d="M38.352,24.841c16.618,0,29.579,15.824,29.579,29.6S54.69,74.3,38.071,74.3,7.749,68.21,7.749,54.437s13.984-29.6,30.6-29.6" transform="translate(-3.62 -11.604)" fill="#fff" fill-rule="evenodd"/>
        <path id="패스_14" data-name="패스 14" d="M38.352,24.841c16.618,0,29.579,15.824,29.579,29.6S54.69,74.3,38.071,74.3,7.749,68.21,7.749,54.437,21.733,24.841,38.352,24.841Z" transform="translate(-3.62 -11.604)" fill="none" stroke="#fff" stroke-miterlimit="10" stroke-width="4"/>
        <path id="패스_15" data-name="패스 15" d="M16.887,84.5c4.966-11.531,14.737-21,25.714-21,10.956,0,20.244,9.438,24.931,20.94-5.28,5.421-14.542,7.921-25.191,7.92-10.608,0-20.027-2.481-25.453-7.857" transform="translate(-7.889 -29.66)" fill="#fff" fill-rule="evenodd"/>
        <path id="패스_16" data-name="패스 16" d="M16.887,84.5c4.966-11.531,14.737-21,25.714-21,10.956,0,20.244,9.438,24.931,20.94-5.28,5.421-14.542,7.921-25.191,7.92C31.733,92.355,22.314,89.874,16.887,84.5Z" transform="translate(-7.889 -29.66)" fill="none" stroke="#fff" stroke-miterlimit="10" stroke-width="4"/>
        <path id="패스_17" data-name="패스 17" d="M59.2,69.808c.751-.715,4.121-1.028,5.2,0,.747.714-1.192,3.915-2.654,3.915S58.4,70.565,59.2,69.808" transform="translate(-27.566 -32.302)" fill="#fff" fill-rule="evenodd"/>
        <path id="패스_18" data-name="패스 18" d="M59.2,69.808c.751-.715,4.121-1.028,5.2,0,.747.714-1.192,3.915-2.654,3.915S58.4,70.565,59.2,69.808Z" transform="translate(-27.566 -32.302)" fill="none" stroke="#fff" stroke-miterlimit="10" stroke-width="4"/>
        <path id="패스_19" data-name="패스 19" d="M41.015,59.768c1.455-2.534,5.652-2.576,6.878,0" transform="translate(-19.16 -27.024)" fill="#fff" fill-rule="evenodd"/>
        <path id="패스_20" data-name="패스 20" d="M41.015,59.768c1.455-2.534,5.652-2.576,6.878,0" transform="translate(-19.16 -27.024)" fill="none" stroke="#fff" stroke-linecap="round" stroke-linejoin="round" stroke-width="4"/>
        <path id="패스_21" data-name="패스 21" d="M83.4,59.768c-1.455-2.534-5.652-2.576-6.878,0" transform="translate(-35.746 -27.024)" fill="#fff" fill-rule="evenodd"/>
        <path id="패스_22" data-name="패스 22" d="M83.4,59.768c-1.455-2.534-5.652-2.576-6.878,0" transform="translate(-35.746 -27.024)" fill="none" stroke="#fff" stroke-linecap="round" stroke-linejoin="round" stroke-width="4"/>
        <path id="패스_23" data-name="패스 23" d="M85.3,71.295a75.715,75.715,0,0,1,21.415,5.93M85.4,68.486a68.612,68.612,0,0,1,21.815-4.553M85.351,69.89a64.448,64.448,0,0,1,21.615.688" transform="translate(-39.845 -29.865)" fill="#fff" fill-rule="evenodd"/>
        <path id="패스_24" data-name="패스 24" d="M85.3,71.295a75.715,75.715,0,0,1,21.415,5.93M85.4,68.486a68.612,68.612,0,0,1,21.815-4.553M85.351,69.89a64.448,64.448,0,0,1,21.615.688" transform="translate(-39.845 -29.865)" fill="none" stroke="#fff" stroke-linecap="round" stroke-linejoin="round" stroke-width="4"/>
        <path id="패스_25" data-name="패스 25" d="M23.923,71.295a75.712,75.712,0,0,0-21.415,5.93m21.307-8.738A68.612,68.612,0,0,0,2,63.933M23.869,69.89a64.448,64.448,0,0,0-21.615.688" transform="translate(-0.934 -29.865)" fill="#fff" fill-rule="evenodd"/>
        <path id="패스_26" data-name="패스 26" d="M23.923,71.295a75.712,75.712,0,0,0-21.415,5.93m21.307-8.738A68.612,68.612,0,0,0,2,63.933M23.869,69.89a64.448,64.448,0,0,0-21.615.688" transform="translate(-0.934 -29.865)" fill="none" stroke="#fff" stroke-linecap="round" stroke-linejoin="round" stroke-width="4"/>
        <path id="패스_27" data-name="패스 27" d="M62.749,24.84c.286,0,.571.006.855.015-.149,9.069-.905,15.968-1.815,15.968s-1.658-6.831-1.813-15.834a26.445,26.445,0,0,1,2.774-.149" transform="translate(-28.016 -11.604)" fill="#fff" fill-rule="evenodd"/>
        <path id="패스_28" data-name="패스 28" d="M62.749,24.84c.286,0,.571.006.855.015-.149,9.069-.905,15.968-1.815,15.968s-1.658-6.831-1.813-15.834A26.445,26.445,0,0,1,62.749,24.84Z" transform="translate(-28.016 -11.604)" fill="none" stroke="#fff" stroke-miterlimit="10" stroke-width="4"/>
        <path id="패스_29" data-name="패스 29" d="M70.747,25.16a26.479,26.479,0,0,1,3.106.544c-.331,4-.893,6.636-1.531,6.636-.667,0-1.251-2.875-1.574-7.18" transform="translate(-33.048 -11.753)" fill="#fff" fill-rule="evenodd"/>
        <path id="패스_30" data-name="패스 30" d="M70.747,25.16a26.479,26.479,0,0,1,3.106.544c-.331,4-.893,6.636-1.531,6.636C71.654,32.34,71.07,29.465,70.747,25.16Z" transform="translate(-33.048 -11.753)" fill="none" stroke="#fff" stroke-miterlimit="10" stroke-width="4"/>
        <path id="패스_31" data-name="패스 31" d="M50.26,26.457a28.279,28.279,0,0,1,3.04-.75c-.327,4.143-.9,6.888-1.552,6.888-.611,0-1.153-2.418-1.488-6.139" transform="translate(-23.478 -12.009)" fill="#fff" fill-rule="evenodd"/>
        <path id="패스_32" data-name="패스 32" d="M50.26,26.457a28.279,28.279,0,0,1,3.04-.75c-.327,4.143-.9,6.888-1.552,6.888C51.137,32.6,50.6,30.177,50.26,26.457Z" transform="translate(-23.478 -12.009)" fill="none" stroke="#fff" stroke-miterlimit="10" stroke-width="4"/>
        <g id="그룹_4" data-name="그룹 4" transform="translate(31.155 35.951)" opacity="0.2">
          <g id="그룹_3" data-name="그룹 3">
            <g id="그룹_2" data-name="그룹 2" clip-path="url(#clip-path-3)">
              <path id="패스_33" data-name="패스 33" d="M62.466,69.467c1.1,0,2,.236,2,.528s-.9.528-2,.528-2-.237-2-.528.9-.528,2-.528" transform="translate(-59.4 -68.401)" fill="#fff" fill-rule="evenodd"/>
              <path id="패스_34" data-name="패스 34" d="M62.466,69.467c1.1,0,2,.236,2,.528s-.9.528-2,.528-2-.237-2-.528S61.362,69.467,62.466,69.467Z" transform="translate(-59.4 -68.401)" fill="none" stroke="#fff" stroke-linecap="round" stroke-linejoin="round" stroke-width="4"/>
            </g>
          </g>
        </g>
        <line id="선_1" data-name="선 1" y2="4.191" transform="translate(34.22 39.135)" fill="#fff"/>
        <line id="선_2" data-name="선 2" y2="4.191" transform="translate(34.22 39.135)" fill="none" stroke="#fff" stroke-linecap="round" stroke-linejoin="round" stroke-width="4"/>
        <path id="패스_35" data-name="패스 35" d="M54.427,75.115c1.455,4.436,8.98,4.363,10.435,0" transform="translate(-25.425 -35.089)" fill="#fff" fill-rule="evenodd"/>
        <path id="패스_36" data-name="패스 36" d="M54.427,75.115c1.455,4.436,8.98,4.363,10.435,0" transform="translate(-25.425 -35.089)" fill="none" stroke="#fff" stroke-linecap="round" stroke-linejoin="round" stroke-width="4"/>
        <path id="패스_37" data-name="패스 37" d="M10.512,31.445C7.59,24.354,6.28,12.635,6.739,5.234c.181-2.918,1.8-3.889,4.666-2.8,6.078,2.311,16.962,8.89,20.679,14.364a4.055,4.055,0,0,1-.067,4.723c-2.966,4.113-10.781,10.387-16.39,12.261a4.114,4.114,0,0,1-5.114-2.337" transform="translate(-3.106 -0.934)" fill="#2d8bb3" fill-rule="evenodd"/>
        <path id="패스_38" data-name="패스 38" d="M18.9,34.76c-1.8-4.363-2.6-12.387-2.322-16.941.111-1.8,1.108-2.393,2.871-1.723,3.74,1.422,11.177,5.693,13.464,9.061a2.5,2.5,0,0,1-.041,2.906c-1.825,2.531-7.374,6.983-10.825,8.136A2.531,2.531,0,0,1,18.9,34.76" transform="translate(-7.716 -7.394)" fill="#18698c" fill-rule="evenodd"/>
        <path id="패스_39" data-name="패스 39" d="M94.993,31.445c2.922-7.09,4.232-18.809,3.774-26.211-.181-2.918-1.8-3.889-4.666-2.8C88.023,4.745,77.138,11.324,73.421,16.8a4.055,4.055,0,0,0,.067,4.723c2.966,4.113,10.782,10.387,16.39,12.261a4.114,4.114,0,0,0,5.114-2.337" transform="translate(-33.959 -0.934)" fill="#2d8bb3" fill-rule="evenodd"/>
        <path id="패스_40" data-name="패스 40" d="M94.783,34.76c1.8-4.363,2.6-12.387,2.322-16.941-.111-1.8-1.108-2.393-2.871-1.723-3.74,1.422-11.177,5.693-13.464,9.061a2.5,2.5,0,0,0,.041,2.906c1.825,2.531,7.374,6.983,10.825,8.136a2.531,2.531,0,0,0,3.147-1.438" transform="translate(-37.522 -7.394)" fill="#18698c" fill-rule="evenodd"/>
        <path id="패스_41" data-name="패스 41" d="M38.352,24.841c16.618,0,29.579,15.824,29.579,29.6S54.69,74.3,38.071,74.3,7.749,68.21,7.749,54.437s13.984-29.6,30.6-29.6" transform="translate(-3.62 -11.604)" fill="#419dc4" fill-rule="evenodd"/>
        <path id="패스_42" data-name="패스 42" d="M16.887,84.5c4.966-11.531,14.737-21,25.714-21,10.956,0,20.244,9.438,24.931,20.94-5.28,5.421-14.542,7.921-25.191,7.92-10.608,0-20.027-2.481-25.453-7.857" transform="translate(-7.889 -29.66)" fill="#84cceb" fill-rule="evenodd"/>
        <path id="패스_43" data-name="패스 43" d="M59.2,69.808c.751-.715,4.121-1.028,5.2,0,.747.714-1.192,3.915-2.654,3.915S58.4,70.565,59.2,69.808" transform="translate(-27.566 -32.302)" fill="#333" fill-rule="evenodd"/>
        <path id="패스_44" data-name="패스 44" d="M41.015,59.768c1.455-2.534,5.652-2.576,6.878,0" transform="translate(-19.16 -27.024)" fill="none" stroke="#333" stroke-linecap="round" stroke-linejoin="round" stroke-width="3.12"/>
        <path id="패스_45" data-name="패스 45" d="M83.4,59.768c-1.455-2.534-5.652-2.576-6.878,0" transform="translate(-35.746 -27.024)" fill="none" stroke="#333" stroke-linecap="round" stroke-linejoin="round" stroke-width="3.12"/>
        <path id="패스_46" data-name="패스 46" d="M85.3,71.295a75.715,75.715,0,0,1,21.415,5.93M85.4,68.486a68.612,68.612,0,0,1,21.815-4.553M85.351,69.89a64.448,64.448,0,0,1,21.615.688" transform="translate(-39.845 -29.865)" fill="none" stroke="#333" stroke-linecap="round" stroke-linejoin="round" stroke-width="1.92"/>
        <path id="패스_47" data-name="패스 47" d="M23.923,71.295a75.712,75.712,0,0,0-21.415,5.93m21.307-8.738A68.612,68.612,0,0,0,2,63.933M23.869,69.89a64.448,64.448,0,0,0-21.615.688" transform="translate(-0.934 -29.865)" fill="none" stroke="#333" stroke-linecap="round" stroke-linejoin="round" stroke-width="1.92"/>
        <path id="패스_48" data-name="패스 48" d="M62.749,24.84c.286,0,.571.006.855.015-.149,9.069-.905,15.968-1.815,15.968s-1.658-6.831-1.813-15.834a26.445,26.445,0,0,1,2.774-.149" transform="translate(-28.016 -11.604)" fill="#84cceb" fill-rule="evenodd"/>
        <path id="패스_49" data-name="패스 49" d="M70.747,25.16a26.479,26.479,0,0,1,3.106.544c-.331,4-.893,6.636-1.531,6.636-.667,0-1.251-2.875-1.574-7.18" transform="translate(-33.048 -11.753)" fill="#84cceb" fill-rule="evenodd"/>
        <path id="패스_50" data-name="패스 50" d="M50.26,26.457a28.279,28.279,0,0,1,3.04-.75c-.327,4.143-.9,6.888-1.552,6.888-.611,0-1.153-2.418-1.488-6.139" transform="translate(-23.478 -12.009)" fill="#84cceb" fill-rule="evenodd"/>
        <g id="그룹_7" data-name="그룹 7" transform="translate(32.22 37.016)" opacity="0.2">
          <g id="그룹_6" data-name="그룹 6">
            <g id="그룹_5" data-name="그룹 5" clip-path="url(#clip-path-4)">
              <path id="패스_51" data-name="패스 51" d="M62.466,69.467c1.1,0,2,.236,2,.528s-.9.528-2,.528-2-.237-2-.528.9-.528,2-.528" transform="translate(-60.466 -69.467)" fill="#fff" fill-rule="evenodd"/>
            </g>
          </g>
        </g>
        <line id="선_3" data-name="선 3" y2="4.191" transform="translate(34.22 39.135)" fill="none" stroke="#333" stroke-linecap="round" stroke-linejoin="round" stroke-width="2.4"/>
        <path id="패스_52" data-name="패스 52" d="M54.427,75.115c1.455,4.436,8.98,4.363,10.435,0" transform="translate(-25.425 -35.089)" fill="none" stroke="#333" stroke-linecap="round" stroke-linejoin="round" stroke-width="3.12"/>
      </g>
    </g>
  </g>
</svg>
