<svg id="dog_icon" xmlns="http://www.w3.org/2000/svg" xmlns:xlink="http://www.w3.org/1999/xlink" width="97.74" height="60" viewBox="0 0 97.74 60">
  <defs>
    <clipPath id="clip-path">
      <rect id="사각형_24" data-name="사각형 24" width="97.74" height="60" fill="none"/>
    </clipPath>
  </defs>
  <g id="그룹_12" data-name="그룹 12" transform="translate(0 0)" clip-path="url(#clip-path)">
    <path id="패스_53" data-name="패스 53" d="M60.883,2C80.31,2,95.461,20.5,95.461,36.6S79.982,59.817,60.555,59.817,25.108,52.7,25.108,36.6,41.455,2,60.883,2" transform="translate(-11.407 -0.909)" fill="#fff" fill-rule="evenodd"/>
    <path id="패스_54" data-name="패스 54" d="M60.883,2C80.31,2,95.461,20.5,95.461,36.6S79.982,59.817,60.555,59.817,25.108,52.7,25.108,36.6,41.455,2,60.883,2Z" transform="translate(-11.407 -0.909)" fill="none" stroke="#fff" stroke-miterlimit="10" stroke-width="4"/>
    <path id="패스_55" data-name="패스 55" d="M29.86,6.025C18.754,10.151,6.877,19.163,3,25.37s4.457,31.884,9.7,26.384S27.861,12.738,32.646,9.107s.12-4.266-2.786-3.082" transform="translate(-0.909 -2.491)" fill="#fff" fill-rule="evenodd"/>
    <path id="패스_56" data-name="패스 56" d="M29.86,6.025C18.754,10.151,6.877,19.163,3,25.37s4.457,31.884,9.7,26.384S27.861,12.738,32.646,9.107,32.766,4.841,29.86,6.025Z" transform="translate(-0.909 -2.491)" fill="none" stroke="#fff" stroke-miterlimit="10" stroke-width="4"/>
    <path id="패스_57" data-name="패스 57" d="M122.35,6.123c11.105,4.126,22.982,13.138,26.862,19.345s-4.675,31.251-9.7,26.384-13.852-40.487-19.165-43-.9-3.918,2-2.733" transform="translate(-53.544 -2.588)" fill="#fff" fill-rule="evenodd"/>
    <path id="패스_58" data-name="패스 58" d="M122.35,6.123c11.105,4.126,22.982,13.138,26.862,19.345s-4.675,31.251-9.7,26.384-13.852-40.487-19.165-43S119.444,4.939,122.35,6.123Z" transform="translate(-53.544 -2.588)" fill="none" stroke="#fff" stroke-miterlimit="10" stroke-width="4"/>
    <path id="패스_59" data-name="패스 59" d="M51.958,56.311c4.811-19.667,20.181-17.794,14.3-53.547A31.306,31.306,0,0,1,72.907,2q1.183.011,2.361.079a30.681,30.681,0,0,1,3.656.485C70.563,36.178,90.97,37.112,93.452,56.273c-5.773,2.4-12.919,3.546-20.7,3.546-7.738,0-14.935-1.131-20.8-3.508" transform="translate(-23.605 -0.91)" fill="#fff" fill-rule="evenodd"/>
    <path id="패스_60" data-name="패스 60" d="M51.958,56.311c4.811-19.667,20.181-17.794,14.3-53.547A31.306,31.306,0,0,1,72.907,2q1.183.011,2.361.079a30.681,30.681,0,0,1,3.656.485C70.563,36.178,90.97,37.112,93.452,56.273c-5.773,2.4-12.919,3.546-20.7,3.546C65.015,59.819,57.818,58.688,51.958,56.311Z" transform="translate(-23.605 -0.91)" fill="none" stroke="#fff" stroke-miterlimit="10" stroke-width="4"/>
    <path id="패스_61" data-name="패스 61" d="M84.251,53.663c12.15,0,3.953,9.1,0,9.1s-12.15-9.1,0-9.1" transform="translate(-35.373 -24.379)" fill="#fff" fill-rule="evenodd"/>
    <path id="패스_62" data-name="패스 62" d="M84.251,53.663c12.15,0,3.953,9.1,0,9.1S72.1,53.663,84.251,53.663Z" transform="translate(-35.373 -24.379)" fill="none" stroke="#fff" stroke-miterlimit="10" stroke-width="4"/>
    <path id="패스_63" data-name="패스 63" d="M86.933,56.538c1.745,0,3.168-.375,3.168-.837s-1.423-.836-3.168-.836-3.168.375-3.168.836,1.423.837,3.168.837" transform="translate(-38.055 -24.926)" fill="#fff" fill-rule="evenodd"/>
    <path id="패스_64" data-name="패스 64" d="M86.933,56.538c1.745,0,3.168-.375,3.168-.837s-1.423-.836-3.168-.836-3.168.375-3.168.836S85.188,56.538,86.933,56.538Z" transform="translate(-38.055 -24.926)" fill="none" stroke="#fff" stroke-miterlimit="10" stroke-width="4"/>
    <path id="패스_65" data-name="패스 65" d="M59.513,46.849c1.876-3.267,7.285-3.321,8.864,0" transform="translate(-27.037 -20.162)" fill="#fff" fill-rule="evenodd"/>
    <path id="패스_66" data-name="패스 66" d="M59.513,46.849c1.876-3.267,7.285-3.321,8.864,0" transform="translate(-27.037 -20.162)" fill="none" stroke="#fff" stroke-linecap="round" stroke-linejoin="round" stroke-width="4"/>
    <path id="패스_67" data-name="패스 67" d="M113.063,46.849c-1.876-3.267-7.285-3.321-8.864,0" transform="translate(-47.338 -20.162)" fill="#fff" fill-rule="evenodd"/>
    <path id="패스_68" data-name="패스 68" d="M113.063,46.849c-1.876-3.267-7.285-3.321-8.864,0" transform="translate(-47.338 -20.162)" fill="none" stroke="#fff" stroke-linecap="round" stroke-linejoin="round" stroke-width="4"/>
    <line id="선_4" data-name="선 4" y2="4.648" transform="translate(48.878 37.108)" fill="#fff"/>
    <line id="선_5" data-name="선 5" y2="4.648" transform="translate(48.878 37.108)" fill="none" stroke="#fff" stroke-linecap="round" stroke-linejoin="round" stroke-width="4"/>
    <path id="패스_69" data-name="패스 69" d="M78.966,69.814c1.614,4.919,9.96,4.839,11.574,0" transform="translate(-35.875 -31.717)" fill="#fff" fill-rule="evenodd"/>
    <path id="패스_70" data-name="패스 70" d="M78.966,69.814c1.614,4.919,9.96,4.839,11.574,0" transform="translate(-35.875 -31.717)" fill="none" stroke="#fff" stroke-linecap="round" stroke-linejoin="round" stroke-width="4"/>
    <path id="패스_71" data-name="패스 71" d="M60.883,2C80.31,2,95.461,20.5,95.461,36.6S79.982,59.817,60.555,59.817,25.108,52.7,25.108,36.6,41.455,2,60.883,2" transform="translate(-11.407 -0.909)" fill="#d15d46" fill-rule="evenodd"/>
    <path id="패스_72" data-name="패스 72" d="M29.86,6.025C18.754,10.151,6.877,19.163,3,25.37s4.457,31.884,9.7,26.384S27.861,12.738,32.646,9.107s.12-4.266-2.786-3.082" transform="translate(-0.909 -2.491)" fill="#a64733" fill-rule="evenodd"/>
    <path id="패스_73" data-name="패스 73" d="M122.35,6.123c11.105,4.126,22.982,13.138,26.862,19.345s-4.675,31.251-9.7,26.384-13.852-40.487-19.165-43-.9-3.918,2-2.733" transform="translate(-53.544 -2.588)" fill="#a64733" fill-rule="evenodd"/>
    <path id="패스_74" data-name="패스 74" d="M51.958,56.311c4.811-19.667,20.181-17.794,14.3-53.547A31.306,31.306,0,0,1,72.907,2q1.183.011,2.361.079a30.681,30.681,0,0,1,3.656.485C70.563,36.178,90.97,37.112,93.452,56.273c-5.773,2.4-12.919,3.546-20.7,3.546-7.738,0-14.935-1.131-20.8-3.508" transform="translate(-23.605 -0.91)" fill="#ed8470" fill-rule="evenodd"/>
    <path id="패스_75" data-name="패스 75" d="M84.251,53.663c12.15,0,3.953,9.1,0,9.1s-12.15-9.1,0-9.1" transform="translate(-35.373 -24.379)" fill="#333" fill-rule="evenodd"/>
    <path id="패스_76" data-name="패스 76" d="M86.933,56.538c1.745,0,3.168-.375,3.168-.837s-1.423-.836-3.168-.836-3.168.375-3.168.836,1.423.837,3.168.837" transform="translate(-38.055 -24.926)" fill="#666" fill-rule="evenodd"/>
    <path id="패스_77" data-name="패스 77" d="M59.513,46.849c1.876-3.267,7.285-3.321,8.864,0" transform="translate(-27.037 -20.162)" fill="none" stroke="#333" stroke-linecap="round" stroke-linejoin="round" stroke-width="3.12"/>
    <path id="패스_78" data-name="패스 78" d="M113.063,46.849c-1.876-3.267-7.285-3.321-8.864,0" transform="translate(-47.338 -20.162)" fill="none" stroke="#333" stroke-linecap="round" stroke-linejoin="round" stroke-width="3.12"/>
    <line id="선_6" data-name="선 6" y2="4.648" transform="translate(48.878 37.108)" fill="none" stroke="#333" stroke-linecap="round" stroke-linejoin="round" stroke-width="2.4"/>
    <path id="패스_79" data-name="패스 79" d="M78.966,69.814c1.614,4.919,9.96,4.839,11.574,0" transform="translate(-35.875 -31.717)" fill="none" stroke="#333" stroke-linecap="round" stroke-linejoin="round" stroke-width="3.12"/>
  </g>
</svg>
