<?xml version="1.0" encoding="UTF-8"?>
<svg id="Layer_1" data-name="Layer 1" xmlns="http://www.w3.org/2000/svg" viewBox="0 0 16 14.9">
  <defs>
    <style>
      .cls-1 {
        fill: #3d3d3d;
      }
    </style>
  </defs>
  <g>
    <path class="cls-1" d="m3.87.04S1.14,1.83.29,4.98c-.46,1.73-.19,3.18-.07,3.71.53,2.33,2.25,4.68,4.95,5.7.2.08,3.65,1.32,6.94-.62,1.83-1.08,2.71-2.62,2.95-3.09.91-1.73.93-3.35.89-4.05-.04.52-.13,1.27-.41,2.13-.25.78-1.07,3.15-3.5,4.6-3.03,1.82-6.18.78-6.46.69-2.56-.89-4.4-3.07-4.95-5.5C.05,5.95,1.11,3.82,1.53,2.99,2.51,1.03,3.89.06,3.87.04Z"/>
    <path class="cls-1" d="m8.03,14.9c-1.61,0-2.79-.43-2.87-.47C2.69,13.49.79,11.29.19,8.7c-.16-.7-.36-2.11.07-3.73C1.09,1.89,3.69.05,3.85,0h.02s.03.02.03.02v.02s0,.02-.1.1c-.94.8-1.69,1.77-2.24,2.87-.4.81-1.48,2.95-.89,5.54.57,2.52,2.46,4.62,4.92,5.47.34.12,3.44,1.11,6.43-.68,1.64-.98,2.81-2.52,3.49-4.58.22-.68.36-1.4.41-2.12h.07c.05.99-.07,2.49-.9,4.07-.39.73-1.29,2.11-2.97,3.1-1.43.84-2.88,1.09-4.09,1.09ZM3.36.45C2.54,1.12.95,2.67.33,4.99c-.43,1.6-.23,3-.07,3.69.59,2.57,2.48,4.75,4.92,5.68.15.06,3.61,1.33,6.91-.62,1.67-.98,2.56-2.35,2.94-3.08.67-1.27.87-2.49.9-3.43-.07.52-.19,1.03-.35,1.53-.68,2.08-1.87,3.63-3.52,4.62-3.02,1.81-6.14.81-6.49.69-2.49-.86-4.39-2.98-4.97-5.52C.01,5.95,1.09,3.79,1.5,2.98c.47-.95,1.1-1.8,1.86-2.53Z"/>
  </g>
  <path class="cls-1" d="m7.83,14.76c-.52,0-1.09-.04-1.7-.13-.04,0-.08-.03-.11-.06-.05.03-.12.03-.17,0-.06-.02-1.49-.59-2.06-.94-.83-.51-.21-2.36-.12-2.61.36-1.32.96-2.84,1.03-3.02.15-.8-1.21-1.68-1.75-1.96,0,0-.02,0-.03-.02-.78-.56-.71-1.46-.7-1.56.02-.29.15-.43.26-.5.22-.14.5-.07.6-.03.01,0,.03,0,.04,0,1.52,0,2.44-.96,2.45-.97.02-.02.04-.03.06-.04,1.73-.85,4.45,1.92,4.57,2.03,0,0,.01.01.02.02.08.11.48.67.29,1.04-.17.34-1.94,1.54-2.36,1.61-.38.06-.59-.16-.65-.34-.09-.14-.46-.81-.17-1.51.24-.6.13-1.03.13-1.04-.03-.11.03-.22.14-.25.11-.03.22.03.25.14,0,.02.15.56-.14,1.3-.23.57.15,1.15.15,1.16.02.02.02.04.03.07.01.04.06.09.2.07.29-.05,1.92-1.14,2.07-1.39.04-.08-.08-.37-.25-.6-.17-.17-2.63-2.6-4.05-1.96-.18.18-1.19,1.1-2.8,1.07-.03,0-.05,0-.07-.02-.07-.03-.21-.05-.27-.01-.05.03-.06.11-.07.18,0,0,0,0,0,.01,0,.03-.07.74.52,1.17.21.11,2.21,1.18,1.95,2.42,0,.01,0,.02-.01.03,0,.02-.65,1.62-1.02,3,0,0,0,.01,0,.02-.24.68-.47,1.86-.05,2.13.37.23,1.15.57,1.62.76-.1-.57-.12-1.59.79-2.29,0,0,.02-.01.03-.02.17-.1,1.72-.94,2.11-1.05,0,0,0,0,0,0,.04-.01,1.05-.28,1.56-1.82,0-.19.07-.95.88-1.82.05-.06.5-.52,1.48-.41.06,0,.11.04.14.08.03.05.05.1.04.16-.04.23-.05.5-.03.61.26.09,1.13.48,1.2,1.43.25.16.54.52.34,1.08-.04.12-.22.45-1.14.71.05.49.15,1.85-.22,2.52-.01.02-.03.04-.05.06-.08.07-1.73,1.48-4.93,1.48Zm-1.67-.54s.02,0,.03,0c3.87.56,6-1.02,6.26-1.23.29-.59.19-1.94.13-2.42-.01-.1.05-.2.15-.23.85-.21,1.01-.45,1.02-.48,0,0,0,0,0-.01.16-.44-.16-.6-.23-.63-.08-.03-.13-.11-.13-.19,0-.79-.74-1.1-.94-1.17-.07-.01-.12-.04-.17-.1-.12-.14-.12-.45-.09-.74-.64-.01-.9.27-.92.29-.79.85-.77,1.57-.77,1.57,0,.02,0,.05,0,.07-.57,1.77-1.76,2.1-1.86,2.13-.26.07-1.33.64-2,1-.9.71-.66,1.83-.57,2.14.02,0,.05-.01.07-.01Zm7.6-4.33s0,0,0,0c0,0,0,0,0,0Zm0,0s0,0,0,0c0,0,0,0,0,0Zm0,0s0,0,0,0c0,0,0,0,0,0Zm0,0h0s0,0,0,0Z"/>
  <g>
    <path class="cls-1" d="m3.25,4.15s-.08.83-.85.67c0,0-.28-.99.85-.67Z"/>
    <path class="cls-1" d="m2.58,5.05c-.07,0-.14,0-.22-.02-.08-.02-.14-.07-.16-.15-.01-.05-.14-.52.15-.81.2-.2.52-.24.96-.12.1.03.16.12.15.22,0,.05-.06.48-.39.72-.14.1-.3.16-.49.16Zm0-.41c.1,0,.18-.02.24-.07.09-.07.15-.17.18-.26-.17-.03-.3,0-.36.05-.06.06-.07.18-.06.28Z"/>
  </g>
  <g>
    <circle class="cls-1" cx="5.58" cy="4.71" r=".1"/>
    <path class="cls-1" d="m5.58,5.02c-.17,0-.31-.14-.31-.31s.14-.31.31-.31.31.14.31.31-.14.31-.31.31Zm0-.41c-.06,0-.1.05-.1.1s.05.1.1.1.1-.05.1-.1-.05-.1-.1-.1Z"/>
  </g>
  <g>
    <circle class="cls-1" cx="12.8" cy="9.17" r=".06"/>
    <path class="cls-1" d="m12.8,9.35c-.09,0-.17-.08-.17-.17s.08-.17.17-.17.17.08.17.17-.08.17-.17.17Zm0-.23s-.06.03-.06.06.03.06.06.06.06-.03.06-.06-.03-.06-.06-.06Z"/>
  </g>
  <g>
    <circle class="cls-1" cx="12.8" cy="9.17" r=".03"/>
    <path class="cls-1" d="m12.8,9.42c-.13,0-.24-.11-.24-.24s.11-.24.24-.24.24.11.24.24-.11.24-.24.24Zm0-.41c-.09,0-.17.08-.17.17s.08.17.17.17.17-.08.17-.17-.08-.17-.17-.17Z"/>
  </g>
</svg>