<svg id="icon_03" xmlns="http://www.w3.org/2000/svg" xmlns:xlink="http://www.w3.org/1999/xlink" width="90" height="70.295" viewBox="0 0 90 70.295">
  <defs>
    <clipPath id="clip-path">
      <rect id="사각형_27" data-name="사각형 27" width="90" height="70.295" fill="none"/>
    </clipPath>
  </defs>
  <rect id="사각형_25" data-name="사각형 25" width="44.767" height="40.396" transform="translate(39.905 25.336)" fill="#fff"/>
  <g id="그룹_15" data-name="그룹 15">
    <g id="그룹_14" data-name="그룹 14" clip-path="url(#clip-path)">
      <rect id="사각형_26" data-name="사각형 26" width="43.74" height="39.469" transform="translate(41.054 26.368)" fill="none" stroke="#fff" stroke-miterlimit="10" stroke-width="4"/>
    </g>
  </g>
  <path id="패스_80" data-name="패스 80" d="M92.936,30.249,86.8,9.938H17.344V30.249Z" transform="translate(-4.887 -2.8)" fill="#fff"/>
  <g id="그룹_17" data-name="그룹 17">
    <g id="그룹_16" data-name="그룹 16" clip-path="url(#clip-path)">
      <path id="패스_81" data-name="패스 81" d="M93.267,29.783,87.1,9.938H17.344V29.783Z" transform="translate(-5.173 -2.964)" fill="none" stroke="#fff" stroke-miterlimit="10" stroke-width="4"/>
    </g>
  </g>
  <path id="패스_82" data-name="패스 82" d="M2.716,30.249,8.856,9.938H78.308V30.249Z" transform="translate(-0.765 -2.8)" fill="#fff"/>
  <g id="그룹_19" data-name="그룹 19">
    <g id="그룹_18" data-name="그룹 18" clip-path="url(#clip-path)">
      <path id="패스_83" data-name="패스 83" d="M2.716,29.783,8.883,9.938H78.639V29.783Z" transform="translate(-0.81 -2.964)" fill="none" stroke="#fff" stroke-miterlimit="10" stroke-width="4"/>
    </g>
  </g>
  <rect id="사각형_30" data-name="사각형 30" width="37.383" height="40.396" transform="translate(4.636 25.336)" fill="#fff"/>
  <g id="그룹_21" data-name="그룹 21">
    <g id="그룹_20" data-name="그룹 20" clip-path="url(#clip-path)">
      <rect id="사각형_31" data-name="사각형 31" width="36.525" height="39.469" transform="translate(4.529 26.368)" fill="none" stroke="#fff" stroke-miterlimit="10" stroke-width="4"/>
    </g>
  </g>
  <path id="패스_84" data-name="패스 84" d="M25.146,12.385,6.455,30.477H43.836Z" transform="translate(-1.819 -3.489)" fill="#fff"/>
  <g id="그룹_23" data-name="그룹 23">
    <g id="그룹_22" data-name="그룹 22" clip-path="url(#clip-path)">
      <path id="패스_85" data-name="패스 85" d="M24.717,12.385,6.455,30.062H42.978Z" transform="translate(-1.925 -3.694)" fill="none" stroke="#fff" stroke-miterlimit="10" stroke-width="4"/>
    </g>
  </g>
  <path id="패스_86" data-name="패스 86" d="M9.488,43.148,7.882,41.442,29.207,21.2l.8,2.611Z" transform="translate(-2.221 -6.476)" fill="#fff"/>
  <g id="그룹_25" data-name="그룹 25">
    <g id="그룹_24" data-name="그룹 24" clip-path="url(#clip-path)">
      <path id="패스_87" data-name="패스 87" d="M9.451,42.645,7.882,40.978,28.717,21.2l.785,2.551Z" transform="translate(-2.351 -6.323)" fill="none" stroke="#fff" stroke-miterlimit="10" stroke-width="4"/>
    </g>
  </g>
  <path id="패스_88" data-name="패스 88" d="M51.88,32.327,31.359,12.991l1.175-1.481L53.487,30.621Z" transform="translate(-9.516 -3.243)" fill="#fff"/>
  <path id="패스_89" data-name="패스 89" d="M51.88,32.327,31.359,12.991l1.175-1.481L53.487,30.621Z" transform="translate(-9.516 -3.243)" fill="none" stroke="#fff" stroke-miterlimit="10" stroke-width="4"/>
  <rect id="사각형_35" data-name="사각형 35" width="12.467" height="20.296" transform="translate(16.531 44.904)" fill="#fff"/>
  <g id="그룹_27" data-name="그룹 27">
    <g id="그룹_26" data-name="그룹 26" clip-path="url(#clip-path)">
      <rect id="사각형_36" data-name="사각형 36" width="12.181" height="19.831" transform="translate(16.592 45.487)" fill="none" stroke="#fff" stroke-miterlimit="10" stroke-width="4"/>
    </g>
  </g>
  <path id="패스_90" data-name="패스 90" d="M36.435,85.438H22.9V64.072H36.435ZM23.966,84.369h11.4V65.141h-11.4Z" transform="translate(-6.894 -19.703)" fill="#fff"/>
  <g id="그룹_29" data-name="그룹 29">
    <g id="그룹_28" data-name="그룹 28" clip-path="url(#clip-path)">
      <path id="패스_91" data-name="패스 91" d="M36.124,84.948H22.9V64.072H36.124ZM23.942,83.9H35.079V65.117H23.942Z" transform="translate(-6.829 -19.108)" fill="none" stroke="#fff" stroke-miterlimit="10" stroke-width="4"/>
      <path id="패스_92" data-name="패스 92" d="M29.732,56.361c-2.125,0-6.09,1.014-6.09,5.934H35.823c0-4.92-3.965-5.934-6.091-5.934" transform="translate(-7.051 -16.808)" fill="#fff"/>
      <path id="패스_93" data-name="패스 93" d="M29.732,56.361c-2.125,0-6.09,1.014-6.09,5.934H35.823C35.823,57.375,31.858,56.361,29.732,56.361Z" transform="translate(-7.051 -16.808)" fill="none" stroke="#fff" stroke-miterlimit="10" stroke-width="4"/>
      <path id="패스_94" data-name="패스 94" d="M36.124,62.6H22.9v-.521c0-4.766,3.563-6.456,6.613-6.456s6.614,1.69,6.614,6.456ZM23.959,61.551h11.1c-.3-4.645-4.655-4.889-5.552-4.889s-5.247.244-5.551,4.889" transform="translate(-6.829 -16.587)" fill="#fff"/>
      <path id="패스_95" data-name="패스 95" d="M36.124,62.6H22.9v-.521c0-4.766,3.563-6.456,6.613-6.456s6.614,1.69,6.614,6.456ZM23.959,61.551h11.1c-.3-4.645-4.655-4.889-5.552-4.889S24.263,56.906,23.959,61.551Z" transform="translate(-6.829 -16.587)" fill="none" stroke="#fff" stroke-miterlimit="10" stroke-width="4"/>
      <path id="패스_96" data-name="패스 96" d="M30.19,27.743c-1.749,0-5.012.834-5.012,4.884H35.2c0-4.049-3.264-4.884-5.013-4.884" transform="translate(-7.509 -8.274)" fill="#fff"/>
      <path id="패스_97" data-name="패스 97" d="M30.19,27.743c-1.749,0-5.012.834-5.012,4.884H35.2C35.2,28.577,31.94,27.743,30.19,27.743Z" transform="translate(-7.509 -8.274)" fill="none" stroke="#fff" stroke-miterlimit="10" stroke-width="4"/>
      <path id="패스_98" data-name="패스 98" d="M35.5,32.927H24.433V32.4c0-3.99,2.981-5.406,5.535-5.406S35.5,28.414,35.5,32.4ZM25.5,31.882h8.939c-.3-3.646-3.752-3.838-4.47-3.838s-4.169.192-4.469,3.838" transform="translate(-7.287 -8.052)" fill="#fff"/>
      <path id="패스_99" data-name="패스 99" d="M35.5,32.927H24.433V32.4c0-3.99,2.981-5.406,5.535-5.406S35.5,28.414,35.5,32.4ZM25.5,31.882h8.939c-.3-3.646-3.752-3.838-4.47-3.838S25.8,28.236,25.5,31.882Z" transform="translate(-7.287 -8.052)" fill="none" stroke="#fff" stroke-miterlimit="10" stroke-width="4"/>
      <rect id="사각형_38" data-name="사각형 38" width="1.045" height="5.934" transform="translate(22.159 39.553)" fill="#fff"/>
      <rect id="사각형_39" data-name="사각형 39" width="1.045" height="5.934" transform="translate(22.159 39.553)" fill="none" stroke="#fff" stroke-miterlimit="10" stroke-width="4"/>
      <rect id="사각형_40" data-name="사각형 40" width="1.045" height="5.934" transform="translate(18.116 41.66) rotate(-45)" fill="#fff"/>
      <rect id="사각형_41" data-name="사각형 41" width="1.045" height="5.934" transform="translate(18.116 41.66) rotate(-45)" fill="none" stroke="#fff" stroke-miterlimit="10" stroke-width="4"/>
      <path id="패스_100" data-name="패스 100" d="M32.621,82.707H31.576V62.66l4.35-4.35.738.74-4.043,4.043Z" transform="translate(-9.417 -17.39)" fill="#fff"/>
      <path id="패스_101" data-name="패스 101" d="M32.621,82.707H31.576V62.66l4.35-4.35.738.74-4.043,4.043Z" transform="translate(-9.417 -17.39)" fill="none" stroke="#fff" stroke-miterlimit="10" stroke-width="4"/>
      <path id="패스_102" data-name="패스 102" d="M30.172,78.622a.761.761,0,1,1-.762-.762.761.761,0,0,1,.762.762" transform="translate(-8.544 -23.22)" fill="#fff"/>
      <path id="패스_103" data-name="패스 103" d="M30.172,78.622a.761.761,0,1,1-.762-.762A.761.761,0,0,1,30.172,78.622Z" transform="translate(-8.544 -23.22)" fill="none" stroke="#fff" stroke-miterlimit="10" stroke-width="4"/>
      <path id="패스_104" data-name="패스 104" d="M33.823,78.622a.761.761,0,1,0,.762-.762.761.761,0,0,0-.762.762" transform="translate(-10.087 -23.22)" fill="#fff"/>
      <path id="패스_105" data-name="패스 105" d="M33.823,78.622a.761.761,0,1,0,.762-.762A.761.761,0,0,0,33.823,78.622Z" transform="translate(-10.087 -23.22)" fill="none" stroke="#fff" stroke-miterlimit="10" stroke-width="4"/>
      <rect id="사각형_42" data-name="사각형 42" width="10.025" height="7.237" transform="translate(17.67 24.354)" fill="#fff"/>
      <rect id="사각형_43" data-name="사각형 43" width="10.025" height="7.237" transform="translate(17.67 24.354)" fill="none" stroke="#fff" stroke-miterlimit="10" stroke-width="4"/>
      <path id="패스_106" data-name="패스 106" d="M35.5,42.24H24.434V33.957H35.5ZM25.478,41.194h8.981V35H25.478Z" transform="translate(-7.287 -10.127)" fill="#fff"/>
      <path id="패스_107" data-name="패스 107" d="M35.5,42.24H24.434V33.957H35.5ZM25.478,41.194h8.981V35H25.478Z" transform="translate(-7.287 -10.127)" fill="none" stroke="#fff" stroke-miterlimit="10" stroke-width="4"/>
      <rect id="사각형_44" data-name="사각형 44" width="1.045" height="7.237" transform="translate(22.159 24.354)" fill="#fff"/>
      <rect id="사각형_45" data-name="사각형 45" width="1.045" height="7.237" transform="translate(22.159 24.354)" fill="none" stroke="#fff" stroke-miterlimit="10" stroke-width="4"/>
      <rect id="사각형_46" data-name="사각형 46" width="6.2" height="2.098" transform="translate(16.592 31.018)" fill="#fff"/>
      <rect id="사각형_47" data-name="사각형 47" width="6.2" height="2.098" transform="translate(16.592 31.018)" fill="none" stroke="#fff" stroke-miterlimit="10" stroke-width="4"/>
      <rect id="사각형_48" data-name="사각형 48" width="6.2" height="2.098" transform="translate(22.791 31.018)" fill="#fff"/>
      <rect id="사각형_49" data-name="사각형 49" width="6.2" height="2.098" transform="translate(22.791 31.018)" fill="none" stroke="#fff" stroke-miterlimit="10" stroke-width="4"/>
      <rect id="사각형_50" data-name="사각형 50" width="80.265" height="3.054" transform="translate(4.529 65.837)" fill="#fff"/>
      <rect id="사각형_51" data-name="사각형 51" width="80.265" height="3.054" transform="translate(4.529 65.837)" fill="none" stroke="#fff" stroke-miterlimit="10" stroke-width="4"/>
      <rect id="사각형_52" data-name="사각형 52" width="27.721" height="16.944" transform="translate(49.064 37.644)" fill="#fff"/>
      <rect id="사각형_53" data-name="사각형 53" width="27.721" height="16.944" transform="translate(49.064 37.644)" fill="none" stroke="#fff" stroke-miterlimit="10" stroke-width="4"/>
      <path id="패스_108" data-name="패스 108" d="M97.935,70.886H69.172V52.9H97.935ZM70.216,69.842H96.891v-15.9H70.216Z" transform="translate(-20.629 -15.776)" fill="#fff"/>
      <path id="패스_109" data-name="패스 109" d="M97.935,70.886H69.172V52.9H97.935ZM70.216,69.842H96.891v-15.9H70.216Z" transform="translate(-20.629 -15.776)" fill="none" stroke="#fff" stroke-miterlimit="10" stroke-width="4"/>
      <rect id="사각형_54" data-name="사각형 54" width="1.044" height="16.944" transform="translate(55.535 37.644)" fill="#fff"/>
      <rect id="사각형_55" data-name="사각형 55" width="1.044" height="16.944" transform="translate(55.535 37.644)" fill="none" stroke="#fff" stroke-miterlimit="10" stroke-width="4"/>
      <rect id="사각형_56" data-name="사각형 56" width="1.044" height="16.945" transform="translate(62.402 37.617)" fill="#fff"/>
      <rect id="사각형_57" data-name="사각형 57" width="1.044" height="16.945" transform="translate(62.402 37.617)" fill="none" stroke="#fff" stroke-miterlimit="10" stroke-width="4"/>
      <rect id="사각형_58" data-name="사각형 58" width="1.044" height="16.945" transform="translate(69.27 37.617)" fill="#fff"/>
      <rect id="사각형_59" data-name="사각형 59" width="1.044" height="16.945" transform="translate(69.27 37.617)" fill="none" stroke="#fff" stroke-miterlimit="10" stroke-width="4"/>
      <rect id="사각형_60" data-name="사각형 60" width="27.721" height="1.046" transform="translate(49.064 45.594)" fill="#fff"/>
      <rect id="사각형_61" data-name="사각형 61" width="27.721" height="1.046" transform="translate(49.064 45.594)" fill="none" stroke="#fff" stroke-miterlimit="10" stroke-width="4"/>
      <rect id="사각형_62" data-name="사각형 62" width="7.443" height="13.776" transform="translate(58.747 3.121)" fill="#fff"/>
      <rect id="사각형_63" data-name="사각형 63" width="7.443" height="13.776" transform="translate(58.747 3.121)" fill="none" stroke="#fff" stroke-miterlimit="10" stroke-width="4"/>
      <rect id="사각형_64" data-name="사각형 64" width="10.306" height="2.444" transform="translate(57.315 1.404)" fill="#fff"/>
      <rect id="사각형_65" data-name="사각형 65" width="10.306" height="2.444" transform="translate(57.315 1.404)" fill="none" stroke="#fff" stroke-miterlimit="10" stroke-width="4"/>
      <rect id="사각형_66" data-name="사각형 66" width="43.74" height="39.469" transform="translate(41.054 26.368)" fill="#613b31"/>
      <path id="패스_110" data-name="패스 110" d="M93.267,29.783,87.1,9.938H17.344V29.783Z" transform="translate(-5.173 -2.964)" fill="#ff492b"/>
      <path id="패스_111" data-name="패스 111" d="M2.716,29.783,8.883,9.938H78.639V29.783Z" transform="translate(-0.81 -2.964)" fill="#ff492b"/>
      <rect id="사각형_67" data-name="사각형 67" width="36.525" height="39.469" transform="translate(4.529 26.368)" fill="#7f4f41"/>
      <path id="패스_112" data-name="패스 112" d="M24.717,12.385,6.455,30.062H42.978Z" transform="translate(-1.925 -3.694)" fill="#7f4f41"/>
      <path id="패스_113" data-name="패스 113" d="M4.358,31.38,2.788,29.713,23.623,9.937l.785,2.551Z" transform="translate(-0.832 -2.964)" fill="#ffe99c"/>
      <path id="패스_114" data-name="패스 114" d="M51.409,31.38,31.359,12.488l.785-2.551L52.979,29.713Z" transform="translate(-9.352 -2.964)" fill="#ffe99c"/>
      <rect id="사각형_68" data-name="사각형 68" width="12.181" height="19.831" transform="translate(16.592 45.487)" fill="#ff492b"/>
      <path id="패스_115" data-name="패스 115" d="M36.124,84.948H22.9V64.072H36.124ZM23.942,83.9H35.079V65.117H23.942Z" transform="translate(-6.829 -19.108)" fill="#5bbbe8"/>
      <path id="패스_116" data-name="패스 116" d="M29.732,56.361c-2.125,0-6.09,1.014-6.09,5.934H35.823c0-4.92-3.965-5.934-6.091-5.934" transform="translate(-7.051 -16.808)" fill="#ffe99c"/>
      <path id="패스_117" data-name="패스 117" d="M36.124,62.6H22.9v-.521c0-4.766,3.563-6.456,6.613-6.456s6.614,1.69,6.614,6.456ZM23.959,61.551h11.1c-.3-4.645-4.655-4.889-5.552-4.889s-5.247.244-5.551,4.889" transform="translate(-6.829 -16.587)" fill="#5bbbe8"/>
      <path id="패스_118" data-name="패스 118" d="M30.19,27.743c-1.749,0-5.012.834-5.012,4.884H35.2c0-4.049-3.264-4.884-5.013-4.884" transform="translate(-7.509 -8.274)" fill="#ffe99c"/>
      <path id="패스_119" data-name="패스 119" d="M35.5,32.927H24.433V32.4c0-3.99,2.981-5.406,5.535-5.406S35.5,28.414,35.5,32.4ZM25.5,31.882h8.939c-.3-3.646-3.752-3.838-4.47-3.838s-4.169.192-4.469,3.838" transform="translate(-7.287 -8.052)" fill="#5bbbe8"/>
      <rect id="사각형_69" data-name="사각형 69" width="1.045" height="5.934" transform="translate(22.159 39.553)" fill="#5bbbe8"/>
      <rect id="사각형_70" data-name="사각형 70" width="1.045" height="5.934" transform="translate(18.116 41.66) rotate(-45)" fill="#5bbbe8"/>
      <path id="패스_120" data-name="패스 120" d="M32.621,82.707H31.576V62.66l4.35-4.35.738.74-4.043,4.043Z" transform="translate(-9.417 -17.39)" fill="#5bbbe8"/>
      <path id="패스_121" data-name="패스 121" d="M30.172,78.622a.761.761,0,1,1-.762-.762.761.761,0,0,1,.762.762" transform="translate(-8.544 -23.22)" fill="#ffe99c"/>
      <path id="패스_122" data-name="패스 122" d="M33.823,78.622a.761.761,0,1,0,.762-.762.761.761,0,0,0-.762.762" transform="translate(-10.087 -23.22)" fill="#ffe99c"/>
      <rect id="사각형_71" data-name="사각형 71" width="10.025" height="7.237" transform="translate(17.67 24.354)" fill="#ffe99c"/>
      <path id="패스_123" data-name="패스 123" d="M35.5,42.24H24.434V33.957H35.5ZM25.478,41.194h8.981V35H25.478Z" transform="translate(-7.287 -10.127)" fill="#5bbbe8"/>
      <rect id="사각형_72" data-name="사각형 72" width="1.045" height="7.237" transform="translate(22.159 24.354)" fill="#5bbbe8"/>
      <rect id="사각형_73" data-name="사각형 73" width="6.2" height="2.098" transform="translate(16.592 31.018)" fill="#ff492b"/>
      <rect id="사각형_74" data-name="사각형 74" width="6.2" height="2.098" transform="translate(22.791 31.018)" fill="#ff492b"/>
      <rect id="사각형_75" data-name="사각형 75" width="80.265" height="3.054" transform="translate(4.529 65.837)" fill="#ffd461"/>
      <rect id="사각형_76" data-name="사각형 76" width="27.721" height="16.944" transform="translate(49.064 37.644)" fill="#ffe99c"/>
      <path id="패스_124" data-name="패스 124" d="M97.935,70.886H69.172V52.9H97.935ZM70.216,69.842H96.891v-15.9H70.216Z" transform="translate(-20.629 -15.776)" fill="#5bbbe8"/>
      <rect id="사각형_77" data-name="사각형 77" width="1.044" height="16.944" transform="translate(55.535 37.644)" fill="#5bbbe8"/>
      <rect id="사각형_78" data-name="사각형 78" width="1.044" height="16.945" transform="translate(62.402 37.617)" fill="#5bbbe8"/>
      <rect id="사각형_79" data-name="사각형 79" width="1.044" height="16.945" transform="translate(69.27 37.617)" fill="#5bbbe8"/>
      <rect id="사각형_80" data-name="사각형 80" width="27.721" height="1.046" transform="translate(49.064 45.594)" fill="#5bbbe8"/>
      <rect id="사각형_81" data-name="사각형 81" width="7.443" height="13.776" transform="translate(58.747 3.121)" fill="#7f4f41"/>
      <rect id="사각형_82" data-name="사각형 82" width="10.306" height="2.444" transform="translate(57.315 1.404)" fill="#613b31"/>
    </g>
  </g>
</svg>
