<svg xmlns="http://www.w3.org/2000/svg" xmlns:xlink="http://www.w3.org/1999/xlink" width="198.556" height="197.166" viewBox="0 0 198.556 197.166">
  <defs>
    <clipPath id="clip-path">
      <rect id="사각형_94" data-name="사각형 94" width="189" height="187.531" fill="none"/>
    </clipPath>
  </defs>
  <g id="round_text" transform="translate(198.556 187.274) rotate(177)" style="mix-blend-mode: difference;isolation: isolate">
    <text id="A" transform="matrix(0.359, -0.933, 0.933, 0.359, 17.815, 70.651)" fill="#fff" font-size="17" font-family="Anta-Regular, Anta"><tspan x="0" y="0">A</tspan></text>
    <text id="n" transform="matrix(0.482, -0.876, 0.876, 0.482, 21.982, 59.899)" fill="#fff" font-size="17" font-family="Anta-Regular, Anta"><tspan x="0" y="0">n</tspan></text>
    <text id="i" transform="matrix(0.556, -0.831, 0.831, 0.556, 26.987, 51.068)" fill="#fff" font-size="17" font-family="Anta-Regular, Anta"><tspan x="0" y="0">i</tspan></text>
    <text id="m" transform="translate(28.786 47.795) rotate(-49.656)" fill="#fff" font-size="17" font-family="Anta-Regular, Anta"><tspan x="0" y="0">m</tspan></text>
    <text id="a-2" data-name="a" transform="translate(38.335 36.791) rotate(-40.921)" fill="#fff" font-size="17" font-family="Anta-Regular, Anta"><tspan x="0" y="0">a</tspan></text>
    <text id="l" transform="translate(46.038 30.285) rotate(-35.976)" fill="#fff" font-size="17" font-family="Anta-Regular, Anta"><tspan x="0" y="0">l</tspan></text>
    <text id="_" data-name=" " transform="matrix(0.841, -0.542, 0.542, 0.841, 49.099, 28.037)" fill="#fff" font-size="17" font-family="Anta-Regular, Anta"><tspan x="0" y="0"> </tspan></text>
    <text id="P" transform="translate(53.209 25.179) rotate(-26.882)" fill="#fff" font-size="17" font-family="Anta-Regular, Anta"><tspan x="0" y="0">P</tspan></text>
    <text id="r" transform="translate(63.481 20.125) rotate(-20.585)" fill="#fff" font-size="17" font-family="Anta-Regular, Anta"><tspan x="0" y="0">r</tspan></text>
    <g id="그룹_48" data-name="그룹 48">
      <g id="그룹_47" data-name="그룹 47" clip-path="url(#clip-path)">
        <text id="o" transform="matrix(0.967, -0.256, 0.256, 0.967, 68.943, 17.946)" fill="#fff" font-size="17" font-family="Anta-Regular, Anta"><tspan x="0" y="0">o</tspan></text>
        <text id="t" transform="matrix(0.988, -0.152, 0.152, 0.988, 78.606, 14.436)" fill="#fff" font-size="16" font-family="Anta-Regular, Anta"><tspan x="0" y="0">t</tspan></text>
        <text id="e" transform="matrix(0.999, -0.048, 0.048, 0.999, 85.421, 14.302)" fill="#fff" font-size="17" font-family="Anta-Regular, Anta"><tspan x="0" y="0">e</tspan></text>
        <text id="c" transform="translate(95.43 13.803) rotate(4.328)" fill="#fff" font-size="17" font-family="Anta-Regular, Anta"><tspan x="0" y="0">c</tspan></text>
        <text id="t-2" data-name="t" transform="translate(105.63 13.652) rotate(10.353)" fill="#fff" font-size="16" font-family="Anta-Regular, Anta"><tspan x="0" y="0">t</tspan></text>
      </g>
    </g>
    <text id="i-2" data-name="i" transform="translate(112.179 15.913) rotate(14.194)" fill="#fff" font-size="17" font-family="Anta-Regular, Anta"><tspan x="0" y="0">i</tspan></text>
    <text id="o-2" data-name="o" transform="translate(115.855 16.69) rotate(19.227)" fill="#fff" font-size="17" font-family="Anta-Regular, Anta"><tspan x="0" y="0">o</tspan></text>
    <text id="n-2" data-name="n" transform="translate(125.404 20.006) rotate(26.511)" fill="#fff" font-size="17" font-family="Anta-Regular, Anta"><tspan x="0" y="0">n</tspan></text>
    <text id="_2" data-name=" " transform="translate(134.417 24.628) rotate(31.953)" fill="#fff" font-size="17" font-family="Anta-Regular, Anta"><tspan x="0" y="0"> </tspan></text>
    <text id="C-2" data-name="C" transform="matrix(0.789, 0.615, -0.615, 0.789, 138.765, 27.121)" fill="#fff" font-size="17" font-family="Anta-Regular, Anta"><tspan x="0" y="0">C</tspan></text>
    <text id="e-2" data-name="e" transform="matrix(0.699, 0.715, -0.715, 0.699, 147.972, 34.354)" fill="#fff" font-size="17" font-family="Anta-Regular, Anta"><tspan x="0" y="0">e</tspan></text>
    <text id="n-3" data-name="n" transform="matrix(0.604, 0.797, -0.797, 0.604, 154.97, 41.495)" fill="#fff" font-size="17" font-family="Anta-Regular, Anta"><tspan x="0" y="0">n</tspan></text>
    <text id="t-3" data-name="t" transform="translate(161.874 49.086) rotate(58.889)" fill="#fff" font-size="16" font-family="Anta-Regular, Anta"><tspan x="0" y="0">t</tspan></text>
    <text id="e-3" data-name="e" transform="matrix(0.424, 0.906, -0.906, 0.424, 164.599, 55.349)" fill="#fff" font-size="17" font-family="Anta-Regular, Anta"><tspan x="0" y="0">e</tspan></text>
    <text id="r-2" data-name="r" transform="translate(168.768 64.477) rotate(70.728)" fill="#fff" font-size="17" font-family="Anta-Regular, Anta"><tspan x="0" y="0">r</tspan></text>
    <text id="_3" data-name=" " transform="translate(170.769 70.239) rotate(74.769)" fill="#fff" font-size="17" font-family="Anta-Regular, Anta"><tspan x="0" y="0"> </tspan></text>
    <text id="_4" data-name=" " transform="translate(172.101 75.12) rotate(78.425)" fill="#fff" font-size="17" font-family="Anta-Regular, Anta"><tspan x="0" y="0"> </tspan></text>
    <g id="그룹_50" data-name="그룹 50">
      <g id="그룹_49" data-name="그룹 49" clip-path="url(#clip-path)">
        <text id="_5" data-name=" " transform="translate(173.124 80.092) rotate(82.079)" fill="#fff" font-size="17" font-family="Anta-Regular, Anta"><tspan x="0" y="0"> </tspan></text>
        <text id="_6" data-name=" " transform="matrix(0.075, 0.997, -0.997, 0.075, 173.826, 85.111)" fill="#fff" font-size="17" font-family="Anta-Regular, Anta"><tspan x="0" y="0"> </tspan></text>
        <text id="_7" data-name=" " transform="translate(174.198 90.145) rotate(89.07)" fill="#fff" font-size="17" font-family="Anta-Regular, Anta"><tspan x="0" y="0"> </tspan></text>
        <text id="_8" data-name=" " transform="translate(174.275 95.241) rotate(92.879)" fill="#fff" font-size="17" font-family="Anta-Regular, Anta"><tspan x="0" y="0"> </tspan></text>
        <text id="_9" data-name=" " transform="translate(174.025 100.311) rotate(96.499)" fill="#fff" font-size="17" font-family="Anta-Regular, Anta"><tspan x="0" y="0"> </tspan></text>
        <text id="_10" data-name=" " transform="matrix(-0.176, 0.984, -0.984, -0.176, 173.453, 105.36)" fill="#fff" font-size="17" font-family="Anta-Regular, Anta"><tspan x="0" y="0"> </tspan></text>
      </g>
    </g>
    <text id="_11" data-name=" " transform="translate(172.565 110.343) rotate(103.803)" fill="#fff" font-size="17" font-family="Anta-Regular, Anta"><tspan x="0" y="0"> </tspan></text>
    <text id="_12" data-name=" " transform="translate(171.356 115.277) rotate(107.477)" fill="#fff" font-size="17" font-family="Anta-Regular, Anta"><tspan x="0" y="0"> </tspan></text>
    <text id="A-3" data-name="A" transform="translate(170.034 120.089) rotate(113.453)" fill="#fff" font-size="17" font-family="Anta-Regular, Anta"><tspan x="0" y="0">A</tspan></text>
    <text id="n-4" data-name="n" transform="translate(165.407 130.665) rotate(121.229)" fill="#fff" font-size="17" font-family="Anta-Regular, Anta"><tspan x="0" y="0">n</tspan></text>
    <text id="i-3" data-name="i" transform="translate(160.029 139.278) rotate(126.212)" fill="#fff" font-size="17" font-family="Anta-Regular, Anta"><tspan x="0" y="0">i</tspan></text>
    <text id="m-2" data-name="m" transform="translate(158.099 142.464) rotate(132.758)" fill="#fff" font-size="17" font-family="Anta-Regular, Anta"><tspan x="0" y="0">m</tspan></text>
    <text id="a-4" data-name="a" transform="translate(148.083 153.068) rotate(141.506)" fill="#fff" font-size="17" font-family="Anta-Regular, Anta"><tspan x="0" y="0">a</tspan></text>
    <text id="l-2" data-name="l" transform="matrix(-0.833, 0.553, -0.553, -0.833, 140.129, 159.228)" fill="#fff" font-size="17" font-family="Anta-Regular, Anta"><tspan x="0" y="0">l</tspan></text>
    <text id="_13" data-name=" " transform="translate(136.983 161.342) rotate(149.624)" fill="#fff" font-size="17" font-family="Anta-Regular, Anta"><tspan x="0" y="0"> </tspan></text>
    <text id="P-2" data-name="P" transform="matrix(-0.91, 0.414, -0.414, -0.91, 132.738, 164.035)" fill="#fff" font-size="17" font-family="Anta-Regular, Anta"><tspan x="0" y="0">P</tspan></text>
    <text id="r-3" data-name="r" transform="translate(122.257 168.646) rotate(161.869)" fill="#fff" font-size="17" font-family="Anta-Regular, Anta"><tspan x="0" y="0">r</tspan></text>
    <g id="그룹_52" data-name="그룹 52">
      <g id="그룹_51" data-name="그룹 51" clip-path="url(#clip-path)">
        <text id="o-3" data-name="o" transform="translate(116.729 170.584) rotate(167.584)" fill="#fff" font-size="17" font-family="Anta-Regular, Anta"><tspan x="0" y="0">o</tspan></text>
        <text id="t-4" data-name="t" transform="matrix(-0.994, 0.11, -0.11, -0.994, 106.931, 173.678)" fill="#fff" font-size="16" font-family="Anta-Regular, Anta"><tspan x="0" y="0">t</tspan></text>
        <text id="e-4" data-name="e" transform="translate(100.056 173.476) rotate(179.07)" fill="#fff" font-size="17" font-family="Anta-Regular, Anta"><tspan x="0" y="0">e</tspan></text>
        <text id="c-3" data-name="c" transform="translate(90.073 173.607) rotate(-173.252)" fill="#fff" font-size="17" font-family="Anta-Regular, Anta"><tspan x="0" y="0">c</tspan></text>
        <text id="t-5" data-name="t" transform="translate(79.874 173.326) rotate(-167.203)" fill="#fff" font-size="16" font-family="Anta-Regular, Anta"><tspan x="0" y="0">t</tspan></text>
      </g>
    </g>
    <text id="i-4" data-name="i" transform="translate(73.428 170.788) rotate(-163.356)" fill="#fff" font-size="17" font-family="Anta-Regular, Anta"><tspan x="0" y="0">i</tspan></text>
    <text id="o-4" data-name="o" transform="translate(69.79 169.856) rotate(-158.326)" fill="#fff" font-size="17" font-family="Anta-Regular, Anta"><tspan x="0" y="0">o</tspan></text>
    <text id="n-5" data-name="n" transform="translate(60.394 166.136) rotate(-151.054)" fill="#fff" font-size="17" font-family="Anta-Regular, Anta"><tspan x="0" y="0">n</tspan></text>
    <text id="_14" data-name=" " transform="translate(51.587 161.136) rotate(-145.624)" fill="#fff" font-size="17" font-family="Anta-Regular, Anta"><tspan x="0" y="0"> </tspan></text>
    <text id="C-4" data-name="C" transform="translate(47.345 158.459) rotate(-139.634)" fill="#fff" font-size="17" font-family="Anta-Regular, Anta"><tspan x="0" y="0">C</tspan></text>
    <text id="e-5" data-name="e" transform="translate(38.454 150.847) rotate(-131.904)" fill="#fff" font-size="17" font-family="Anta-Regular, Anta"><tspan x="0" y="0">e</tspan></text>
    <text id="n-6" data-name="n" transform="translate(31.757 143.41) rotate(-124.73)" fill="#fff" font-size="17" font-family="Anta-Regular, Anta"><tspan x="0" y="0">n</tspan></text>
    <text id="t-6" data-name="t" transform="translate(25.189 135.547) rotate(-118.686)" fill="#fff" font-size="16" font-family="Anta-Regular, Anta"><tspan x="0" y="0">t</tspan></text>
    <text id="e-6" data-name="e" transform="translate(22.727 129.166) rotate(-112.629)" fill="#fff" font-size="17" font-family="Anta-Regular, Anta"><tspan x="0" y="0">e</tspan></text>
    <text id="r-4" data-name="r" transform="translate(18.95 119.868) rotate(-106.823)" fill="#fff" font-size="17" font-family="Anta-Regular, Anta"><tspan x="0" y="0">r</tspan></text>
    <g id="그룹_54" data-name="그룹 54">
      <g id="그룹_53" data-name="그룹 53" clip-path="url(#clip-path)">
        <path id="패스_135" data-name="패스 135" d="M244.318,137.85a3.71,3.71,0,0,1,.9-5.292,3.658,3.658,0,0,1,1.164-.52,8.248,8.248,0,0,0,2.938-1.361l.236-.175a8.491,8.491,0,0,0,2.23-2.482,3.711,3.711,0,0,1,6.774,2.865,7.7,7.7,0,0,0,.31,4.836c.708,1.787.928,4.062-1.29,5.713-2.2,1.634-4.317.763-5.835-.426a7.93,7.93,0,0,0-4.6-1.666,3.7,3.7,0,0,1-2.834-1.493" transform="translate(-77.496 -40.153)" fill="#fff"/>
        <path id="패스_136" data-name="패스 136" d="M268.7,137.739c-1.135-1.525-1.036-3.518.219-4.452s3.193-.456,4.328,1.068,1.036,3.518-.22,4.452-3.192.456-4.327-1.068" transform="translate(-85.236 -42.253)" fill="#fff"/>
        <path id="패스_137" data-name="패스 137" d="M268.99,151.216c-1.135-1.525-1.036-3.518.219-4.452s3.193-.456,4.328,1.068,1.036,3.518-.22,4.452-3.192.456-4.327-1.068" transform="translate(-85.327 -46.541)" fill="#fff"/>
        <path id="패스_138" data-name="패스 138" d="M252.057,150.128c-1.135-1.525-3.072-2-4.327-1.068s-1.353,2.927-.22,4.452,3.072,2,4.328,1.068,1.353-2.927.219-4.452" transform="translate(-78.493 -47.271)" fill="#fff"/>
        <path id="패스_139" data-name="패스 139" d="M264.885,154.272c-1.135-1.525-3.072-2-4.327-1.068s-1.354,2.927-.22,4.452,3.072,2,4.328,1.068,1.353-2.927.22-4.452" transform="translate(-82.574 -48.589)" fill="#fff"/>
        <path id="패스_140" data-name="패스 140" d="M27.019,132.35a3.711,3.711,0,0,1,.77,5.313,3.672,3.672,0,0,1-.948.852,8.249,8.249,0,0,0-2.376,2.2l-.17.239A8.488,8.488,0,0,0,22.937,144a3.711,3.711,0,0,1-7.327-.64,7.7,7.7,0,0,0-1.784-4.506c-1.224-1.482-2.134-3.579-.53-5.833,1.585-2.23,3.872-2.055,5.682-1.39a7.929,7.929,0,0,0,4.885.17,3.7,3.7,0,0,1,3.156.548" transform="translate(-3.957 -41.738)" fill="#fff"/>
        <path id="패스_141" data-name="패스 141" d="M9.312,143.145c1.548,1.1,2.069,3.028,1.162,4.3s-2.9,1.416-4.446.315-2.069-3.027-1.162-4.3,2.9-1.416,4.446-.315" transform="translate(-1.406 -45.305)" fill="#fff"/>
        <path id="패스_142" data-name="패스 142" d="M4.892,130.411c1.548,1.1,2.069,3.028,1.162,4.3s-2.9,1.416-4.446.315S-.461,132,.446,130.726s2.9-1.416,4.446-.315" transform="translate(0 -41.254)" fill="#fff"/>
        <path id="패스_143" data-name="패스 143" d="M21.338,126.234c1.548,1.1,3.539.96,4.446-.315s.387-3.2-1.163-4.3-3.539-.96-4.446.315-.387,3.2,1.162,4.3" transform="translate(-6.277 -38.456)" fill="#fff"/>
        <path id="패스_144" data-name="패스 144" d="M7.858,126.24c1.548,1.1,3.539.96,4.446-.315s.387-3.2-1.163-4.3-3.539-.96-4.446.315-.387,3.2,1.162,4.3" transform="translate(-1.988 -38.458)" fill="#fff"/>
      </g>
    </g>
  </g>
</svg>
